<?xml version="1.0" encoding="utf-8"?>
<svg viewBox="0 0 100 100" xmlns="http://www.w3.org/2000/svg">
  <defs/>
  <rect width="100" height="100" style="fill: rgb(97, 243, 143);" x="-220"/>
  <path style="fill: rgb(76, 189, 113);" d="M -197 84 L -196 69 L -195 84 L -197 84 Z"/>
  <path style="fill: rgb(76, 189, 113);" d="M -200 85 L -201 67 L -197 84 L -200 85 Z"/>
  <rect width="100" height="100" style="fill: rgb(203, 203, 203);" x="330" y="330"/>
  <path style="fill: rgb(255, 255, 255);" d="M 377 356 L 378 353 L 377 352 L 376 349 L 375 348 L 375 346 L 376 345 L 377 341 L 380 340 L 384 341 L 385 345 L 386 346 L 386 348 L 385 349 L 384 352 L 383 353 L 384 356 L 381 359 L 377 356 Z"/>
  <path style="fill: rgb(255, 255, 255);" d="M 391 360 L 400 371 L 401 386 L 406 391 L 401 389 L 399 392 L 399 386 L 397 373 L 390 367 L 391 360 Z"/>
  <path style="fill: rgb(52, 52, 52);" d="M 389 388 C 389 388 393 404 393 404 L 391 409 L 391 420 L 396 425 L 386 423 L 387 419 L 386 405 L 381 391 L 389 388 Z"/>
  <path style="fill: rgb(52, 52, 52); transform-origin: 373.5px 406px;" d="M 374 425 C 374 425 378 408 378 408 L 376 403 L 376 392 L 381 387 L 371 389 L 372 393 L 371 407 L 366 421 L 374 425 Z" transform="matrix(-1, 0, 0, -1, -0.000125, -0.000099)"/>
  <path style="fill: rgb(255, 255, 255); transform-origin: 363px 376px;" d="M 356 392 L 365 381 L 366 366 L 371 361 L 366 363 L 364 360 L 364 366 L 362 379 L 355 385 L 356 392 Z" transform="matrix(-1, 0, 0, -1, 0.000074, -0.000123)"/>
  <path style="fill: rgb(52, 52, 52);" d="M 377 356 L 381 359 L 384 356 L 391 360 L 388 379 L 389 388 L 381 391 L 373 387 L 374 379 L 370 360 L 377 356 Z"/>
  <path style="fill: rgb(76, 189, 113);" d="M -195 84 L -191 67 L -192 83 L -195 84 Z"/>
  <path style="fill: rgb(76, 189, 113);" d="M -174 20 C -183 17 -195 22 -201 37 C -185 29 -176 32 -174 20 Z"/>
  <path style="transform-origin: -157.309px 33.5452px; fill: rgb(76, 189, 113);" d="M -148 21 C -158 22 -167 31 -167 48 C -155 34 -145 33 -148 21 Z"/>
  <rect width="100" height="100" style="fill: rgb(203, 203, 203);" x="440" y="330"/>
  <path style="fill: rgb(52, 52, 52);" d="M 486 347 L 485 341 L 488 338 L 494 339 L 497 342 C 497 342 495 347 495 347 C 495 347 486 347 486 347 Z"/>
  <path style="fill: rgb(255, 255, 255);" d="M 487 356 L 488 353 L 487 352 L 486 349 L 485 348 L 485 346 L 486 345 L 487 341 L 490 340 L 494 341 L 495 345 L 496 346 L 496 348 L 495 349 L 494 352 L 493 353 L 494 356 L 491 359 L 487 356 Z"/>
  <path style="fill: rgb(52, 52, 52);" d="M 499 388 C 499 388 503 404 503 404 L 501 414 L 501 420 L 506 425 L 496 423 L 497 419 L 496 405 L 491 391 L 499 388 Z"/>
  <path style="fill: rgb(52, 52, 52); transform-origin: 483.5px 406px;" d="M 484 425 C 484 425 488 408 488 408 L 486 398 L 486 392 L 491 387 L 481 389 L 482 393 L 481 407 L 476 421 L 484 425 Z" transform="matrix(-1, 0, 0, -1, -0.000039, -0.000099)"/>
  <path style="fill: rgb(255, 255, 255); transform-origin: 473px 376px;" d="M 466 392 L 472 377 L 471 363 L 469 356 L 469 361 L 466 361 L 469 363 L 469 375 L 464 383 L 466 392 Z" transform="matrix(-1, 0, 0, -1, 0.000159, -0.000123)"/>
  <path style="fill: rgb(52, 52, 52);" d="M 487 356 L 491 359 L 494 356 L 501 360 L 498 379 L 499 388 L 491 391 L 483 387 L 484 379 L 480 360 L 487 356 Z"/>
  <path style="fill: rgb(255, 255, 255); transform-origin: 508px 376px;" d="M 501 360 L 507 375 L 507 389 L 505 396 L 505 391 L 502 391 L 505 389 L 504 377 L 499 369 L 501 360 Z"/>
  <rect width="100" height="100" style="fill: rgb(203, 203, 203);" x="550" y="330"/>
  <g transform="matrix(1, 0, 0, 1, 220, 330)">
    <path style="fill: rgb(52, 52, 52);" d="M 376 17 L 375 11 L 378 8 L 384 9 L 387 12 C 387 12 385 17 385 17 C 385 17 376 17 376 17 Z"/>
    <path style="fill: rgb(255, 255, 255);" d="M 377 26 L 378 23 L 377 22 L 376 19 L 375 18 L 375 16 L 376 15 L 377 11 L 380 10 L 384 11 L 385 15 L 386 16 L 386 18 L 385 19 L 384 22 L 383 23 L 384 26 L 381 29 L 377 26 Z"/>
    <path style="fill: rgb(52, 52, 52);" d="M 389 58 C 389 58 393 74 393 74 L 391 84 L 391 90 L 396 95 L 386 93 L 387 89 L 386 75 L 381 61 L 389 58 Z"/>
    <path style="fill: rgb(52, 52, 52); transform-origin: 373.5px 76px;" d="M 374 95 C 374 95 378 78 378 78 L 376 68 L 376 62 L 381 57 L 371 59 L 372 63 L 371 77 L 366 91 L 374 95 Z" transform="matrix(-1, 0, 0, -1, -0.000026, 0.000009)"/>
    <path style="fill: rgb(255, 255, 255); transform-origin: 363px 46px;" d="M 356 62 L 362 47 L 361 33 L 359 26 L 359 31 L 356 31 L 359 33 L 359 45 L 354 53 L 356 62 Z" transform="matrix(-1, 0, 0, -1, 0.000022, -0.000007)"/>
    <path style="fill: rgb(52, 52, 52);" d="M 377 26 L 381 29 L 384 26 L 391 30 L 388 49 L 389 58 L 381 61 L 373 57 L 374 49 L 370 30 L 377 26 Z"/>
    <path style="fill: rgb(255, 255, 255); transform-origin: 398px 46px;" d="M 391 30 L 397 45 L 397 59 L 395 66 L 395 61 L 392 61 L 395 59 L 394 47 L 389 39 L 391 30 Z"/>
    <path style="fill: rgb(52, 52, 52);" d="M 381 26 L 377 22 L 376 19 L 378 21 L 379 18 L 382 18 L 383 21 L 385 19 L 384 22 L 381 26 Z"/>
  </g>
  <rect width="100" height="100" style="fill: rgb(203, 203, 203);" x="770" y="330"/>
  <path style="fill: rgb(255, 255, 255);" d="M 855 374 L 856 377 L 869 356 L 865 358 L 855 374 Z"/>
  <path style="fill: rgb(52, 52, 52);" d="M 849 384 L 856 377 L 855 374 L 847 383 L 849 384 Z"/>
  <path style="fill: rgb(255, 255, 255);" d="M 815 354 L 816 350 L 815 349 L 814 346 L 813 345 L 813 343 L 814 341 L 815 337 L 818 336 L 823 337 L 824 341 L 825 343 L 825 345 L 824 346 L 823 349 L 822 350 L 823 354 L 815 354 Z"/>
  <path style="fill: rgb(52, 52, 52);" d="M 815 348 L 813 337 L 816 334 L 823 335 L 826 338 L 823 349 L 818 350 L 815 348 Z"/>
  <path style="fill: rgb(52, 52, 52);" d="M 828 389 L 832 406 L 831 424 L 826 423 L 825 407 L 820 392 L 828 389 Z"/>
  <path style="fill: rgb(52, 52, 52);" d="M 811 388 L 807 406 L 809 424 L 813 423 L 814 407 L 820 392 L 811 388 Z"/>
  <path style="fill: rgb(255, 255, 255); transform-origin: 799.791px 375.549px;" d="M 807 358 L 801 374 L 802 390 L 804 398 L 804 392 L 807 392 L 804 390 L 804 377 L 810 368 L 807 358 Z"/>
  <path style="fill: rgb(52, 52, 52);" d="M 815 354 L 823 354 L 831 358 L 827 379 L 828 389 L 820 392 L 811 388 L 812 379 L 807 358 L 815 354 Z"/>
  <path style="fill: rgb(255, 255, 255); transform-origin: 838.301px 375.549px;" d="M 831 358 L 837 373 L 848 377 L 853 376 L 855 379 L 852 383 L 847 380 L 834 377 L 828 368 L 831 358 Z"/>
  <rect width="100" height="100" style="fill: rgb(203, 203, 203);" y="330" x="220"/>
  <path style="fill: rgb(255, 255, 255);" d="M 267 357 L 264 343 L 271 338 L 277 343 L 274 357 L 281 361 L 278 380 L 279 389 L 271 392 L 263 388 C 263 388 264 380 264 380 L 260 361 L 267 357 Z"/>
  <path style="fill: rgb(255, 255, 255);" d="M 281 361 L 290 372 L 291 387 L 296 392 L 291 390 L 289 393 L 289 387 L 287 374 L 280 368 L 281 361 Z"/>
  <path style="fill: rgb(255, 255, 255);" d="M 279 389 C 279 389 283 405 283 405 L 281 410 L 281 421 L 286 426 L 276 424 L 277 420 L 276 406 L 271 392 L 279 389 Z"/>
  <path style="fill: rgb(255, 255, 255); transform-box: fill-box; transform-origin: 50% 50%;" d="M 264 426 C 264 426 268 409 268 409 L 266 404 L 266 393 L 271 388 L 261 390 L 262 394 L 261 408 L 256 422 L 264 426 Z" transform="matrix(-1, 0, 0, -1, 0.000135, -0.000168)"/>
  <path style="fill: rgb(255, 255, 255); transform-box: fill-box; transform-origin: 50% 50%;" d="M 246 393 L 255 382 L 256 367 L 261 362 L 256 364 L 254 361 L 254 367 L 252 380 L 245 386 L 246 393 Z" transform="matrix(-1, 0, 0, -1, -0.000011, 0.000154)"/>
  <path style="fill: rgb(255, 255, 255); transform-origin: 811.303px 417.289px;" d="M 806 409 L 808 423 L 805 423 L 804 425 L 809 427 L 814 427 L 815 411 L 806 409 Z"/>
  <path style="fill: rgb(255, 255, 255); transform-origin: 827.866px 417.007px;" d="M 834 409 L 831 423 L 834 423 L 835 425 L 830 427 L 825 427 L 824 411 L 834 409 Z"/>
  <rect width="100" height="100" style="fill: rgb(203, 203, 203);" y="440" x="770"/>
  <path style="fill: rgb(255, 255, 255);" d="M 855 484 L 856 487 L 869 466 L 865 468 L 855 484 Z"/>
  <path style="fill: rgb(52, 52, 52);" d="M 849 494 L 856 487 L 855 484 L 847 493 L 849 494 Z"/>
  <path style="fill: rgb(255, 255, 255);" d="M 815 464 L 816 460 L 815 459 L 814 456 L 813 455 L 813 453 L 814 451 L 815 447 L 818 446 L 823 447 L 824 451 L 825 453 L 825 455 L 824 456 L 823 459 L 822 460 L 823 464 L 815 464 Z"/>
  <path style="fill: rgb(52, 52, 52);" d="M 815 458 L 813 447 L 816 444 L 823 445 L 826 448 L 823 459 L 818 460 L 815 458 Z"/>
  <path style="fill: rgb(52, 52, 52);" d="M 828 499 L 832 516 L 831 534 L 836 535 L 825 537 L 826 533 L 825 517 L 820 502 L 828 499 Z"/>
  <path style="fill: rgb(52, 52, 52);" d="M 811 498 L 807 516 L 809 532 L 803 534 L 813 537 L 813 533 L 814 517 L 820 502 L 811 498 Z"/>
  <path style="fill: rgb(255, 255, 255); transform-origin: 799.791px 485.549px;" d="M 807 468 L 801 484 L 802 500 L 804 508 L 804 502 L 807 502 L 804 500 L 804 487 L 810 478 L 807 468 Z"/>
  <path style="fill: rgb(52, 52, 52);" d="M 815 464 L 823 464 L 831 468 L 827 489 L 828 499 L 820 502 L 811 498 L 812 489 L 807 468 L 815 464 Z"/>
  <path style="fill: rgb(255, 255, 255); transform-origin: 838.301px 485.549px;" d="M 831 468 L 837 483 L 848 487 L 853 486 L 855 489 L 852 493 L 847 490 L 834 487 L 828 478 L 831 468 Z"/>
  <rect width="100" height="100" style="fill: rgb(203, 203, 203);" x="880" y="330"/>
  <path style="fill: rgb(255, 255, 255);" d="M 965 374 L 966 377 L 979 356 L 975 358 L 965 374 Z"/>
  <path style="fill: rgb(52, 52, 52);" d="M 959 384 L 966 377 L 965 374 L 957 383 L 959 384 Z"/>
  <path style="fill: rgb(52, 52, 52);" d="M 925 354 L 926 350 L 925 349 L 924 346 L 923 345 L 923 343 L 924 341 L 925 337 L 928 336 L 933 337 L 934 341 L 935 343 L 935 345 L 934 346 L 933 349 L 932 350 L 933 354 L 925 354 Z"/>
  <path style="fill: rgb(52, 52, 52);" d="M 925 348 L 923 337 L 926 334 L 933 335 L 936 338 L 933 349 L 928 350 L 925 348 Z"/>
  <path style="fill: rgb(255, 255, 255);" d="M 938 389 L 942 406 L 941 424 L 936 423 L 935 407 L 930 392 L 938 389 Z"/>
  <path style="fill: rgb(255, 255, 255);" d="M 921 388 L 917 406 L 919 424 L 923 423 L 924 407 L 930 392 L 921 388 Z"/>
  <path style="fill: rgb(52, 52, 52); transform-origin: 909.791px 375.549px;" d="M 917 358 L 911 374 L 912 390 L 914 398 L 914 392 L 917 392 L 914 390 L 914 377 L 920 368 L 917 358 Z"/>
  <path style="fill: rgb(255, 255, 255);" d="M 925 354 L 933 354 L 941 358 L 937 379 L 938 389 L 930 392 L 921 388 L 922 379 L 917 358 L 925 354 Z"/>
  <path style="fill: rgb(52, 52, 52); transform-origin: 948.301px 375.549px;" d="M 941 358 L 947 373 L 958 377 L 963 376 L 965 379 L 962 383 L 957 380 L 944 377 L 938 368 L 941 358 Z"/>
  <path style="fill: rgb(52, 52, 52); transform-origin: 921.303px 417.289px;" d="M 916 409 L 918 423 L 915 423 L 914 425 L 919 427 L 924 427 L 925 411 L 916 409 Z"/>
  <path style="fill: rgb(52, 52, 52); transform-origin: 937.866px 417.007px;" d="M 944 409 L 941 423 L 944 423 L 945 425 L 940 427 L 935 427 L 934 411 L 944 409 Z"/>
  <rect width="100" height="100" style="fill: rgb(203, 203, 203);" x="220" y="-220"/>
  <rect width="100" height="100" style="fill: rgb(203, 203, 203);" x="660" y="330"/>
  <path style="fill: rgb(255, 255, 255);" d="M 738 375 L 739 377 L 751 358 L 747 360 L 738 375 Z"/>
  <path style="fill: rgb(52, 52, 52);" d="M 733 384 L 739 377 L 738 375 L 731 383 L 733 384 Z"/>
  <path style="fill: rgb(255, 255, 255);" d="M 702 356 L 703 353 L 702 352 L 701 349 L 700 348 L 700 346 L 701 345 L 702 341 L 705 340 L 709 341 L 710 345 L 711 346 L 711 348 L 710 349 L 709 352 L 708 353 L 709 356 L 702 356 Z"/>
  <path style="fill: rgb(52, 52, 52);" d="M 702 351 L 700 341 L 703 338 L 709 339 L 712 342 L 709 352 L 705 353 L 702 351 Z"/>
  <path style="fill: rgb(52, 52, 52);" d="M 714 388 L 717 404 L 716 420 L 721 421 L 711 423 L 712 419 L 711 405 L 706 391 L 714 388 Z"/>
  <path style="fill: rgb(52, 52, 52); transform-origin: 698.5px 406px;" d="M 698 387 L 695 404 L 696 420 L 691 421 L 700 423 L 700 419 L 701 405 L 706 391 L 698 387 Z"/>
  <path style="fill: rgb(255, 255, 255); transform-origin: 688px 376px;" d="M 695 360 L 689 375 L 690 389 L 692 396 L 692 391 L 695 391 L 692 389 L 692 377 L 697 369 L 695 360 Z"/>
  <path style="fill: rgb(52, 52, 52);" d="M 702 356 L 709 356 L 716 360 L 713 379 L 714 388 L 706 391 L 698 387 L 699 379 L 695 360 L 702 356 Z"/>
  <path style="fill: rgb(255, 255, 255); transform-origin: 723px 376px;" d="M 716 360 L 722 374 L 732 377 L 736 376 L 738 379 L 735 383 L 731 380 L 719 377 L 714 369 L 716 360 Z"/>
  <rect width="100" height="100" style="fill: rgb(203, 203, 203);" x="990" y="330"/>
  <path style="fill: rgb(255, 255, 255);" d="M 1075 374 L 1076 377 L 1089 356 L 1085 358 L 1075 374 Z"/>
  <path style="fill: rgb(52, 52, 52);" d="M 1069 384 L 1076 377 L 1075 374 L 1067 383 L 1069 384 Z"/>
  <path style="fill: rgb(255, 255, 255);" d="M 1035 354 L 1036 350 L 1035 349 L 1034 346 L 1033 345 L 1033 343 L 1034 341 L 1035 337 L 1038 336 L 1043 337 L 1044 341 L 1045 343 L 1045 345 L 1044 346 L 1043 349 L 1042 350 L 1043 354 L 1035 354 Z"/>
  <path style="fill: rgb(52, 52, 52);" d="M 1035 348 L 1033 337 L 1036 334 L 1043 335 L 1046 338 L 1043 349 L 1038 350 L 1035 348 Z"/>
  <path style="fill: rgb(52, 52, 52); transform-origin: 1019.79px 375.549px;" d="M 1027 358 L 1021 376 L 1022 390 L 1025 398 L 1025 393 L 1027 392 L 1024 389 L 1025 377 L 1030 368 L 1027 358 Z"/>
  <path style="fill: rgb(52, 52, 52); transform-origin: 1058.3px 375.549px;" d="M 1051 358 L 1057 373 L 1068 377 L 1073 376 L 1075 379 L 1072 383 L 1067 380 L 1054 377 L 1048 368 L 1051 358 Z"/>
  <path style="fill: rgb(52, 52, 52);" d="M 1054 409 L 1051 423 L 1054 423 L 1055 425 L 1050 427 L 1045 427 L 1044 411 L 1045 411 L 1045 407 L 1040 392 L 1034 407 L 1034 411 L 1035 411 L 1034 427 L 1029 427 L 1024 425 L 1025 423 L 1028 423 L 1026 409 L 1027 409 L 1027 406 L 1031 388 L 1032 381 L 1047 381 L 1049 389 L 1052 406 L 1052 409 L 1054 409 Z"/>
  <path style="fill: rgb(255, 255, 255);" d="M 1035 354 L 1043 354 L 1051 358 L 1047 381 L 1032 381 L 1027 358 L 1035 354 Z"/>
  <path style="fill: rgb(52, 52, 52);" d="M 1034 379 L 1031 379 L 1030 376 L 1032 372 L 1028 356 L 1033 353 L 1045 353 L 1050 356 L 1047 372 L 1049 376 L 1048 379 L 1045 378 L 1034 379 Z"/>
  <rect width="100" height="100" style="fill: rgb(203, 203, 203);" y="440" x="220"/>
  <path style="fill: rgb(255, 255, 255);" d="M 305 484 L 306 487 L 319 466 L 315 468 L 305 484 Z"/>
  <path style="fill: rgb(52, 52, 52);" d="M 299 494 L 306 487 L 305 484 L 297 493 L 299 494 Z"/>
  <path style="fill: rgb(52, 52, 52); transform-origin: 249.791px 485.549px;" d="M 257 468 L 251 486 L 252 500 L 255 508 L 255 503 L 257 502 L 254 499 L 255 487 L 260 478 L 257 468 Z"/>
  <path style="fill: rgb(52, 52, 52); transform-origin: 288.301px 485.549px;" d="M 281 468 L 287 483 L 298 487 L 303 486 L 305 489 L 302 493 L 297 490 L 284 487 L 278 478 L 281 468 Z"/>
  <path style="fill: rgb(52, 52, 52);" d="M 284 519 L 281 533 L 284 533 L 285 535 L 280 537 L 275 537 L 274 521 L 275 521 L 275 517 L 270 502 L 264 517 L 264 521 L 265 521 L 264 537 L 259 537 L 254 535 L 255 533 L 258 533 L 256 519 L 257 519 L 257 516 L 261 498 L 262 491 L 277 491 L 279 499 L 282 516 L 282 519 L 284 519 Z"/>
  <path style="fill: rgb(255, 255, 255);" d="M 281 468 L 277 491 L 262 491 L 257 468 L 265 464 L 266 459 L 272 458 L 273 464 L 281 468 Z"/>
  <path style="fill: rgb(52, 52, 52);" d="M 261 460 L 263 447 L 267 444 L 273 445 L 277 459 L 274 461 L 270 460 L 267 461 L 264 460 L 261 460 Z"/>
  <path style="fill: rgb(52, 52, 52);" d="M 264 489 L 260 490 L 259 486 L 262 482 L 258 466 L 261 462 L 277 463 L 280 466 L 277 482 L 280 486 L 279 490 L 275 488 L 264 489 Z"/>
  <path style="fill: rgb(52, 52, 52);" d="M 260 -192 L 259 -200 L 263 -214 L 271 -217 L 279 -215 L 283 -200 L 282 -191 L 297 -179 L 302 -151 L 300 -125 L 293 -121 L 295 -126 L 290 -126 L 294 -130 L 293 -146 L 287 -161 L 284 -150 L 287 -138 L 282 -128 L 282 -123 L 275 -122 L 275 -125 L 271 -125 L 275 -130 L 278 -137 L 270 -143 L 264 -138 L 265 -130 L 267 -124 L 264 -125 L 263 -122 L 255 -124 L 257 -128 L 252 -138 L 256 -150 L 254 -163 L 248 -146 L 253 -129 L 253 -123 L 250 -126 L 248 -121 L 243 -124 L 243 -130 L 237 -152 L 248 -180 L 260 -192 Z"/>
  <path style="fill: rgb(255, 255, 255);" d="M 266 -201 L 265 -199 L 270 -200 L 266 -201 Z"/>
  <path style="fill: rgb(255, 255, 255);" d="M 276 -201 L 272 -200 L 277 -199 L 276 -201 Z"/>
  <path style="fill: rgb(255, 255, 255);" d="M 266 -194 L 268 -195 L 269 -195 L 274 -194 L 276 -193 L 274 -195 L 268 -196 L 266 -194 Z"/>
  <rect width="100" height="100" style="fill: rgb(203, 203, 203);" x="330" y="440"/>
  <path style="fill: rgb(255, 255, 255);" d="M 411 485 L 412 488 L 425 467 L 421 469 L 411 485 Z"/>
  <path style="fill: rgb(52, 52, 52);" d="M 405 495 L 412 488 L 411 485 L 403 494 L 405 495 Z"/>
  <path style="fill: rgb(52, 52, 52); transform-origin: 359.791px 485.549px;" d="M 367 468 L 361 488 L 365 497 L 368 505 L 368 500 L 370 499 L 367 496 L 365 489 L 370 478 L 367 468 Z"/>
  <path style="fill: rgb(52, 52, 52); transform-origin: 398.301px 485.549px;" d="M 391 468 L 397 483 L 404 488 L 408 488 L 410 491 L 407 495 L 403 491 L 394 487 L 388 478 L 391 468 Z"/>
  <path style="fill: rgb(52, 52, 52);" d="M 396 512 L 393 526 L 396 526 L 397 528 L 392 530 L 387 530 L 386 514 L 387 514 L 387 510 L 380 504 L 374 517 L 374 521 L 375 521 L 374 537 L 369 537 L 364 535 L 365 533 L 368 533 L 366 519 L 367 519 L 367 516 L 371 498 L 372 491 L 387 491 L 389 498 L 394 509 L 394 512 L 396 512 Z"/>
  <path style="fill: rgb(255, 255, 255);" d="M 391 468 L 387 491 L 372 491 L 367 468 L 375 464 L 376 459 L 382 458 L 383 464 L 391 468 Z"/>
  <path style="fill: rgb(52, 52, 52);" d="M 372 460 L 374 447 L 378 444 L 384 445 L 388 459 L 385 461 L 381 460 L 378 461 L 375 460 L 372 460 Z"/>
  <path style="fill: rgb(52, 52, 52);" d="M 374 490 L 370 491 L 369 487 L 372 483 L 368 467 L 371 463 L 387 464 L 390 467 L 387 483 L 390 487 L 389 491 L 385 489 L 374 490 Z"/>
  <rect width="100" height="100" style="fill: rgb(203, 203, 203);" x="440" y="440"/>
  <path style="fill: rgb(255, 255, 255); transform-origin: 525px 468.5px;" d="M 520 477 L 521 480 L 529 457 L 526 460 L 520 477 Z"/>
  <path style="fill: rgb(52, 52, 52); transform-origin: 517.5px 483px;" d="M 517 489 L 521 480 L 520 477 L 515 487 L 517 489 Z"/>
  <path style="fill: rgb(52, 52, 52); transform-origin: 469.791px 485.549px;" d="M 477 468 L 471 487 L 472 501 L 475 509 L 475 504 L 477 503 L 474 500 L 475 488 L 480 478 L 477 468 Z"/>
  <path style="fill: rgb(52, 52, 52); transform-origin: 508.301px 485.549px;" d="M 501 468 L 506 482 L 514 482 L 518 480 L 521 482 L 519 487 L 514 485 L 503 487 L 498 478 L 501 468 Z"/>
  <path style="fill: rgb(52, 52, 52);" d="M 500 519 L 497 533 L 500 533 L 501 535 L 496 537 L 491 537 L 490 521 L 491 521 L 491 517 L 489 503 L 484 513 L 484 517 L 485 517 L 484 533 L 479 533 L 474 531 L 475 529 L 478 529 L 476 515 L 477 515 L 477 512 L 481 498 L 482 491 L 497 491 L 498 500 L 498 516 L 498 519 L 500 519 Z"/>
  <path style="fill: rgb(255, 255, 255);" d="M 501 468 L 497 491 L 482 491 L 477 468 L 485 464 L 486 459 L 492 458 L 493 464 L 501 468 Z"/>
  <path style="fill: rgb(52, 52, 52);" d="M 481 461 L 483 448 L 487 445 L 493 446 L 497 460 L 494 462 L 490 461 L 487 462 L 484 461 L 481 461 Z"/>
  <path style="fill: rgb(52, 52, 52);" d="M 484 489 L 480 490 L 479 486 L 482 482 L 478 466 L 481 462 L 497 463 L 500 466 L 497 482 L 500 486 L 499 490 L 495 488 L 484 489 Z"/>
  <rect width="100" height="100" style="fill: rgb(203, 203, 203);" y="550" x="220"/>
  <path style="fill: rgb(255, 255, 255);" d="M 305 597 L 306 600 L 319 579 L 315 581 L 305 597 Z"/>
  <path style="fill: rgb(52, 52, 52);" d="M 299 607 L 306 600 L 305 597 L 297 606 L 299 607 Z"/>
  <path style="fill: rgb(52, 52, 52); transform-origin: 249.791px 596.549px;" d="M 257 579 L 251 597 L 253 611 L 256 619 L 256 614 L 258 613 L 255 610 L 255 598 L 260 589 L 257 579 Z"/>
  <path style="fill: rgb(52, 52, 52); transform-origin: 288.301px 596.549px;" d="M 281 579 L 287 594 L 298 600 L 303 599 L 305 602 L 302 606 L 297 603 L 284 598 L 278 589 L 281 579 Z"/>
  <path style="fill: rgb(52, 52, 52);" d="M 284 629 L 281 643 L 284 643 L 285 645 L 280 647 L 275 647 L 274 631 L 275 631 L 275 627 L 270 612 L 264 627 L 264 631 L 265 631 L 264 647 L 259 647 L 254 645 L 255 643 L 258 643 L 256 629 L 257 629 L 257 626 L 261 608 L 262 602 L 277 602 L 279 609 L 282 626 L 282 629 L 284 629 Z"/>
  <path style="fill: rgb(255, 255, 255);" d="M 281 579 L 277 602 L 262 602 L 257 579 L 265 575 L 266 570 L 272 569 L 273 575 L 281 579 Z"/>
  <path style="fill: rgb(52, 52, 52);" d="M 261 571 L 263 558 L 267 555 L 273 556 L 277 570 L 274 572 L 270 571 L 267 572 L 264 571 L 261 571 Z"/>
  <path style="fill: rgb(52, 52, 52);" d="M 264 600 L 260 601 L 259 597 L 262 593 L 258 577 L 261 573 L 277 574 L 280 577 L 277 593 L 280 597 L 279 601 L 275 599 L 264 600 Z"/>
  <rect width="100" height="100" style="fill: rgb(203, 203, 203);" x="220" y="-110"/>
  <path style="fill: rgb(52, 52, 52);" d="M 260 -81 L 259 -89 L 263 -103 L 271 -106 L 279 -104 L 283 -89 L 282 -80 L 297 -68 L 303 -41 L 296 -17 L 289 -13 L 291 -18 L 286 -18 L 290 -22 L 294 -36 L 287 -51 L 284 -40 L 287 -28 L 282 -18 L 282 -13 L 275 -12 L 275 -15 L 271 -15 L 275 -20 L 278 -27 L 270 -33 L 264 -28 L 265 -20 L 267 -14 L 264 -15 L 263 -12 L 255 -14 L 257 -18 L 252 -28 L 256 -40 L 254 -53 L 248 -35 L 252 -20 L 252 -14 L 249 -17 L 247 -12 L 242 -15 L 242 -21 L 237 -41 L 248 -69 L 260 -81 Z"/>
  <path style="fill: rgb(255, 255, 255);" d="M 266 -90 L 265 -88 L 270 -89 L 266 -90 Z"/>
  <path style="fill: rgb(255, 255, 255);" d="M 276 -90 L 272 -89 L 277 -88 L 276 -90 Z"/>
  <path style="fill: rgb(255, 255, 255);" d="M 266 -83 L 268 -84 L 269 -84 L 274 -83 L 276 -82 L 274 -84 L 268 -85 L 266 -83 Z"/>
  <rect width="100" height="100" style="fill: rgb(203, 203, 203);" x="330" y="-220"/>
  <path style="fill: rgb(52, 52, 52);" d="M 369 -192 L 368 -200 L 372 -214 L 380 -217 L 388 -215 L 392 -200 L 391 -191 L 407 -179 L 415 -158 L 413 -132 L 406 -128 L 408 -133 L 403 -133 L 407 -137 L 406 -153 L 397 -161 L 394 -150 L 403 -140 L 400 -131 L 400 -126 L 393 -125 L 393 -128 L 389 -128 L 393 -133 L 389 -138 L 380 -143 L 374 -138 L 375 -130 L 377 -125 L 374 -125 L 373 -122 L 366 -123 L 367 -128 L 362 -138 L 366 -150 L 364 -163 L 355 -149 L 354 -128 L 357 -124 L 354 -124 L 354 -122 L 348 -122 L 344 -129 L 344 -155 L 358 -180 L 369 -192 Z"/>
  <path style="fill: rgb(255, 255, 255);" d="M 375 -201 L 374 -199 L 379 -200 L 375 -201 Z"/>
  <path style="fill: rgb(255, 255, 255);" d="M 385 -201 L 381 -200 L 386 -199 L 385 -201 Z"/>
  <path style="fill: rgb(255, 255, 255);" d="M 375 -194 L 377 -195 L 378 -195 L 383 -194 L 385 -193 L 383 -195 L 377 -196 L 375 -194 Z"/>
  <rect width="100" height="100" style="fill: rgb(57, 59, 194);" y="-1" x="-660"/>
  <path style="fill: rgb(255, 255, 255);" d="M -639 66 L -635 28 L -624 14 L -605 12 L -593 27 L -589 63 L -639 66 Z"/>
  <path style="fill: rgb(52, 52, 52);" d="M -627 31 L -618 33 L -619 38 L -627 31 Z"/>
  <path style="fill: rgb(52, 52, 52); transform-origin: -604.852px 34.736px;" d="M -609 40 L -599 36 L -601 32 L -609 40 Z" transform="matrix(-1, 0, 0, -1, -0.000015, 0.000034)"/>
  <path style="fill: rgb(52, 52, 52);" d="M -628 41 L -630 50 L -613 52 L -597 48 L -600 40 L -604 48 L -608 42 L -611 49 L -615 42 L -619 49 L -622 42 L -625 47 L -628 41 Z"/>
  <path style="fill: rgb(218, 218, 218);" d="M -639 66 L -635 28 L -624 14 L -630 17 L -639 28 L -643 61 L -639 66 Z"/>
  <path style="fill: rgba(255, 255, 255, 0.133);" d="M -639 66 L -625 71 L -621 78 L -606 80 L -593 70 L -589 63 L -639 66 Z"/>
  <path style="fill: rgb(255, 255, 255);" d="M -573 82 L -591 82 L -587 75 L -577 72 L -573 82 Z"/>
  <path style="fill: rgb(218, 218, 218);" d="M -593 80 L -591 82 L -587 75 L -577 72 L -589 74 L -593 80 Z"/>
  <path style="fill: rgba(255, 255, 255, 0.133);" d="M -573 82 L -591 82 L -588 85 L -577 87 L -573 82 Z"/>
  <rect width="100" height="100" style="fill: rgb(203, 203, 203);" x="440" y="-220"/>
  <path style="fill: rgb(52, 52, 52);" d="M 481 -192 L 480 -200 L 484 -214 L 492 -217 L 500 -215 L 504 -200 L 503 -191 L 517 -179 L 525 -158 L 521 -137 L 514 -133 L 516 -138 L 511 -138 L 515 -142 L 516 -153 L 507 -161 L 504 -150 L 508 -138 L 506 -127 L 506 -122 L 499 -121 L 499 -124 L 495 -124 L 499 -129 L 497 -136 L 490 -143 L 488 -138 L 490 -131 L 492 -126 L 489 -126 L 488 -123 L 481 -124 L 482 -129 L 476 -138 L 476 -150 L 474 -163 L 466 -156 L 468 -141 L 468 -135 L 465 -138 L 463 -133 L 458 -136 L 458 -142 L 456 -161 L 468 -180 L 481 -192 Z"/>
  <path style="fill: rgb(255, 255, 255);" d="M 486 -201 L 485 -199 L 490 -200 L 486 -201 Z"/>
  <path style="fill: rgb(255, 255, 255);" d="M 496 -201 L 492 -200 L 497 -199 L 496 -201 Z"/>
  <path style="fill: rgb(255, 255, 255);" d="M 486 -194 L 488 -195 L 489 -195 L 494 -194 L 496 -193 L 494 -195 L 488 -196 L 486 -194 Z"/>
  <rect width="100" height="100" style="fill: rgb(203, 203, 203);" x="330" y="-110"/>
  <path style="fill: rgb(52, 52, 52);" d="M 369 -82 L 368 -90 L 372 -104 L 380 -107 L 388 -105 L 392 -90 L 391 -81 L 407 -69 L 415 -48 L 413 -22 L 406 -18 L 408 -23 L 403 -23 L 407 -27 L 406 -43 L 397 -51 L 394 -40 L 403 -30 L 400 -21 L 400 -16 L 393 -15 L 393 -18 L 389 -18 L 393 -23 L 389 -28 L 380 -33 L 374 -28 L 375 -20 L 377 -15 L 374 -15 L 373 -12 L 366 -13 L 367 -18 L 362 -28 L 366 -40 L 364 -53 L 355 -39 L 360 -22 L 360 -16 L 357 -19 L 355 -14 L 350 -17 L 350 -23 L 344 -45 L 358 -70 L 369 -82 Z"/>
  <path style="fill: rgb(255, 255, 255);" d="M 375 -91 L 374 -89 L 379 -90 L 375 -91 Z"/>
  <path style="fill: rgb(255, 255, 255);" d="M 385 -91 L 381 -90 L 386 -89 L 385 -91 Z"/>
  <path style="fill: rgb(255, 255, 255);" d="M 375 -84 L 377 -85 L 378 -85 L 383 -84 L 385 -83 L 383 -85 L 377 -86 L 375 -84 Z"/>
  <rect width="100" height="100" style="fill: rgb(203, 203, 203);" x="440" y="-110"/>
  <path style="fill: rgb(52, 52, 52);" d="M 481 -82 L 480 -90 L 484 -104 L 492 -107 L 500 -105 L 504 -90 L 503 -81 L 517 -69 L 525 -48 L 521 -27 L 514 -23 L 516 -28 L 511 -28 L 515 -32 L 516 -43 L 507 -51 L 504 -40 L 508 -28 L 506 -17 L 506 -12 L 499 -11 L 499 -14 L 495 -14 L 499 -19 L 497 -26 L 490 -33 L 488 -28 L 490 -21 L 492 -16 L 489 -16 L 488 -13 L 481 -14 L 482 -19 L 476 -28 L 476 -40 L 474 -53 L 466 -46 L 468 -31 L 468 -25 L 465 -28 L 463 -23 L 458 -26 L 458 -32 L 456 -51 L 468 -70 L 481 -82 Z"/>
  <path style="fill: rgb(255, 255, 255);" d="M 486 -91 L 485 -89 L 490 -90 L 486 -91 Z"/>
  <path style="fill: rgb(255, 255, 255);" d="M 496 -91 L 492 -90 L 497 -89 L 496 -91 Z"/>
  <path style="fill: rgb(255, 255, 255);" d="M 486 -84 L 488 -85 L 489 -85 L 494 -84 L 496 -83 L 494 -85 L 488 -86 L 486 -84 Z"/>
  <rect width="100" height="100" style="fill: rgb(203, 203, 203);" x="330" y="-330"/>
  <path style="fill: rgb(52, 52, 52);" d="M 369 -302 L 368 -310 L 372 -324 L 380 -327 L 388 -325 L 392 -310 L 391 -301 L 407 -289 L 414 -263 L 415 -233 L 407 -233 L 407 -237 L 404 -237 L 407 -241 L 405 -258 L 397 -271 L 396 -261 L 403 -251 L 401 -243 L 400 -238 L 393 -237 L 393 -240 L 389 -240 L 393 -245 L 387 -250 L 380 -251 L 374 -248 L 375 -240 L 377 -235 L 374 -235 L 373 -232 L 366 -233 L 367 -238 L 362 -248 L 366 -260 L 364 -273 L 357 -262 L 358 -246 L 358 -240 L 355 -243 L 353 -238 L 348 -241 L 348 -247 L 346 -268 L 358 -290 L 369 -302 Z"/>
  <path style="fill: rgb(255, 255, 255);" d="M 375 -311 L 374 -309 L 379 -310 L 375 -311 Z"/>
  <path style="fill: rgb(255, 255, 255);" d="M 385 -311 L 381 -310 L 386 -309 L 385 -311 Z"/>
  <path style="fill: rgb(255, 255, 255);" d="M 375 -304 L 377 -305 L 378 -305 L 383 -304 L 385 -303 L 383 -305 L 377 -306 L 375 -304 Z"/>
  <rect width="100" height="100" style="fill: rgb(203, 203, 203);" x="440" y="-330"/>
  <path style="fill: rgb(52, 52, 52);" d="M 481 -302 L 480 -310 L 484 -324 L 492 -327 L 500 -325 L 504 -310 L 503 -301 L 517 -289 L 525 -268 L 522 -243 L 515 -239 L 517 -244 L 512 -244 L 516 -248 L 516 -263 L 507 -271 L 504 -260 L 508 -248 L 505 -237 L 505 -232 L 498 -231 L 498 -234 L 494 -234 L 498 -239 L 497 -246 L 490 -253 L 490 -248 L 492 -241 L 494 -236 L 491 -236 L 490 -233 L 483 -234 L 484 -239 L 478 -248 L 476 -260 L 474 -273 L 469 -269 L 465 -254 L 465 -248 L 462 -251 L 460 -246 L 455 -249 L 455 -255 L 459 -274 L 468 -292 L 481 -302 Z"/>
  <path style="fill: rgb(255, 255, 255);" d="M 486 -311 L 485 -309 L 490 -310 L 486 -311 Z"/>
  <path style="fill: rgb(255, 255, 255);" d="M 496 -311 L 492 -310 L 497 -309 L 496 -311 Z"/>
  <path style="fill: rgb(255, 255, 255);" d="M 486 -304 L 488 -305 L 489 -305 L 494 -304 L 496 -303 L 494 -305 L 488 -306 L 486 -304 Z"/>
  <rect width="100" height="100" style="fill: rgb(203, 203, 203);" y="660" x="220"/>
  <path style="fill: rgb(52, 52, 52);" d="M 290 735 L 286 749 L 289 755 L 286 758 L 277 753 L 276 737 L 277 737 L 277 733 L 270 718 L 262 733 L 262 737 L 263 737 L 262 753 L 251 758 L 250 753 L 254 749 L 251 735 L 252 735 L 252 732 L 259 710 L 280 708 L 287 732 L 287 735 L 290 735 Z"/>
  <path style="fill: rgb(255, 255, 255);" d="M 285 685 L 280 708 L 259 710 L 253 686 L 263 681 L 275 681 L 285 685 Z"/>
  <path style="fill: rgb(52, 52, 52); transform-origin: 243.137px 703.549px;" d="M 253 686 L 245 704 L 248 718 L 252 726 L 252 721 L 255 720 L 250 717 L 250 705 L 257 696 L 253 686 Z"/>
  <path style="fill: rgb(52, 52, 52); transform-origin: 294.279px 702.549px;" d="M 285 685 L 293 703 L 290 717 L 286 725 L 286 720 L 283 719 L 288 716 L 288 704 L 281 695 L 285 685 Z"/>
  <path style="fill: rgb(52, 52, 52);" d="M 265 678 L 261 671 L 263 663 L 272 662 L 276 670 L 273 678 L 275 683 L 264 682 L 265 678 Z"/>
  <path style="transform-origin: -157.309px 33.5452px; fill: rgb(87, 217, 129);" d="M -148 21 C -158 22 -167 31 -167 48 C -163 31 -153 31 -148 21 Z"/>
  <path style="fill: rgb(87, 217, 129);" d="M -174 20 C -183 17 -195 22 -201 37 C -188 22 -178 27 -174 20 Z"/>
  <rect width="100" height="100" style="fill: rgb(97, 243, 143);" x="-220" y="-110"/>
  <path style="fill: rgb(76, 189, 113);" d="M -170 -94 C -179 -97 -191 -92 -197 -77 C -181 -85 -172 -82 -170 -94 Z"/>
  <path style="fill: rgb(87, 217, 129);" d="M -170 -94 C -179 -97 -191 -92 -197 -77 C -184 -92 -174 -87 -170 -94 Z"/>
  <path style="fill: rgb(76, 189, 113); transform-origin: -179.227px -81.7953px;" d="M -170 -94 C -180 -93 -189 -84 -189 -67 C -177 -81 -167 -82 -170 -94 Z"/>
  <path style="fill: rgb(87, 217, 129); transform-origin: -179.227px -81.7953px;" d="M -170 -94 C -180 -93 -189 -84 -189 -67 C -185 -84 -175 -84 -170 -94 Z"/>
  <path style="fill: rgb(76, 189, 113); transform-origin: -174.847px -78.6515px;" d="M -170 -94 C -179 -89 -184 -78 -179 -62 C -172 -79 -163 -83 -170 -94 Z"/>
  <path style="fill: rgb(87, 217, 129); transform-origin: -174.847px -78.6515px;" d="M -170 -94 C -179 -89 -184 -78 -179 -62 C -180 -79 -171 -82 -170 -94 Z"/>
  <path style="fill: rgb(76, 189, 113); transform-origin: -156.48px -86.5253px;" d="M -170 -94 C -161 -97 -149 -92 -143 -77 C -159 -85 -168 -82 -170 -94 Z"/>
  <path style="fill: rgb(87, 217, 129); transform-origin: -156.48px -86.5253px;" d="M -170 -94 C -161 -97 -149 -92 -143 -77 C -156 -92 -166 -87 -170 -94 Z"/>
  <path style="fill: rgb(76, 189, 113); transform-origin: -160.473px -81.6912px;" d="M -170 -94 C -160 -93 -151 -84 -151 -67 C -163 -81 -170 -82 -170 -94 Z"/>
  <path style="fill: rgb(87, 217, 129); transform-origin: -160.473px -81.6912px;" d="M -170 -94 C -160 -93 -151 -84 -151 -67 C -155 -84 -165 -84 -170 -94 Z"/>
  <path style="fill: rgb(87, 217, 129); transform-origin: -156.5px -30.9155px;" d="M -170 -23 C -161 -20 -149 -25 -143 -40 C -159 -32 -168 -35 -170 -23 Z"/>
  <path style="fill: rgb(76, 189, 113); transform-origin: -156.5px -30.9155px;" d="M -170 -23 C -161 -20 -149 -25 -143 -40 C -156 -25 -166 -30 -170 -23 Z"/>
  <path style="fill: rgb(87, 217, 129); transform-origin: -160.773px -35.0357px;" d="M -170 -23 C -160 -24 -151 -33 -151 -50 C -163 -36 -173 -35 -170 -23 Z"/>
  <path style="fill: rgb(76, 189, 113); transform-origin: -160.773px -35.0357px;" d="M -170 -23 C -160 -24 -151 -33 -151 -50 C -155 -33 -165 -33 -170 -23 Z"/>
  <path style="fill: rgb(87, 217, 129); transform-origin: -165.153px -39.1795px;" d="M -170 -23 C -161 -28 -156 -39 -161 -55 C -168 -38 -177 -34 -170 -23 Z"/>
  <path style="fill: rgb(76, 189, 113); transform-origin: -165.153px -39.1795px;" d="M -170 -23 C -161 -28 -156 -39 -161 -55 C -160 -38 -169 -35 -170 -23 Z"/>
  <path style="fill: rgb(87, 217, 129); transform-origin: -183.52px -30.3057px;" d="M -170 -23 C -179 -20 -191 -25 -197 -40 C -181 -32 -172 -35 -170 -23 Z"/>
  <path style="fill: rgb(76, 189, 113); transform-origin: -183.52px -30.3057px;" d="M -170 -23 C -179 -20 -191 -25 -197 -40 C -184 -25 -174 -30 -170 -23 Z"/>
  <path style="fill: rgb(87, 217, 129); transform-origin: -179.527px -35.1398px;" d="M -170 -23 C -180 -24 -189 -33 -189 -50 C -177 -36 -171 -37 -170 -23 Z"/>
  <path style="fill: rgb(76, 189, 113); transform-origin: -179.527px -35.1398px;" d="M -170 -23 C -180 -24 -189 -33 -189 -50 C -185 -33 -175 -33 -170 -23 Z"/>
  <rect width="100" height="100" style="fill: rgb(97, 243, 143);" x="-330" y="-110"/>
  <path style="fill: rgb(195, 145, 86);" d="M -279 -89 C -279 -89 -274 -59 -274 -59 L -284 -39 L -282 -27 L -289 -23 L -281 -25 L -282 -22 L -278 -26 L -269 -23 L -274 -26 L -278 -37 L -270 -60 L -277 -90 L -279 -89 Z"/>
  <path style="fill: rgb(76, 189, 113);" d="M -303 -76 C -298 -89 -288 -95 -279 -94 C -270 -95 -260 -89 -255 -76 C -259 -78 -263 -79 -266 -80 C -264 -76 -263 -72 -263 -66 C -268 -72 -272 -76 -276 -79 C -278 -74 -282 -69 -285 -61 C -287 -66 -287 -70 -287 -74 C -290 -72 -292 -69 -295 -66 C -295 -72 -294 -76 -292 -80 C -295 -79 -299 -78 -303 -76 Z"/>
  <path style="fill: rgb(87, 217, 129);" d="M -263 -66 C -266 -79 -272 -82 -277 -87 C -280 -79 -286 -75 -285 -61 C -288 -70 -287 -77 -285 -83 C -289 -79 -293 -75 -295 -66 C -295 -75 -292 -82 -288 -87 C -292 -85 -297 -82 -303 -76 C -298 -89 -288 -95 -279 -94 C -270 -95 -260 -89 -255 -76 C -261 -82 -266 -85 -270 -87 C -266 -82 -263 -75 -263 -66 Z"/>
  <path style="fill: rgb(76, 189, 113); transform-origin: -288.708px -39.5402px;" d="M -283 -38 C -285 -41 -289 -43 -294 -41 C -289 -38 -288 -36 -283 -38 Z"/>
  <path style="fill: rgb(76, 189, 113); transform-origin: -264.539px -61.6878px;" d="M -271 -60 C -269 -63 -265 -65 -259 -63 C -266 -59 -267 -57 -271 -60 Z"/>
  <path style="fill: rgb(76, 189, 113); transform-origin: -282.348px -52.6392px;" d="M -276 -52 C -278 -54 -281 -56 -287 -54 C -282 -51 -281 -49 -276 -52 Z"/>
  <path style="fill: rgb(87, 217, 129); transform-origin: -288.708px -39.5402px;" d="M -283 -38 C -285 -41 -289 -43 -294 -41 C -289 -41 -288 -38 -283 -38 Z"/>
  <path style="fill: rgb(87, 217, 129); transform-origin: -282.348px -52.6392px;" d="M -276 -52 C -278 -54 -281 -56 -287 -54 C -282 -54 -281 -52 -276 -52 Z"/>
  <path style="fill: rgb(87, 217, 129); transform-origin: -264.539px -61.6878px;" d="M -271 -60 C -269 -63 -265 -65 -259 -63 C -265 -63 -267 -59 -271 -60 Z"/>
  <path style="fill: rgb(76, 189, 113); transform-origin: -287.946px -35.1528px;" d="M -283 -38 C -286 -39 -290 -38 -293 -33 C -287 -34 -285 -33 -283 -38 Z"/>
  <path style="fill: rgb(87, 217, 129); transform-origin: -287.946px -35.1528px;" d="M -283 -38 C -286 -39 -290 -38 -293 -33 C -289 -36 -287 -35 -283 -38 Z"/>
  <rect width="100" height="200" style="fill: rgb(97, 243, 143);" x="-330"/>
  <ellipse style="fill: rgba(0, 0, 0, 0.133);" cy="191" rx="39" ry="6" cx="-280"/>
  <path style="fill: rgb(168, 125, 74);" d="M -280 68 C -280 68 -270 121 -270 121 L -290 161 L -286 188 L -292 192 L -284 190 L -284 194 L -278 190 L -266 193 L -271 188 L -278 166 L -262 119 L -276 65 L -280 68 Z"/>
  <path style="fill: rgb(76, 189, 113);" d="M -329 87 C -318 61 -298 49 -280 50 C -262 49 -242 61 -231 87 C -239 82 -248 81 -254 79 C -250 87 -248 94 -248 107 C -257 94 -266 87 -274 81 C -278 91 -286 100 -292 117 C -295 107 -295 96 -292 89 C -298 92 -306 100 -312 107 C -312 94 -310 87 -306 79 C -312 81 -321 82 -329 87 Z"/>
  <path style="fill: rgb(87, 217, 129);" d="M -248 107 C -254 81 -266 75 -276 64 C -282 81 -294 88 -292 117 C -298 99 -297 85 -292 73 C -300 81 -309 88 -312 107 C -312 88 -306 75 -298 64 C -306 68 -316 75 -329 87 C -318 61 -298 49 -280 50 C -262 49 -242 61 -231 87 C -244 75 -254 68 -262 64 C -254 75 -248 88 -248 107 Z"/>
  <path style="fill: rgb(76, 189, 113); transform-origin: -299.652px 160.419px;" d="M -288 164 C -292 158 -300 153 -310 158 C -300 164 -298 167 -288 164 Z"/>
  <path style="fill: rgb(76, 189, 113); transform-origin: -250.727px 115.586px;" d="M -263 119 C -260 113 -251 109 -239 113 C -254 121 -256 125 -263 119 Z"/>
  <path style="fill: rgb(76, 189, 113); transform-origin: -284.17px 134.733px;" d="M -274 136 C -277 132 -282 129 -292 132 C -284 137 -282 140 -274 136 Z"/>
  <path style="fill: rgb(87, 217, 129); transform-origin: -299.652px 160.419px;" d="M -288 164 C -292 158 -300 153 -310 158 C -300 158 -298 164 -288 164 Z"/>
  <path style="fill: rgb(87, 217, 129); transform-origin: -284.17px 134.733px;" d="M -274 136 C -277 132 -282 129 -292 132 C -284 132 -282 136 -274 136 Z"/>
  <path style="fill: rgb(87, 217, 129); transform-origin: -250.727px 115.586px;" d="M -263 119 C -260 113 -251 109 -239 113 C -251 113 -256 121 -263 119 Z"/>
  <path style="fill: rgb(76, 189, 113); transform-origin: -298.109px 169.299px;" d="M -288 164 C -294 161 -303 164 -309 173 C -297 172 -292 173 -288 164 Z"/>
  <path style="fill: rgb(87, 217, 129); transform-origin: -298.109px 169.299px;" d="M -288 164 C -294 161 -303 164 -309 173 C -300 167 -297 170 -288 164 Z"/>
  <rect width="100" height="100" style="fill: rgb(57, 59, 194);" y="109" x="-660"/>
  <path style="fill: rgb(255, 255, 255);" d="M -634 182 L -630 144 L -619 130 L -600 128 L -588 143 L -584 179 L -634 182 Z"/>
  <path style="fill: rgb(52, 52, 52);" d="M -622 147 L -613 149 L -614 154 L -622 147 Z"/>
  <path style="fill: rgb(52, 52, 52); transform-origin: -599.852px 150.736px;" d="M -604 156 L -594 152 L -596 148 L -604 156 Z" transform="matrix(-1, 0, 0, -1, 0.000007, 0.000074)"/>
  <path style="fill: rgb(52, 52, 52);" d="M -623 157 L -625 166 L -608 168 L -592 164 L -595 156 L -599 164 L -603 158 L -606 165 L -610 158 L -614 165 L -617 158 L -620 163 L -623 157 Z"/>
  <path style="fill: rgb(218, 218, 218);" d="M -634 182 L -630 144 L -619 130 L -625 133 L -634 144 L -638 177 L -634 182 Z"/>
  <path style="fill: rgba(255, 255, 255, 0.133);" d="M -634 182 L -620 187 L -616 194 L -601 196 L -588 186 L -584 179 L -634 182 Z"/>
  <rect width="100" height="100" style="fill: rgb(57, 59, 194);" y="219" x="-660"/>
  <path style="fill: rgb(255, 255, 255);" d="M -592 274 L -625 274 L -617 261 L -600 256 L -592 274 Z"/>
  <path style="fill: rgb(218, 218, 218);" d="M -628 270 L -625 274 L -617 261 L -600 256 L -620 260 L -628 270 Z"/>
  <path style="fill: rgba(255, 255, 255, 0.133);" d="M -592 274 L -625 274 L -619 279 L -600 283 L -592 274 Z"/>
  <rect width="100" height="100" style="fill: rgb(57, 59, 194);" y="329" x="-660"/>
  <path style="fill: rgb(255, 255, 255);" d="M -585 379 L -627 388 L -622 374 L -613 363 L -596 365 L -585 379 Z"/>
  <path style="fill: rgb(218, 218, 218);" d="M -636 382 L -627 388 L -622 374 L -613 363 L -631 373 L -636 382 Z"/>
  <path style="fill: rgba(255, 255, 255, 0.133);" d="M -585 379 L -627 388 L -636 382 L -628 397 L -593 402 L -585 379 Z"/>
  <rect width="100" height="100" style="fill: rgb(97, 243, 143);" x="-110" y="-110"/>
  <path d="M -51 -36 C -51 -32 -55 -28 -59 -27 C -64 -24 -70 -23 -76 -23 C -82 -24 -88 -26 -93 -30 C -97 -32 -98 -36 -98 -40 C -98 -44 -95 -48 -91 -49 C -86 -52 -80 -52 -74 -52 C -68 -51 -62 -50 -57 -47 C -53 -44 -51 -40 -51 -36 Z M -58 -46 C -62 -49 -68 -50 -74 -51 C -80 -52 -86 -51 -90 -48 C -94 -47 -97 -44 -97 -40 C -97 -36 -95 -33 -92 -30 C -88 -27 -82 -25 -76 -24 C -70 -24 -64 -25 -60 -28 C -56 -29 -52 -32 -52 -36 C -52 -40 -54 -43 -58 -46 Z" style="fill: none; transform-origin: -74.5px -37.5px;"/>
  <rect width="100" height="200" style="fill: rgb(97, 243, 143);" x="-440"/>
  <ellipse style="fill: rgba(0, 0, 0, 0.133);" cy="191" rx="39" ry="6" cx="-390"/>
  <path style="fill: rgb(168, 125, 74);" d="M -390 21 C -390 21 -402 85 -402 85 L -394 107 L -406 106 L -391 115 L -389 132 L -399 188 L -406 191 L -395 191 L -389 194 L -385 191 L -374 192 L -384 188 L -382 166 L -370 154 L -381 157 L -379 136 L -394 83 L -386 18 L -390 21 Z"/>
  <path style="fill: rgb(76, 189, 113); transform-origin: -390px 36.5288px;" d="M -341 40 C -352 14 -372 2 -390 3 C -408 2 -428 14 -439 40 C -431 35 -422 34 -416 32 C -420 40 -422 47 -422 60 C -413 47 -404 40 -396 34 C -392 44 -384 53 -378 70 C -375 60 -375 49 -378 42 C -372 45 -364 53 -358 60 C -358 47 -360 40 -364 32 C -358 34 -349 35 -341 40 Z"/>
  <path style="fill: rgb(87, 217, 129); transform-origin: -390px 36.5288px;" d="M -422 60 C -416 34 -404 28 -394 17 C -388 34 -376 41 -378 70 C -372 52 -373 38 -378 26 C -370 34 -361 41 -358 60 C -358 41 -364 28 -372 17 C -364 21 -354 28 -341 40 C -352 14 -372 2 -390 3 C -408 2 -428 14 -439 40 C -426 28 -416 21 -408 17 C -416 28 -422 41 -422 60 Z"/>
  <path style="fill: rgb(76, 189, 113); transform-origin: -411.631px 103.936px;" d="M -400 108 C -404 102 -412 97 -422 102 C -412 108 -410 111 -400 108 Z"/>
  <path style="fill: rgb(87, 217, 129); transform-origin: -411.631px 103.936px;" d="M -400 108 C -404 102 -412 97 -422 102 C -412 102 -410 108 -400 108 Z"/>
  <path style="fill: rgb(76, 189, 113); transform-origin: -362.667px 159.197px;" d="M -373 154 C -367 151 -358 154 -352 163 C -364 162 -369 163 -373 154 Z"/>
  <path style="fill: rgb(87, 217, 129); transform-origin: -362.667px 159.197px;" d="M -373 154 C -367 151 -358 154 -352 163 C -361 157 -364 160 -373 154 Z"/>
  <ellipse style="fill: rgba(0, 0, 0, 0.133);" cy="82" rx="18" ry="3" cx="-150"/>
  <path style="fill: rgb(76, 189, 113); transform-origin: -150.255px 67.168px;" d="M -136 58 C -138 69 -144 71 -148 76 C -151 69 -156 66 -154 52 C -158 61 -158 67 -155 72 C -159 69 -163 65 -164 56 C -164 65 -162 71 -158 76 C -162 74 -166 70 -172 65 C -167 77 -159 83 -151 83 C -143 83 -133 79 -128 67 C -134 72 -138 74 -142 76 C -138 71 -136 67 -136 58 Z"/>
  <ellipse style="fill: rgba(0, 0, 0, 0.133);" cy="-17" rx="18" ry="3" cx="-60"/>
  <path d="M -75 -22 C -74 -14 -44 -14 -44 -22 C -44 -29 -54 -36 -62 -35 C -70 -34 -75 -30 -75 -22 Z" style="fill: rgb(204, 204, 204); transform-origin: -59.536px -25.3197px;"/>
  <path d="M -75 -22 C -74 -14 -44 -14 -44 -22 C -45 -29 -57 -21 -65 -20 C -72 -19 -75 -30 -75 -22 Z" style="fill: rgb(191, 191, 191); transform-origin: -59.536px -21.2774px;"/>
  <rect width="100" height="100" style="fill: rgb(97, 243, 143);" x="-110" y="330"/>
  <ellipse style="fill: rgba(0, 0, 0, 0.133);" cy="421" rx="47" ry="7" cx="-60"/>
  <path d="M -107 374 C -105 412 -66 412 -66 374 C -66 343 -76 341 -92 340 C -108 339 -107 353 -107 374 Z" style="fill: rgb(176, 176, 176); transform-origin: -85.2571px 327.256px;"/>
  <path d="M -107 376 C -105 415 -66 415 -66 376 C -77 371 -93 397 -107 376 Z" style="fill: rgb(166, 166, 166); transform-origin: -85.2571px 379.927px;"/>
  <path d="M -77 373 C -74 408 -14 408 -14 373 C -14 345 -21 333 -35 334 C -55 337 -77 355 -77 373 Z" style="fill: rgb(191, 191, 191); transform-origin: -44.8247px 331.948px;"/>
  <path d="M -77 375 C -74 409 -14 409 -14 375 C -31 370 -34 388 -77 375 Z" style="fill: rgb(176, 176, 176); transform-origin: -44.8247px 379.123px;"/>
  <path d="M -108 402 C -106 432 -52 432 -52 402 C -52 378 -79 358 -87 358 C -99 358 -108 387 -108 402 Z" style="fill: rgb(204, 204, 204); transform-origin: -80.1251px 367.067px;"/>
  <path d="M -108 402 C -106 432 -52 432 -52 402 C -95 423 -104 387 -108 402 Z" style="fill: rgb(191, 191, 191); transform-origin: -80.1251px 406.38px;"/>
  <path d="M -73 403 C -71 431 -13 431 -13 403 C -13 382 -16 361 -31 365 C -38 367 -53 346 -59 356 C -67 373 -73 389 -73 403 Z" style="fill: rgb(216, 216, 216); transform-origin: -43.147px 370.483px;"/>
  <path d="M -73 405 C -71 432 -13 432 -13 405 C -47 422 -47 394 -73 405 Z" style="fill: rgb(204, 204, 204); transform-origin: -43.147px 408.105px;"/>
  <rect width="100" height="100" style="fill: rgb(97, 243, 143);" x="-110" y="-220"/>
  <ellipse style="fill: rgba(0, 0, 0, 0.133);" cy="-135" rx="42" ry="7" cx="-61"/>
  <path d="M -96 -147 C -93 -128 -24 -128 -24 -147 C -24 -163 -29 -198 -47 -196 C -55 -195 -71 -209 -78 -201 C -87 -190 -96 -157 -96 -147 Z" style="fill: rgb(216, 216, 216); transform-origin: -59.545px -170.104px;"/>
  <path d="M -96 -146 C -93 -127 -24 -127 -24 -146 C -26 -162 -36 -144 -55 -142 C -71 -140 -96 -164 -96 -146 Z" style="fill: rgb(165, 165, 165); transform-origin: -59.545px -143.78px;"/>
  <rect width="100" height="100" style="fill: rgb(97, 243, 143);" x="-330" y="-220"/>
  <path style="fill: rgb(76, 189, 113);" d="M -270 -159 C -279 -162 -291 -157 -297 -142 C -281 -150 -272 -147 -270 -159 Z"/>
  <path style="fill: rgb(76, 189, 113); transform-origin: -279.227px -146.795px;" d="M -270 -159 C -280 -158 -289 -149 -289 -132 C -277 -146 -267 -147 -270 -159 Z"/>
  <path style="fill: rgb(76, 189, 113); transform-origin: -274.847px -143.651px;" d="M -270 -159 C -279 -154 -284 -143 -279 -127 C -272 -144 -263 -148 -270 -159 Z"/>
  <path style="fill: rgb(76, 189, 113); transform-origin: -256.48px -151.525px;" d="M -270 -159 C -261 -162 -249 -157 -243 -142 C -259 -150 -268 -147 -270 -159 Z"/>
  <path style="fill: rgb(76, 189, 113); transform-origin: -260.473px -146.691px;" d="M -270 -159 C -260 -158 -251 -149 -251 -132 C -263 -146 -270 -147 -270 -159 Z"/>
  <path style="fill: rgb(87, 217, 129);" d="M -257 -132 C -261 -149 -271 -149 -276 -159 C -267 -162 -255 -157 -249 -142 C -255 -148 -260 -151 -264 -153 C -260 -148 -257 -141 -257 -132 Z"/>
  <path style="fill: rgb(87, 217, 129);" d="M -297 -142 C -291 -157 -279 -162 -270 -159 C -271 -147 -280 -144 -279 -127 C -282 -136 -281 -143 -279 -149 C -283 -145 -287 -141 -289 -132 C -289 -141 -286 -148 -282 -153 C -286 -151 -291 -148 -297 -142 Z"/>
  <path style="fill: rgb(76, 189, 113);" d="M -282 -197 C -280 -193 -278 -188 -278 -182 C -281 -185 -285 -192 -287 -194 C -287 -190 -286 -182 -288 -177 C -290 -181 -290 -189 -293 -194 C -296 -190 -297 -181 -299 -177 C -301 -182 -300 -190 -300 -194 C -302 -192 -306 -185 -309 -182 C -309 -188 -305 -195 -303 -199 C -306 -198 -313 -194 -317 -192 C -312 -205 -302 -211 -293 -210 C -285 -211 -275 -205 -270 -192 C -274 -194 -279 -196 -282 -197 Z"/>
  <path style="fill: rgb(87, 217, 129);" d="M -317 -192 C -312 -205 -302 -211 -293 -210 C -285 -211 -275 -205 -270 -192 C -276 -198 -281 -201 -285 -203 C -281 -198 -278 -191 -278 -182 C -280 -191 -284 -195 -288 -199 C -286 -193 -285 -186 -288 -177 C -287 -188 -291 -192 -293 -197 C -296 -192 -300 -188 -299 -177 C -302 -186 -301 -193 -299 -199 C -303 -195 -307 -191 -309 -182 C -309 -191 -306 -198 -302 -203 C -306 -201 -311 -198 -317 -192 Z"/>
  <rect width="100" height="100" style="fill: rgb(203, 203, 203);" x="220"/>
  <path style="fill: rgb(52, 52, 52);" d="M 260 28 L 259 20 L 263 6 L 271 3 L 279 5 L 283 20 L 282 29 L 297 42 L 303 69 L 296 93 L 289 97 L 291 92 L 286 92 L 290 88 L 292 73 L 287 59 L 284 70 L 287 82 L 282 92 L 282 97 L 275 98 L 275 95 L 271 95 L 275 90 L 278 83 L 270 77 L 264 82 L 265 90 L 267 96 L 264 95 L 263 98 L 255 96 L 257 92 L 252 82 L 256 70 L 254 57 L 248 71 L 251 87 L 251 93 L 248 89 L 246 94 L 241 91 L 241 85 L 237 65 L 248 41 L 260 28 Z"/>
  <rect width="100" height="100" style="fill: rgb(203, 203, 203);" x="330"/>
  <path style="fill: rgb(52, 52, 52);" d="M 369 29 L 368 21 L 372 7 L 380 4 L 388 6 L 392 21 L 391 30 L 405 41 L 415 62 L 413 88 L 406 92 L 408 87 L 403 87 L 407 83 L 406 67 L 397 57 L 394 70 L 399 79 L 395 90 L 395 95 L 388 96 L 388 93 L 384 93 L 388 86 L 380 77 L 376 90 L 378 95 L 375 95 L 374 98 L 367 97 L 368 92 L 366 82 L 366 70 L 364 57 L 360 71 L 361 89 L 363 94 L 360 93 L 359 96 L 354 96 L 351 88 L 349 65 L 357 41 L 369 29 Z"/>
  <rect width="100" height="100" style="fill: rgb(203, 203, 203);" x="440"/>
  <path style="fill: rgb(52, 52, 52);" d="M 481 28 L 480 20 L 484 6 L 492 3 L 500 5 L 504 20 L 503 29 L 517 41 L 525 62 L 521 83 L 514 87 L 516 82 L 511 82 L 515 78 L 516 67 L 507 59 L 504 70 L 508 82 L 506 93 L 506 98 L 499 99 L 499 96 L 495 96 L 499 91 L 497 84 L 490 77 L 488 82 L 490 89 L 492 94 L 489 94 L 488 97 L 481 96 L 482 91 L 476 82 L 476 70 L 474 57 L 468 66 L 469 81 L 470 85 L 468 85 L 467 90 L 461 86 L 459 80 L 457 61 L 468 40 L 481 28 Z"/>
  <path style="fill: rgb(255, 255, 255);" d="M 266 20 L 265 23 L 270 21 L 266 20 Z"/>
  <path style="fill: rgb(255, 255, 255);" d="M 276 20 L 272 21 L 277 23 L 276 20 Z"/>
  <path style="fill: rgb(255, 255, 255);" d="M 266 27 L 270 26 L 273 27 L 276 29 L 274 26 L 268 25 L 266 27 Z"/>
  <path style="fill: rgb(255, 255, 255);" d="M 375 21 L 374 24 L 379 22 L 375 21 Z"/>
  <path style="fill: rgb(255, 255, 255);" d="M 385 21 L 381 22 L 386 24 L 385 21 Z"/>
  <path style="fill: rgb(255, 255, 255);" d="M 375 28 L 379 27 L 382 28 L 385 30 L 383 27 L 377 26 L 375 28 Z"/>
  <path style="fill: rgb(255, 255, 255);" d="M 486 20 L 485 23 L 490 21 L 486 20 Z"/>
  <path style="fill: rgb(255, 255, 255);" d="M 496 20 L 492 21 L 497 23 L 496 20 Z"/>
  <path style="fill: rgb(255, 255, 255);" d="M 486 27 L 490 26 L 493 27 L 496 29 L 494 26 L 488 25 L 486 27 Z"/>
  <rect width="100" height="100" style="fill: rgb(97, 243, 143);" y="-440" x="-110"/>
  <rect width="100" height="100" style="fill: rgb(203, 203, 203);" x="550"/>
  <path style="fill: rgb(52, 52, 52);" d="M 590 28 L 589 20 L 593 6 L 601 3 L 609 5 L 613 20 L 612 29 L 625 34 L 637 43 L 647 60 L 644 67 L 638 68 L 640 64 L 637 63 L 640 59 L 628 51 L 617 50 L 614 70 L 617 82 L 620 92 L 624 97 L 614 98 L 614 95 L 610 95 L 613 90 L 600 77 L 589 90 L 591 96 L 588 95 L 587 98 L 579 96 L 581 92 L 582 82 L 586 70 L 583 50 L 571 50 L 562 55 L 565 60 L 560 59 L 561 64 L 557 62 L 553 55 L 565 40 L 577 33 L 590 28 Z"/>
  <path style="fill: rgb(255, 255, 255);" d="M 594 20 L 595 24 L 600 22 L 594 20 Z"/>
  <path style="fill: rgb(255, 255, 255);" d="M 608 20 L 602 22 L 607 24 L 608 20 Z"/>
  <path style="fill: rgb(255, 255, 255);" d="M 596 28 L 597 31 L 598 29 L 599 32 L 602 33 L 604 30 L 605 32 L 606 30 L 604 27 L 598 26 L 596 28 Z"/>
  <rect width="100" height="100" style="fill: rgb(203, 203, 203);" x="550" y="-110"/>
  <path style="fill: rgb(52, 52, 52);" d="M 590 -82 L 589 -90 L 593 -104 L 601 -107 L 609 -105 L 613 -90 L 612 -81 L 625 -75 L 639 -59 L 642 -42 L 639 -35 L 633 -34 L 635 -38 L 632 -39 L 635 -43 L 628 -55 L 617 -57 L 614 -40 L 617 -28 L 620 -18 L 624 -13 L 614 -12 L 614 -15 L 610 -15 L 613 -20 L 600 -33 L 589 -20 L 591 -14 L 588 -15 L 587 -12 L 579 -14 L 581 -18 L 582 -28 L 586 -40 L 584 -59 L 575 -54 L 572 -41 L 575 -36 L 570 -37 L 571 -32 L 567 -34 L 563 -41 L 565 -60 L 578 -75 L 590 -82 Z"/>
  <path style="fill: rgb(255, 255, 255);" d="M 594 -90 L 595 -86 L 600 -88 L 594 -90 Z"/>
  <path style="fill: rgb(255, 255, 255);" d="M 608 -90 L 602 -88 L 607 -86 L 608 -90 Z"/>
  <path style="fill: rgb(255, 255, 255);" d="M 596 -82 L 597 -79 L 598 -81 L 599 -78 L 602 -77 L 604 -80 L 605 -78 L 606 -80 L 604 -83 L 598 -84 L 596 -82 Z"/>
  <rect width="100" height="100" style="fill: rgb(203, 203, 203);" x="660" y="-110"/>
  <path style="fill: rgb(255, 255, 255);" d="M 683 -84 C 694 -82 714 -88 722 -97 C 721 -84 738 -69 749 -64 C 741 -58 730 -43 730 -35 C 722 -42 699 -46 688 -43 C 691 -56 690 -74 683 -84 Z"/>
  <path style="fill: rgb(255, 255, 255);" d="M 695 -28 L 700 -36 L 699 -27 L 707 -23 L 698 -23 L 697 -15 L 695 -23 L 686 -21 L 692 -25 L 687 -31 L 695 -28 Z"/>
  <rect width="100" height="100" style="fill: rgb(203, 203, 203);" x="660"/>
  <rect width="100" height="100" style="fill: rgb(203, 203, 203);" x="550" y="-220"/>
  <path style="fill: rgb(52, 52, 52);" d="M 590 -192 L 589 -200 L 593 -214 L 601 -217 L 609 -215 L 613 -200 L 612 -191 L 624 -182 L 633 -168 L 633 -145 L 630 -138 L 624 -137 L 626 -141 L 623 -142 L 626 -146 L 624 -160 L 617 -166 L 614 -150 L 617 -138 L 620 -128 L 624 -123 L 614 -122 L 614 -125 L 610 -125 L 613 -130 L 600 -143 L 589 -130 L 591 -124 L 588 -125 L 587 -122 L 579 -124 L 581 -128 L 582 -138 L 586 -150 L 583 -170 L 566 -184 L 558 -186 L 552 -195 L 553 -202 L 562 -197 L 565 -203 L 566 -194 L 580 -189 L 590 -192 Z"/>
  <path style="fill: rgb(255, 255, 255);" d="M 594 -200 L 595 -196 L 600 -198 L 594 -200 Z"/>
  <path style="fill: rgb(255, 255, 255);" d="M 608 -200 L 602 -198 L 607 -196 L 608 -200 Z"/>
  <path style="fill: rgb(255, 255, 255);" d="M 596 -192 L 597 -189 L 598 -191 L 599 -188 L 602 -187 L 604 -190 L 605 -188 L 606 -190 L 604 -193 L 598 -194 L 596 -192 Z"/>
  <path style="fill: rgb(52, 52, 52);" d="M 698 28 L 697 20 L 701 6 L 709 3 L 717 5 L 721 20 L 720 29 L 727 37 L 730 54 L 726 69 L 728 82 L 726 93 L 726 98 L 719 99 L 719 96 L 715 96 L 719 91 L 717 84 L 710 77 L 708 82 L 710 89 L 712 94 L 709 94 L 708 97 L 701 96 L 702 91 L 696 82 L 696 70 L 694 57 L 692 67 L 693 82 L 694 86 L 692 86 L 691 91 L 685 87 L 683 81 L 681 62 L 686 49 L 674 48 L 664 46 L 664 39 L 672 34 L 677 37 L 690 36 L 698 28 Z"/>
  <path style="fill: rgb(255, 255, 255);" d="M 700 19 L 701 23 L 706 21 L 700 19 Z"/>
  <path style="fill: rgb(255, 255, 255);" d="M 714 19 L 708 21 L 713 23 L 714 19 Z"/>
  <path style="fill: rgb(255, 255, 255);" d="M 702 27 L 706 27 L 712 29 L 710 26 L 704 25 L 702 27 Z"/>
  <ellipse style="fill: rgba(0, 0, 0, 0.133);" cy="-349" rx="46" ry="7" cx="-59"/>
  <path style="fill: rgb(216, 216, 216);" d="M -102 -349 L -97 -427 L -39 -412 L -18 -425 L -16 -349 C -33 -345 -81 -342 -102 -349 Z"/>
  <path d="M -97 -360 C -96 -352 -71 -349 -70 -357 C -79 -356 -88 -355 -97 -360 Z" style="fill: rgb(204, 204, 204); transform-origin: -83.3063px -367.611px;"/>
  <path d="M -67 -357 C -65 -349 -43 -351 -43 -359 C -51 -356 -59 -353 -67 -357 Z" style="fill: rgb(204, 204, 204); transform-origin: -56.3585px -366.199px;"/>
  <path d="M -19 -361 C -18 -353 -37 -350 -39 -357 C -32 -356 -24 -355 -19 -361 Z" style="fill: rgb(204, 204, 204); transform-origin: -30.3472px -367.588px;"/>
  <path d="M -99 -375 C -98 -367 -73 -364 -72 -372 C -81 -371 -90 -370 -99 -375 Z" style="fill: rgb(204, 204, 204); transform-origin: -85.3063px -382.611px;"/>
  <path d="M -69 -372 C -67 -364 -45 -366 -45 -374 C -53 -371 -61 -368 -69 -372 Z" style="fill: rgb(204, 204, 204); transform-origin: -58.3585px -381.199px;"/>
  <path d="M -21 -376 C -20 -368 -39 -365 -41 -372 C -34 -371 -26 -370 -21 -376 Z" style="fill: rgb(204, 204, 204); transform-origin: -32.3472px -382.588px;"/>
  <path d="M -96 -390 C -95 -382 -70 -379 -69 -387 C -78 -386 -87 -385 -96 -390 Z" style="fill: rgb(204, 204, 204); transform-origin: -82.3063px -397.611px;"/>
  <path d="M -66 -387 C -64 -379 -42 -381 -42 -389 C -50 -386 -58 -383 -66 -387 Z" style="fill: rgb(204, 204, 204); transform-origin: -55.3585px -396.199px;"/>
  <path d="M -18 -391 C -17 -383 -36 -380 -38 -387 C -31 -386 -23 -385 -18 -391 Z" style="fill: rgb(204, 204, 204); transform-origin: -29.3472px -397.588px;"/>
  <path d="M -95 -405 C -94 -397 -71 -394 -70 -402 C -79 -401 -86 -400 -95 -405 Z" style="fill: rgb(204, 204, 204); transform-origin: -83.3063px -412.611px;"/>
  <path d="M -67 -402 C -65 -394 -43 -394 -43 -402 C -51 -399 -59 -398 -67 -402 Z" style="fill: rgb(204, 204, 204); transform-origin: -56.3585px -411.199px;"/>
  <path d="M -19 -406 C -18 -398 -37 -394 -39 -401 C -32 -400 -24 -400 -19 -406 Z" style="fill: rgb(204, 204, 204); transform-origin: -30.3472px -412.588px;"/>
  <path d="M -93 -418 C -92 -410 -69 -407 -68 -415 C -77 -414 -84 -413 -93 -418 Z" style="fill: rgb(204, 204, 204); transform-origin: -81.3063px -425.611px;"/>
  <rect width="100" height="100" style="fill: rgb(97, 243, 143);" x="-110" y="-330"/>
  <ellipse style="fill: rgba(0, 0, 0, 0.133);" cy="-238" rx="37" ry="7" cx="-48"/>
  <ellipse style="fill: rgba(0, 0, 0, 0.133);" cy="-263" rx="37" ry="7" cx="-72"/>
  <ellipse style="fill: rgba(0, 0, 0, 0.133);" cy="-287" rx="32" ry="8" cx="-48"/>
  <ellipse style="fill: rgba(0, 0, 0, 0.133);" rx="21" ry="5" cx="-86" cy="-300"/>
  <path d="M -107 -310 C -105 -295 -66 -295 -66 -310 C -66 -322 -88 -329 -92 -323 C -98 -315 -107 -318 -107 -310 Z" style="fill: rgb(176, 176, 176); transform-origin: -85.2571px -328.141px;"/>
  <path d="M -107 -309 C -105 -294 -66 -294 -66 -309 C -77 -311 -93 -301 -107 -309 Z" style="fill: rgb(166, 166, 166); transform-origin: -85.2571px -307.558px;"/>
  <path d="M -80 -302 C -77 -279 -17 -279 -17 -302 C -17 -321 -24 -329 -38 -328 C -58 -326 -80 -314 -80 -302 Z" style="fill: rgb(191, 191, 191); transform-origin: -47.8247px -329.393px;"/>
  <path d="M -80 -301 C -77 -278 -17 -278 -17 -301 C -34 -304 -37 -292 -80 -301 Z" style="fill: rgb(176, 176, 176); transform-origin: -47.8247px -298.022px;"/>
  <path d="M -108 -275 C -105 -256 -36 -256 -36 -275 C -36 -291 -70 -304 -81 -304 C -96 -304 -108 -285 -108 -275 Z" style="fill: rgb(204, 204, 204); transform-origin: -71.9414px -298.092px;"/>
  <path d="M -108 -274 C -105 -255 -36 -255 -36 -274 C -91 -261 -103 -284 -108 -274 Z" style="fill: rgb(191, 191, 191); transform-origin: -71.9414px -271.769px;"/>
  <path d="M -84 -250 C -81 -231 -12 -231 -12 -250 C -12 -266 -16 -279 -34 -277 C -42 -276 -60 -291 -67 -283 C -76 -272 -84 -260 -84 -250 Z" style="fill: rgb(216, 216, 216); transform-origin: -47.9414px -273.092px;"/>
  <path d="M -84 -249 C -81 -230 -12 -230 -12 -249 C -53 -237 -52 -257 -84 -249 Z" style="fill: rgb(204, 204, 204); transform-origin: -47.9414px -246.769px;"/>
  <rect width="100" height="100" style="fill: rgb(97, 243, 143);" x="-110" y="440"/>
  <ellipse style="fill: rgba(0, 0, 0, 0.133);" cy="531" rx="47" ry="7" cx="-60"/>
  <path d="M -104 484 C -101 522 -52 522 -52 484 C -52 453 -64 451 -85 450 C -106 449 -104 463 -104 484 Z" style="fill: rgb(176, 176, 176); transform-origin: -76.5038px 437.256px;"/>
  <path d="M -77 483 C -74 518 -14 518 -14 483 C -14 455 -21 443 -35 444 C -55 447 -77 465 -77 483 Z" style="fill: rgb(191, 191, 191); transform-origin: -44.8247px 441.948px;"/>
  <path d="M -106 513 C -103 543 -22 543 -22 513 C -22 488 -62 468 -75 468 C -92 468 -106 498 -106 513 Z" style="fill: rgb(204, 204, 204); transform-origin: -63.949px 477.188px;"/>
  <path d="M -106 513 C -103 543 -22 543 -22 513 C -62 541 -76 489 -106 513 Z" style="fill: rgb(191, 191, 191); transform-origin: -64.1075px 517.026px;"/>
  <path d="M -73 513 C -71 541 -13 541 -13 513 C -13 492 -16 471 -31 475 C -38 477 -53 456 -59 466 C -67 483 -73 499 -73 513 Z" style="fill: rgb(216, 216, 216); transform-origin: -43.147px 480.483px;"/>
  <path d="M -73 515 C -71 542 -13 542 -13 515 C -47 532 -47 504 -73 515 Z" style="fill: rgb(204, 204, 204);"/>
  <rect width="100" height="100" style="fill: rgb(97, 243, 143);" y="550" x="-110"/>
  <ellipse style="fill: rgba(0, 0, 0, 0.133);" cy="641" rx="47" ry="7" cx="-60"/>
  <path d="M -94 629 C -90 648 -14 648 -14 629 C -14 613 -18 600 -38 602 C -47 603 -67 588 -75 596 C -85 607 -94 619 -94 629 Z" style="fill: rgb(176, 176, 176); transform-origin: -53.8471px 605.908px;"/>
  <path d="M -107 605 C -104 624 -31 624 -31 605 C -31 589 -67 576 -79 576 C -94 576 -107 595 -107 605 Z" style="fill: rgb(191, 191, 191); transform-origin: -69.1091px 581.908px;"/>
  <path d="M -104 572 C -102 586 -66 586 -66 572 C -66 561 -86 554 -90 560 C -96 567 -104 565 -104 572 Z" style="fill: rgb(216, 216, 216); transform-origin: -83.762px 555.063px;"/>
  <path d="M -104 573 C -102 587 -66 587 -66 573 C -76 571 -91 580 -104 573 Z" style="fill: rgb(204, 204, 204); transform-origin: -83.762px 574.222px;"/>
  <path d="M -78 578 C -75 601 -15 601 -15 578 C -15 559 -22 551 -36 552 C -56 554 -78 566 -78 578 Z" style="fill: rgb(204, 204, 204); transform-origin: -45.8247px 550.607px;"/>
  <path d="M -78 579 C -75 602 -15 602 -15 579 C -32 576 -35 588 -78 579 Z" style="fill: rgb(191, 191, 191); transform-origin: -45.8247px 581.978px;"/>
  <path d="M -107 606 C -104 625 -31 625 -31 606 C -89 619 -102 596 -107 606 Z" style="fill: rgb(176, 176, 176); transform-origin: -69.1091px 608.231px;"/>
  <path d="M -94 630 C -90 649 -14 649 -14 630 C -59 642 -58 622 -94 630 Z" style="fill: rgb(166, 166, 166); transform-origin: -53.8471px 632.231px;"/>
  <rect width="100" height="100" style="fill: rgb(97, 243, 143);" x="-110" y="110"/>
  <ellipse style="fill: rgba(0, 0, 0, 0.133);" cy="200" rx="47" ry="7" cx="-60"/>
  <path d="M -94 188 C -90 207 -19 207 -19 188 C -19 172 -23 159 -41 161 C -50 162 -69 147 -76 155 C -86 166 -94 178 -94 188 Z" style="fill: rgb(204, 204, 204); transform-origin: -56.315px 164.908px;"/>
  <path d="M -105 164 C -103 183 -15 183 -15 164 C -15 148 -58 135 -72 135 C -90 135 -105 154 -105 164 Z" style="fill: rgb(204, 204, 204); transform-origin: -60.3304px 140.908px;"/>
  <path d="M -98 138 C -94 160 -15 160 -15 138 C -15 121 -24 114 -43 115 C -69 116 -98 127 -98 138 Z" style="fill: rgb(204, 204, 204); transform-origin: -55.743px 112.874px;"/>
  <path d="M -98 139 C -94 160 -15 160 -15 139 C -38 136 -41 148 -98 139 Z" style="fill: rgb(191, 191, 191); transform-origin: -55.743px 142.006px;"/>
  <path d="M -105 165 C -103 184 -15 184 -15 165 C -85 178 -100 155 -105 165 Z" style="fill: rgb(191, 191, 191); transform-origin: -60.3304px 167.231px;"/>
  <path d="M -94 189 C -90 208 -19 208 -19 189 C -61 201 -60 181 -94 189 Z" style="fill: rgb(191, 191, 191); transform-origin: -56.315px 191.231px;"/>
  <rect width="100" height="100" style="fill: rgb(97, 243, 143);" x="-110" y="220"/>
  <ellipse style="fill: rgba(0, 0, 0, 0.133);" cy="310" rx="47" ry="7" cx="-60"/>
  <path d="M -94 298 C -90 317 -14 317 -14 298 C -14 282 -18 269 -38 271 C -47 272 -67 257 -75 265 C -85 276 -94 288 -94 298 Z" style="fill: rgb(204, 204, 204); transform-origin: -53.847px 274.908px;"/>
  <path d="M -107 274 C -104 293 -31 293 -31 274 C -31 258 -67 245 -79 245 C -94 245 -107 264 -107 274 Z" style="fill: rgb(204, 204, 204); transform-origin: -69.109px 250.908px;"/>
  <path d="M -98 248 C -94 270 -15 270 -15 248 C -15 231 -24 224 -43 225 C -69 226 -98 237 -98 248 Z" style="fill: rgb(204, 204, 204); transform-origin: -55.743px 222.874px;"/>
  <path d="M -98 249 C -94 270 -15 270 -15 249 C -38 246 -41 258 -98 249 Z" style="fill: rgb(191, 191, 191); transform-origin: -55.743px 252.006px;"/>
  <path d="M -107 275 C -104 294 -31 294 -31 275 C -89 288 -102 265 -107 275 Z" style="fill: rgb(191, 191, 191); transform-origin: -69.109px 277.231px;"/>
  <path d="M -94 299 C -90 318 -14 318 -14 299 C -59 311 -58 291 -94 299 Z" style="fill: rgb(191, 191, 191); transform-origin: -53.847px 301.231px;"/>
  <rect width="100" height="100" style="fill: rgb(97, 243, 143);" x="-110"/>
  <ellipse style="fill: rgba(0, 0, 0, 0.133);" cy="90" rx="47" ry="7" cx="-60"/>
  <path d="M -94 78 C -90 97 -19 97 -19 78 C -19 62 -23 49 -41 51 C -50 52 -69 37 -76 45 C -86 56 -94 68 -94 78 Z" style="fill: rgb(204, 204, 204); transform-origin: -56.315px 54.908px;"/>
  <path d="M -105 54 C -103 73 -15 73 -15 54 C -15 38 -58 25 -72 25 C -90 25 -105 44 -105 54 Z" style="fill: rgb(204, 204, 204); transform-origin: -60.3304px 30.908px;"/>
  <path d="M -98 28 C -94 50 -15 50 -15 28 C -15 11 -24 4 -43 5 C -69 6 -98 17 -98 28 Z" style="fill: rgb(204, 204, 204); transform-origin: -55.743px 2.87441px;"/>
  <path d="M -98 29 C -94 50 -15 50 -15 29 C -38 26 -41 38 -98 29 Z" style="fill: rgb(174, 174, 174); transform-origin: -55.743px 32.0058px;"/>
  <path d="M -105 55 C -103 74 -15 74 -15 55 C -85 68 -100 45 -105 55 Z" style="fill: rgb(174, 174, 174); transform-origin: -60.3304px 57.231px;"/>
  <path d="M -94 79 C -90 98 -19 98 -19 79 C -61 91 -60 71 -94 79 Z" style="fill: rgb(174, 174, 174); transform-origin: -56.315px 81.231px;"/>
  <rect width="100" height="100" style="fill: rgb(243, 190, 83);" x="-550"/>
  <rect width="100" height="100" style="fill: rgb(97, 243, 143);" x="-220" y="110"/>
  <ellipse style="fill: rgb(87, 217, 129);" cx="-187" cy="143" rx="12" ry="4"/>
  <ellipse style="fill: rgb(87, 217, 129);" cx="-153" cy="156" rx="9" ry="3"/>
  <ellipse style="fill: rgb(87, 217, 129);" cx="-181" cy="170" rx="12" ry="4"/>
  <ellipse style="fill: rgb(87, 217, 129);" cx="-164" cy="186" rx="9" ry="3"/>
  <ellipse style="fill: rgb(87, 217, 129);" cx="-157" cy="130" rx="12" ry="4"/>
  <rect width="100" height="100" style="fill: rgb(97, 243, 143);" x="-220" y="220"/>
  <ellipse style="fill: rgb(87, 217, 129);" cx="-198" cy="262" rx="12" ry="4"/>
  <ellipse style="fill: rgb(87, 217, 129);" cx="-145" cy="256" rx="9" ry="3"/>
  <ellipse style="fill: rgb(87, 217, 129);" cx="-164" cy="279" rx="12" ry="4"/>
  <ellipse style="fill: rgb(87, 217, 129);" cx="-187" cy="301" rx="9" ry="3"/>
  <ellipse style="fill: rgb(87, 217, 129);" cx="-166" cy="240" rx="12" ry="4"/>
  <rect width="100" height="100" style="fill: rgb(143, 107, 63);" y="330" x="-220"/>
  <ellipse style="fill: rgb(107, 80, 47);" cx="-188" cy="372" rx="12" ry="4"/>
  <path style="fill: rgb(52, 52, 52);" d="M 38 28 L 37 20 L 41 6 L 49 3 L 57 5 L 61 20 L 60 29 L 67 37 L 70 54 L 66 69 L 68 82 L 66 93 L 66 98 L 59 99 L 59 96 L 55 96 L 59 91 L 57 84 L 50 77 L 48 82 L 50 89 L 52 94 L 49 94 L 48 97 L 41 96 L 42 91 L 36 82 L 36 70 L 34 57 L 32 67 L 33 82 L 34 86 L 32 86 L 31 91 L 25 87 L 23 81 L 21 62 L 26 49 L 14 48 L 4 46 L 4 39 L 12 34 L 17 37 L 30 36 L 38 28 Z"/>
  <path style="fill: rgb(255, 255, 255);" d="M 40 19 L 41 23 L 46 21 L 40 19 Z"/>
  <path style="fill: rgb(255, 255, 255);" d="M 54 19 L 48 21 L 53 23 L 54 19 Z"/>
  <path style="fill: rgb(255, 255, 255);" d="M 42 27 L 46 27 L 52 29 L 50 26 L 44 25 L 42 27 Z"/>
</svg>