<?xml version="1.0" encoding="utf-8"?>
<svg viewBox="0 0 100 100" xmlns="http://www.w3.org/2000/svg">
  <defs/>
  <rect width="100" height="100" style="fill: rgb(97, 243, 143);" x="-110"/>
  <rect width="100" height="100" style="fill: rgb(135, 225, 211);" y="219" x="-110"/>
  <rect width="100" height="100" style="fill: rgb(134, 224, 166);" y="109" x="-110"/>
  <rect width="100" height="100" style="fill: rgb(200, 142, 202);" y="328" x="-110"/>
  <rect width="100" height="100" style="fill: rgb(255, 140, 0);" y="547" x="-110"/>
  <rect width="100" height="100" style="fill: rgb(255, 110, 44);" y="437" x="-110"/>
  <rect width="100" height="100" style="fill: rgb(97, 243, 143);" x="-330"/>
  <path style="fill: rgb(76, 189, 113);" d="M -297 74 L -296 59 L -295 74 L -297 74 Z"/>
  <path style="fill: rgb(76, 189, 113);" d="M -300 75 L -301 57 L -297 74 L -300 75 Z"/>
  <rect width="100" height="100" style="fill: rgb(203, 203, 203);" x="220" y="330"/>
  <path style="fill: rgb(255, 255, 255);" d="M 267 356 L 268 353 L 267 352 L 266 349 L 265 348 L 265 346 L 266 345 L 267 341 L 270 340 L 274 341 L 275 345 L 276 346 L 276 348 L 275 349 L 274 352 L 273 353 L 274 356 L 271 359 L 267 356 Z"/>
  <path style="fill: rgb(255, 255, 255);" d="M 281 360 L 290 371 L 291 386 L 296 391 L 291 389 L 289 392 L 289 386 L 287 373 L 280 367 L 281 360 Z"/>
  <path style="fill: rgb(52, 52, 52);" d="M 279 388 C 279 388 283 404 283 404 L 281 409 L 281 420 L 286 425 L 276 423 L 277 419 L 276 405 L 271 391 L 279 388 Z"/>
  <path style="fill: rgb(52, 52, 52); transform-origin: 263.5px 406px;" d="M 264 425 C 264 425 268 408 268 408 L 266 403 L 266 392 L 271 387 L 261 389 L 262 393 L 261 407 L 256 421 L 264 425 Z" transform="matrix(-1, 0, 0, -1, 0.00003, 0.000088)"/>
  <path style="fill: rgb(255, 255, 255); transform-origin: 253px 376px;" d="M 246 392 L 255 381 L 256 366 L 261 361 L 256 363 L 254 360 L 254 366 L 252 379 L 245 385 L 246 392 Z" transform="matrix(-1, 0, 0, -1, -0.000003, -0.00003)"/>
  <path style="fill: rgb(52, 52, 52);" d="M 267 356 L 271 359 L 274 356 L 281 360 L 278 379 L 279 388 L 271 391 L 263 387 L 264 379 L 260 360 L 267 356 Z"/>
  <path style="fill: rgb(76, 189, 113);" d="M -295 74 L -291 57 L -292 73 L -295 74 Z"/>
  <path style="fill: rgb(87, 217, 129);" d="M -284 20 C -293 17 -305 22 -311 37 C -295 29 -286 32 -284 20 Z"/>
  <path style="fill: rgb(87, 217, 129); transform-origin: -267.309px 33.5452px;" d="M -258 21 C -268 22 -277 31 -277 48 C -265 34 -255 33 -258 21 Z"/>
  <rect width="100" height="100" style="fill: rgb(203, 203, 203);" x="330" y="330"/>
  <path style="fill: rgb(52, 52, 52);" d="M 376 347 L 375 341 L 378 338 L 384 339 L 387 342 C 387 342 385 347 385 347 C 385 347 376 347 376 347 Z"/>
  <path style="fill: rgb(255, 255, 255);" d="M 377 356 L 378 353 L 377 352 L 376 349 L 375 348 L 375 346 L 376 345 L 377 341 L 380 340 L 384 341 L 385 345 L 386 346 L 386 348 L 385 349 L 384 352 L 383 353 L 384 356 L 381 359 L 377 356 Z"/>
  <path style="fill: rgb(52, 52, 52);" d="M 389 388 C 389 388 393 404 393 404 L 391 414 L 391 420 L 396 425 L 386 423 L 387 419 L 386 405 L 381 391 L 389 388 Z"/>
  <path style="fill: rgb(52, 52, 52); transform-origin: 373.5px 406px;" d="M 374 425 C 374 425 378 408 378 408 L 376 398 L 376 392 L 381 387 L 371 389 L 372 393 L 371 407 L 366 421 L 374 425 Z" transform="matrix(-1, 0, 0, -1, 0.000036, 0.000088)"/>
  <path style="fill: rgb(255, 255, 255); transform-origin: 363px 376px;" d="M 356 392 L 362 377 L 361 363 L 359 356 L 359 361 L 356 361 L 359 363 L 359 375 L 354 383 L 356 392 Z" transform="matrix(-1, 0, 0, -1, 0.000004, -0.00003)"/>
  <path style="fill: rgb(52, 52, 52);" d="M 377 356 L 381 359 L 384 356 L 391 360 L 388 379 L 389 388 L 381 391 L 373 387 L 374 379 L 370 360 L 377 356 Z"/>
  <path style="fill: rgb(255, 255, 255); transform-origin: 398px 376px;" d="M 391 360 L 397 375 L 397 389 L 395 396 L 395 391 L 392 391 L 395 389 L 394 377 L 389 369 L 391 360 Z"/>
  <rect width="100" height="100" style="fill: rgb(203, 203, 203);" x="440" y="330"/>
  <g transform="matrix(1, 0, 0, 1, 110, 330)">
    <path style="fill: rgb(52, 52, 52);" d="M 376 17 L 375 11 L 378 8 L 384 9 L 387 12 C 387 12 385 17 385 17 C 385 17 376 17 376 17 Z"/>
    <path style="fill: rgb(255, 255, 255);" d="M 377 26 L 378 23 L 377 22 L 376 19 L 375 18 L 375 16 L 376 15 L 377 11 L 380 10 L 384 11 L 385 15 L 386 16 L 386 18 L 385 19 L 384 22 L 383 23 L 384 26 L 381 29 L 377 26 Z"/>
    <path style="fill: rgb(52, 52, 52);" d="M 389 58 C 389 58 393 74 393 74 L 391 84 L 391 90 L 396 95 L 386 93 L 387 89 L 386 75 L 381 61 L 389 58 Z"/>
    <path style="fill: rgb(52, 52, 52); transform-origin: 373.5px 76px;" d="M 374 95 C 374 95 378 78 378 78 L 376 68 L 376 62 L 381 57 L 371 59 L 372 63 L 371 77 L 366 91 L 374 95 Z" transform="matrix(-1, 0, 0, -1, -0.000026, 0.000009)"/>
    <path style="fill: rgb(255, 255, 255); transform-origin: 363px 46px;" d="M 356 62 L 362 47 L 361 33 L 359 26 L 359 31 L 356 31 L 359 33 L 359 45 L 354 53 L 356 62 Z" transform="matrix(-1, 0, 0, -1, 0.000022, -0.000007)"/>
    <path style="fill: rgb(52, 52, 52);" d="M 377 26 L 381 29 L 384 26 L 391 30 L 388 49 L 389 58 L 381 61 L 373 57 L 374 49 L 370 30 L 377 26 Z"/>
    <path style="fill: rgb(255, 255, 255); transform-origin: 398px 46px;" d="M 391 30 L 397 45 L 397 59 L 395 66 L 395 61 L 392 61 L 395 59 L 394 47 L 389 39 L 391 30 Z"/>
    <path style="fill: rgb(52, 52, 52);" d="M 381 26 L 377 22 L 376 19 L 378 21 L 379 18 L 382 18 L 383 21 L 385 19 L 384 22 L 381 26 Z"/>
  </g>
  <rect width="100" height="100" style="fill: rgb(203, 203, 203);" x="660" y="330"/>
  <path style="fill: rgb(255, 255, 255);" d="M 745 374 L 746 377 L 759 356 L 755 358 L 745 374 Z"/>
  <path style="fill: rgb(52, 52, 52);" d="M 739 384 L 746 377 L 745 374 L 737 383 L 739 384 Z"/>
  <path style="fill: rgb(255, 255, 255);" d="M 705 354 L 706 350 L 705 349 L 704 346 L 703 345 L 703 343 L 704 341 L 705 337 L 708 336 L 713 337 L 714 341 L 715 343 L 715 345 L 714 346 L 713 349 L 712 350 L 713 354 L 705 354 Z"/>
  <path style="fill: rgb(52, 52, 52);" d="M 705 348 L 703 337 L 706 334 L 713 335 L 716 338 L 713 349 L 708 350 L 705 348 Z"/>
  <path style="fill: rgb(52, 52, 52);" d="M 718 389 L 722 406 L 721 424 L 716 423 L 715 407 L 710 392 L 718 389 Z"/>
  <path style="fill: rgb(52, 52, 52);" d="M 701 388 L 697 406 L 699 424 L 703 423 L 704 407 L 710 392 L 701 388 Z"/>
  <path style="fill: rgb(255, 255, 255); transform-origin: 689.791px 375.549px;" d="M 697 358 L 691 374 L 692 390 L 694 398 L 694 392 L 697 392 L 694 390 L 694 377 L 700 368 L 697 358 Z"/>
  <path style="fill: rgb(52, 52, 52);" d="M 705 354 L 713 354 L 721 358 L 717 379 L 718 389 L 710 392 L 701 388 L 702 379 L 697 358 L 705 354 Z"/>
  <path style="fill: rgb(255, 255, 255); transform-origin: 728.301px 375.549px;" d="M 721 358 L 727 373 L 738 377 L 743 376 L 745 379 L 742 383 L 737 380 L 724 377 L 718 368 L 721 358 Z"/>
  <rect width="100" height="100" style="fill: rgb(203, 203, 203);" y="330" x="110"/>
  <path style="fill: rgb(255, 255, 255);" d="M 157 357 L 154 343 L 161 338 L 167 343 L 164 357 L 171 361 L 168 380 L 169 389 L 161 392 L 153 388 C 153 388 154 380 154 380 L 150 361 L 157 357 Z"/>
  <path style="fill: rgb(255, 255, 255);" d="M 171 361 L 180 372 L 181 387 L 186 392 L 181 390 L 179 393 L 179 387 L 177 374 L 170 368 L 171 361 Z"/>
  <path style="fill: rgb(255, 255, 255);" d="M 169 389 C 169 389 173 405 173 405 L 171 410 L 171 421 L 176 426 L 166 424 L 167 420 L 166 406 L 161 392 L 169 389 Z"/>
  <path style="fill: rgb(255, 255, 255); transform-box: fill-box; transform-origin: 50% 50%;" d="M 154 426 C 154 426 158 409 158 409 L 156 404 L 156 393 L 161 388 L 151 390 L 152 394 L 151 408 L 146 422 L 154 426 Z" transform="matrix(-1, 0, 0, -1, 0.000023, -0.000048)"/>
  <path style="fill: rgb(255, 255, 255); transform-box: fill-box; transform-origin: 50% 50%;" d="M 136 393 L 145 382 L 146 367 L 151 362 L 146 364 L 144 361 L 144 367 L 142 380 L 135 386 L 136 393 Z" transform="matrix(-1, 0, 0, -1, -0.000009, 0.000017)"/>
  <path style="fill: rgb(255, 255, 255); transform-origin: 701.303px 417.289px;" d="M 696 409 L 698 423 L 695 423 L 694 425 L 699 427 L 704 427 L 705 411 L 696 409 Z"/>
  <path style="fill: rgb(255, 255, 255); transform-origin: 717.866px 417.007px;" d="M 724 409 L 721 423 L 724 423 L 725 425 L 720 427 L 715 427 L 714 411 L 724 409 Z"/>
  <rect width="100" height="100" style="fill: rgb(203, 203, 203);" y="440" x="660"/>
  <path style="fill: rgb(255, 255, 255);" d="M 745 484 L 746 487 L 759 466 L 755 468 L 745 484 Z"/>
  <path style="fill: rgb(52, 52, 52);" d="M 739 494 L 746 487 L 745 484 L 737 493 L 739 494 Z"/>
  <path style="fill: rgb(255, 255, 255);" d="M 705 464 L 706 460 L 705 459 L 704 456 L 703 455 L 703 453 L 704 451 L 705 447 L 708 446 L 713 447 L 714 451 L 715 453 L 715 455 L 714 456 L 713 459 L 712 460 L 713 464 L 705 464 Z"/>
  <path style="fill: rgb(52, 52, 52);" d="M 705 458 L 703 447 L 706 444 L 713 445 L 716 448 L 713 459 L 708 460 L 705 458 Z"/>
  <path style="fill: rgb(52, 52, 52);" d="M 718 499 L 722 516 L 721 534 L 726 535 L 715 537 L 716 533 L 715 517 L 710 502 L 718 499 Z"/>
  <path style="fill: rgb(52, 52, 52);" d="M 701 498 L 697 516 L 699 532 L 693 534 L 703 537 L 703 533 L 704 517 L 710 502 L 701 498 Z"/>
  <path style="fill: rgb(255, 255, 255); transform-origin: 689.791px 485.549px;" d="M 697 468 L 691 484 L 692 500 L 694 508 L 694 502 L 697 502 L 694 500 L 694 487 L 700 478 L 697 468 Z"/>
  <path style="fill: rgb(52, 52, 52);" d="M 705 464 L 713 464 L 721 468 L 717 489 L 718 499 L 710 502 L 701 498 L 702 489 L 697 468 L 705 464 Z"/>
  <path style="fill: rgb(255, 255, 255); transform-origin: 728.301px 485.549px;" d="M 721 468 L 727 483 L 738 487 L 743 486 L 745 489 L 742 493 L 737 490 L 724 487 L 718 478 L 721 468 Z"/>
  <rect width="100" height="100" style="fill: rgb(203, 203, 203);" x="770" y="330"/>
  <path style="fill: rgb(255, 255, 255);" d="M 855 374 L 856 377 L 869 356 L 865 358 L 855 374 Z"/>
  <path style="fill: rgb(52, 52, 52);" d="M 849 384 L 856 377 L 855 374 L 847 383 L 849 384 Z"/>
  <path style="fill: rgb(52, 52, 52);" d="M 815 354 L 816 350 L 815 349 L 814 346 L 813 345 L 813 343 L 814 341 L 815 337 L 818 336 L 823 337 L 824 341 L 825 343 L 825 345 L 824 346 L 823 349 L 822 350 L 823 354 L 815 354 Z"/>
  <path style="fill: rgb(52, 52, 52);" d="M 815 348 L 813 337 L 816 334 L 823 335 L 826 338 L 823 349 L 818 350 L 815 348 Z"/>
  <path style="fill: rgb(255, 255, 255);" d="M 828 389 L 832 406 L 831 424 L 826 423 L 825 407 L 820 392 L 828 389 Z"/>
  <path style="fill: rgb(255, 255, 255);" d="M 811 388 L 807 406 L 809 424 L 813 423 L 814 407 L 820 392 L 811 388 Z"/>
  <path style="fill: rgb(52, 52, 52); transform-origin: 799.791px 375.549px;" d="M 807 358 L 801 374 L 802 390 L 804 398 L 804 392 L 807 392 L 804 390 L 804 377 L 810 368 L 807 358 Z"/>
  <path style="fill: rgb(255, 255, 255);" d="M 815 354 L 823 354 L 831 358 L 827 379 L 828 389 L 820 392 L 811 388 L 812 379 L 807 358 L 815 354 Z"/>
  <path style="fill: rgb(52, 52, 52); transform-origin: 838.301px 375.549px;" d="M 831 358 L 837 373 L 848 377 L 853 376 L 855 379 L 852 383 L 847 380 L 834 377 L 828 368 L 831 358 Z"/>
  <path style="fill: rgb(52, 52, 52); transform-origin: 811.303px 417.289px;" d="M 806 409 L 808 423 L 805 423 L 804 425 L 809 427 L 814 427 L 815 411 L 806 409 Z"/>
  <path style="fill: rgb(52, 52, 52); transform-origin: 827.866px 417.007px;" d="M 834 409 L 831 423 L 834 423 L 835 425 L 830 427 L 825 427 L 824 411 L 834 409 Z"/>
  <rect width="100" height="100" style="fill: rgb(203, 203, 203);" y="220" x="110"/>
  <rect width="100" height="100" style="fill: rgb(203, 203, 203);" x="550" y="330"/>
  <path style="fill: rgb(255, 255, 255);" d="M 628 375 L 629 377 L 641 358 L 637 360 L 628 375 Z"/>
  <path style="fill: rgb(52, 52, 52);" d="M 623 384 L 629 377 L 628 375 L 621 383 L 623 384 Z"/>
  <path style="fill: rgb(255, 255, 255);" d="M 592 356 L 593 353 L 592 352 L 591 349 L 590 348 L 590 346 L 591 345 L 592 341 L 595 340 L 599 341 L 600 345 L 601 346 L 601 348 L 600 349 L 599 352 L 598 353 L 599 356 L 592 356 Z"/>
  <path style="fill: rgb(52, 52, 52);" d="M 592 351 L 590 341 L 593 338 L 599 339 L 602 342 L 599 352 L 595 353 L 592 351 Z"/>
  <path style="fill: rgb(52, 52, 52);" d="M 604 388 L 607 404 L 606 420 L 611 421 L 601 423 L 602 419 L 601 405 L 596 391 L 604 388 Z"/>
  <path style="fill: rgb(52, 52, 52); transform-origin: 588.5px 406px;" d="M 588 387 L 585 404 L 586 420 L 581 421 L 590 423 L 590 419 L 591 405 L 596 391 L 588 387 Z"/>
  <path style="fill: rgb(255, 255, 255); transform-origin: 578px 376px;" d="M 585 360 L 579 375 L 580 389 L 582 396 L 582 391 L 585 391 L 582 389 L 582 377 L 587 369 L 585 360 Z"/>
  <path style="fill: rgb(52, 52, 52);" d="M 592 356 L 599 356 L 606 360 L 603 379 L 604 388 L 596 391 L 588 387 L 589 379 L 585 360 L 592 356 Z"/>
  <path style="fill: rgb(255, 255, 255); transform-origin: 613px 376px;" d="M 606 360 L 612 374 L 622 377 L 626 376 L 628 379 L 625 383 L 621 380 L 609 377 L 604 369 L 606 360 Z"/>
  <rect width="100" height="100" style="fill: rgb(203, 203, 203);" x="880" y="330"/>
  <path style="fill: rgb(255, 255, 255);" d="M 965 374 L 966 377 L 979 356 L 975 358 L 965 374 Z"/>
  <path style="fill: rgb(52, 52, 52);" d="M 959 384 L 966 377 L 965 374 L 957 383 L 959 384 Z"/>
  <path style="fill: rgb(255, 255, 255);" d="M 925 354 L 926 350 L 925 349 L 924 346 L 923 345 L 923 343 L 924 341 L 925 337 L 928 336 L 933 337 L 934 341 L 935 343 L 935 345 L 934 346 L 933 349 L 932 350 L 933 354 L 925 354 Z"/>
  <path style="fill: rgb(52, 52, 52);" d="M 925 348 L 923 337 L 926 334 L 933 335 L 936 338 L 933 349 L 928 350 L 925 348 Z"/>
  <path style="fill: rgb(52, 52, 52); transform-origin: 909.791px 375.549px;" d="M 917 358 L 911 376 L 912 390 L 915 398 L 915 393 L 917 392 L 914 389 L 915 377 L 920 368 L 917 358 Z"/>
  <path style="fill: rgb(52, 52, 52); transform-origin: 948.301px 375.549px;" d="M 941 358 L 947 373 L 958 377 L 963 376 L 965 379 L 962 383 L 957 380 L 944 377 L 938 368 L 941 358 Z"/>
  <path style="fill: rgb(52, 52, 52);" d="M 944 409 L 941 423 L 944 423 L 945 425 L 940 427 L 935 427 L 934 411 L 935 411 L 935 407 L 930 392 L 924 407 L 924 411 L 925 411 L 924 427 L 919 427 L 914 425 L 915 423 L 918 423 L 916 409 L 917 409 L 917 406 L 921 388 L 922 381 L 937 381 L 939 389 L 942 406 L 942 409 L 944 409 Z"/>
  <path style="fill: rgb(255, 255, 255);" d="M 925 354 L 933 354 L 941 358 L 937 381 L 922 381 L 917 358 L 925 354 Z"/>
  <path style="fill: rgb(52, 52, 52);" d="M 924 379 L 921 379 L 920 376 L 922 372 L 918 356 L 923 353 L 935 353 L 940 356 L 937 372 L 939 376 L 938 379 L 935 378 L 924 379 Z"/>
  <rect width="100" height="100" style="fill: rgb(203, 203, 203);" y="440" x="110"/>
  <path style="fill: rgb(255, 255, 255);" d="M 195 484 L 196 487 L 209 466 L 205 468 L 195 484 Z"/>
  <path style="fill: rgb(52, 52, 52);" d="M 189 494 L 196 487 L 195 484 L 187 493 L 189 494 Z"/>
  <path style="fill: rgb(52, 52, 52); transform-origin: 139.791px 485.549px;" d="M 147 468 L 141 486 L 142 500 L 145 508 L 145 503 L 147 502 L 144 499 L 145 487 L 150 478 L 147 468 Z"/>
  <path style="fill: rgb(52, 52, 52); transform-origin: 178.301px 485.549px;" d="M 171 468 L 177 483 L 188 487 L 193 486 L 195 489 L 192 493 L 187 490 L 174 487 L 168 478 L 171 468 Z"/>
  <path style="fill: rgb(52, 52, 52);" d="M 174 519 L 171 533 L 174 533 L 175 535 L 170 537 L 165 537 L 164 521 L 165 521 L 165 517 L 160 502 L 154 517 L 154 521 L 155 521 L 154 537 L 149 537 L 144 535 L 145 533 L 148 533 L 146 519 L 147 519 L 147 516 L 151 498 L 152 491 L 167 491 L 169 499 L 172 516 L 172 519 L 174 519 Z"/>
  <path style="fill: rgb(255, 255, 255);" d="M 171 468 L 167 491 L 152 491 L 147 468 L 155 464 L 156 459 L 162 458 L 163 464 L 171 468 Z"/>
  <path style="fill: rgb(52, 52, 52);" d="M 151 460 L 153 447 L 157 444 L 163 445 L 167 459 L 164 461 L 160 460 L 157 461 L 154 460 L 151 460 Z"/>
  <path style="fill: rgb(52, 52, 52);" d="M 154 489 L 150 490 L 149 486 L 152 482 L 148 466 L 151 462 L 167 463 L 170 466 L 167 482 L 170 486 L 169 490 L 165 488 L 154 489 Z"/>
  <path style="fill: rgb(52, 52, 52);" d="M 150 248 L 149 240 L 153 226 L 161 223 L 169 225 L 173 240 L 172 249 L 187 261 L 192 289 L 190 315 L 183 319 L 185 314 L 180 314 L 184 310 L 183 294 L 177 279 L 174 290 L 177 302 L 172 312 L 172 317 L 165 318 L 165 315 L 161 315 L 165 310 L 168 303 L 160 297 L 154 302 L 155 310 L 157 316 L 154 315 L 153 318 L 145 316 L 147 312 L 142 302 L 146 290 L 144 277 L 138 294 L 143 311 L 143 317 L 140 314 L 138 319 L 133 316 L 133 310 L 127 288 L 138 260 L 150 248 Z"/>
  <path style="fill: rgb(255, 255, 255);" d="M 156 239 L 155 241 L 160 240 L 156 239 Z"/>
  <path style="fill: rgb(255, 255, 255);" d="M 166 239 L 162 240 L 167 241 L 166 239 Z"/>
  <path style="fill: rgb(255, 255, 255);" d="M 156 246 L 158 245 L 159 245 L 164 246 L 166 247 L 164 245 L 158 244 L 156 246 Z"/>
  <rect width="100" height="100" style="fill: rgb(203, 203, 203);" x="220" y="440"/>
  <path style="fill: rgb(255, 255, 255);" d="M 301 485 L 302 488 L 315 467 L 311 469 L 301 485 Z"/>
  <path style="fill: rgb(52, 52, 52);" d="M 295 495 L 302 488 L 301 485 L 293 494 L 295 495 Z"/>
  <path style="fill: rgb(52, 52, 52); transform-origin: 249.791px 485.549px;" d="M 257 468 L 251 488 L 255 497 L 258 505 L 258 500 L 260 499 L 257 496 L 255 489 L 260 478 L 257 468 Z"/>
  <path style="fill: rgb(52, 52, 52); transform-origin: 288.301px 485.549px;" d="M 281 468 L 287 483 L 294 488 L 298 488 L 300 491 L 297 495 L 293 491 L 284 487 L 278 478 L 281 468 Z"/>
  <path style="fill: rgb(52, 52, 52);" d="M 286 512 L 283 526 L 286 526 L 287 528 L 282 530 L 277 530 L 276 514 L 277 514 L 277 510 L 270 504 L 264 517 L 264 521 L 265 521 L 264 537 L 259 537 L 254 535 L 255 533 L 258 533 L 256 519 L 257 519 L 257 516 L 261 498 L 262 491 L 277 491 L 279 498 L 284 509 L 284 512 L 286 512 Z"/>
  <path style="fill: rgb(255, 255, 255);" d="M 281 468 L 277 491 L 262 491 L 257 468 L 265 464 L 266 459 L 272 458 L 273 464 L 281 468 Z"/>
  <path style="fill: rgb(52, 52, 52);" d="M 262 460 L 264 447 L 268 444 L 274 445 L 278 459 L 275 461 L 271 460 L 268 461 L 265 460 L 262 460 Z"/>
  <path style="fill: rgb(52, 52, 52);" d="M 264 490 L 260 491 L 259 487 L 262 483 L 258 467 L 261 463 L 277 464 L 280 467 L 277 483 L 280 487 L 279 491 L 275 489 L 264 490 Z"/>
  <rect width="100" height="100" style="fill: rgb(203, 203, 203);" x="330" y="440"/>
  <path style="fill: rgb(255, 255, 255); transform-origin: 415px 468.5px;" d="M 410 477 L 411 480 L 419 457 L 416 460 L 410 477 Z"/>
  <path style="fill: rgb(52, 52, 52); transform-origin: 407.5px 483px;" d="M 407 489 L 411 480 L 410 477 L 405 487 L 407 489 Z"/>
  <path style="fill: rgb(52, 52, 52); transform-origin: 359.791px 485.549px;" d="M 367 468 L 361 487 L 362 501 L 365 509 L 365 504 L 367 503 L 364 500 L 365 488 L 370 478 L 367 468 Z"/>
  <path style="fill: rgb(52, 52, 52); transform-origin: 398.301px 485.549px;" d="M 391 468 L 396 482 L 404 482 L 408 480 L 411 482 L 409 487 L 404 485 L 393 487 L 388 478 L 391 468 Z"/>
  <path style="fill: rgb(52, 52, 52);" d="M 390 519 L 387 533 L 390 533 L 391 535 L 386 537 L 381 537 L 380 521 L 381 521 L 381 517 L 379 503 L 374 513 L 374 517 L 375 517 L 374 533 L 369 533 L 364 531 L 365 529 L 368 529 L 366 515 L 367 515 L 367 512 L 371 498 L 372 491 L 387 491 L 388 500 L 388 516 L 388 519 L 390 519 Z"/>
  <path style="fill: rgb(255, 255, 255);" d="M 391 468 L 387 491 L 372 491 L 367 468 L 375 464 L 376 459 L 382 458 L 383 464 L 391 468 Z"/>
  <path style="fill: rgb(52, 52, 52);" d="M 371 461 L 373 448 L 377 445 L 383 446 L 387 460 L 384 462 L 380 461 L 377 462 L 374 461 L 371 461 Z"/>
  <path style="fill: rgb(52, 52, 52);" d="M 374 489 L 370 490 L 369 486 L 372 482 L 368 466 L 371 462 L 387 463 L 390 466 L 387 482 L 390 486 L 389 490 L 385 488 L 374 489 Z"/>
  <rect width="100" height="100" style="fill: rgb(203, 203, 203);" y="550" x="110"/>
  <path style="fill: rgb(255, 255, 255);" d="M 195 597 L 196 600 L 209 579 L 205 581 L 195 597 Z"/>
  <path style="fill: rgb(52, 52, 52);" d="M 189 607 L 196 600 L 195 597 L 187 606 L 189 607 Z"/>
  <path style="fill: rgb(52, 52, 52); transform-origin: 139.791px 596.549px;" d="M 147 579 L 141 597 L 143 611 L 146 619 L 146 614 L 148 613 L 145 610 L 145 598 L 150 589 L 147 579 Z"/>
  <path style="fill: rgb(52, 52, 52); transform-origin: 178.301px 596.549px;" d="M 171 579 L 177 594 L 188 600 L 193 599 L 195 602 L 192 606 L 187 603 L 174 598 L 168 589 L 171 579 Z"/>
  <path style="fill: rgb(52, 52, 52);" d="M 174 629 L 171 643 L 174 643 L 175 645 L 170 647 L 165 647 L 164 631 L 165 631 L 165 627 L 160 612 L 154 627 L 154 631 L 155 631 L 154 647 L 149 647 L 144 645 L 145 643 L 148 643 L 146 629 L 147 629 L 147 626 L 151 608 L 152 602 L 167 602 L 169 609 L 172 626 L 172 629 L 174 629 Z"/>
  <path style="fill: rgb(255, 255, 255);" d="M 171 579 L 167 602 L 152 602 L 147 579 L 155 575 L 156 570 L 162 569 L 163 575 L 171 579 Z"/>
  <path style="fill: rgb(52, 52, 52);" d="M 151 571 L 153 558 L 157 555 L 163 556 L 167 570 L 164 572 L 160 571 L 157 572 L 154 571 L 151 571 Z"/>
  <path style="fill: rgb(52, 52, 52);" d="M 154 600 L 150 601 L 149 597 L 152 593 L 148 577 L 151 573 L 167 574 L 170 577 L 167 593 L 170 597 L 169 601 L 165 599 L 154 600 Z"/>
  <rect width="100" height="100" style="fill: rgb(203, 203, 203);" y="110" x="110"/>
  <path style="fill: rgb(52, 52, 52);" d="M 150 139 L 149 131 L 153 117 L 161 114 L 169 116 L 173 131 L 172 140 L 187 152 L 193 179 L 186 203 L 179 207 L 181 202 L 176 202 L 180 198 L 184 184 L 177 169 L 174 180 L 177 192 L 172 202 L 172 207 L 165 208 L 165 205 L 161 205 L 165 200 L 168 193 L 160 187 L 154 192 L 155 200 L 157 206 L 154 205 L 153 208 L 145 206 L 147 202 L 142 192 L 146 180 L 144 167 L 138 185 L 142 200 L 142 206 L 139 203 L 137 208 L 132 205 L 132 199 L 127 179 L 138 151 L 150 139 Z"/>
  <path style="fill: rgb(255, 255, 255);" d="M 156 130 L 155 132 L 160 131 L 156 130 Z"/>
  <path style="fill: rgb(255, 255, 255);" d="M 166 130 L 162 131 L 167 132 L 166 130 Z"/>
  <path style="fill: rgb(255, 255, 255);" d="M 156 137 L 158 136 L 159 136 L 164 137 L 166 138 L 164 136 L 158 135 L 156 137 Z"/>
  <rect width="100" height="100" style="fill: rgb(203, 203, 203);" x="220" y="220"/>
  <path style="fill: rgb(52, 52, 52);" d="M 259 248 L 258 240 L 262 226 L 270 223 L 278 225 L 282 240 L 281 249 L 297 261 L 305 282 L 303 308 L 296 312 L 298 307 L 293 307 L 297 303 L 296 287 L 287 279 L 284 290 L 293 300 L 290 309 L 290 314 L 283 315 L 283 312 L 279 312 L 283 307 L 279 302 L 270 297 L 264 302 L 265 310 L 267 315 L 264 315 L 263 318 L 256 317 L 257 312 L 252 302 L 256 290 L 254 277 L 245 291 L 244 312 L 247 316 L 244 316 L 244 318 L 238 318 L 234 311 L 234 285 L 248 260 L 259 248 Z"/>
  <path style="fill: rgb(255, 255, 255);" d="M 265 239 L 264 241 L 269 240 L 265 239 Z"/>
  <path style="fill: rgb(255, 255, 255);" d="M 275 239 L 271 240 L 276 241 L 275 239 Z"/>
  <path style="fill: rgb(255, 255, 255);" d="M 265 246 L 267 245 L 268 245 L 273 246 L 275 247 L 273 245 L 267 244 L 265 246 Z"/>
  <rect width="100" height="100" style="fill: rgb(57, 59, 194);" y="109" x="-330"/>
  <path style="fill: rgb(255, 255, 255);" d="M -309 176 L -305 138 L -294 124 L -275 122 L -263 137 L -259 173 L -309 176 Z"/>
  <path style="fill: rgb(52, 52, 52);" d="M -297 141 L -288 143 L -289 148 L -297 141 Z"/>
  <path style="fill: rgb(52, 52, 52); transform-origin: -274.852px 144.736px;" d="M -279 150 L -269 146 L -271 142 L -279 150 Z" transform="matrix(-1, 0, 0, -1, -0.000012, 0.00002)"/>
  <path style="fill: rgb(52, 52, 52);" d="M -298 151 L -300 160 L -283 162 L -267 158 L -270 150 L -274 158 L -278 152 L -281 159 L -285 152 L -289 159 L -292 152 L -295 157 L -298 151 Z"/>
  <path style="fill: rgb(218, 218, 218);" d="M -309 176 L -305 138 L -294 124 L -300 127 L -309 138 L -313 171 L -309 176 Z"/>
  <path style="fill: rgba(255, 255, 255, 0.133);" d="M -309 176 L -295 181 L -291 188 L -276 190 L -263 180 L -259 173 L -309 176 Z"/>
  <path style="fill: rgb(255, 255, 255);" d="M -243 192 L -261 192 L -257 185 L -247 182 L -243 192 Z"/>
  <path style="fill: rgb(218, 218, 218);" d="M -263 190 L -261 192 L -257 185 L -247 182 L -259 184 L -263 190 Z"/>
  <path style="fill: rgba(255, 255, 255, 0.133);" d="M -243 192 L -261 192 L -258 195 L -247 197 L -243 192 Z"/>
  <rect width="100" height="100" style="fill: rgb(203, 203, 203);" x="330" y="220"/>
  <path style="fill: rgb(52, 52, 52);" d="M 371 248 L 370 240 L 374 226 L 382 223 L 390 225 L 394 240 L 393 249 L 407 261 L 415 282 L 411 303 L 404 307 L 406 302 L 401 302 L 405 298 L 406 287 L 397 279 L 394 290 L 398 302 L 396 313 L 396 318 L 389 319 L 389 316 L 385 316 L 389 311 L 387 304 L 380 297 L 378 302 L 380 309 L 382 314 L 379 314 L 378 317 L 371 316 L 372 311 L 366 302 L 366 290 L 364 277 L 356 284 L 358 299 L 358 305 L 355 302 L 353 307 L 348 304 L 348 298 L 346 279 L 358 260 L 371 248 Z"/>
  <path style="fill: rgb(255, 255, 255);" d="M 376 239 L 375 241 L 380 240 L 376 239 Z"/>
  <path style="fill: rgb(255, 255, 255);" d="M 386 239 L 382 240 L 387 241 L 386 239 Z"/>
  <path style="fill: rgb(255, 255, 255);" d="M 376 246 L 378 245 L 379 245 L 384 246 L 386 247 L 384 245 L 378 244 L 376 246 Z"/>
  <rect width="100" height="100" style="fill: rgb(203, 203, 203);" x="220" y="110"/>
  <path style="fill: rgb(52, 52, 52);" d="M 259 138 L 258 130 L 262 116 L 270 113 L 278 115 L 282 130 L 281 139 L 297 151 L 305 172 L 303 198 L 296 202 L 298 197 L 293 197 L 297 193 L 296 177 L 287 169 L 284 180 L 293 190 L 290 199 L 290 204 L 283 205 L 283 202 L 279 202 L 283 197 L 279 192 L 270 187 L 264 192 L 265 200 L 267 205 L 264 205 L 263 208 L 256 207 L 257 202 L 252 192 L 256 180 L 254 167 L 245 181 L 250 198 L 250 204 L 247 201 L 245 206 L 240 203 L 240 197 L 234 175 L 248 150 L 259 138 Z"/>
  <path style="fill: rgb(255, 255, 255);" d="M 265 129 L 264 131 L 269 130 L 265 129 Z"/>
  <path style="fill: rgb(255, 255, 255);" d="M 275 129 L 271 130 L 276 131 L 275 129 Z"/>
  <path style="fill: rgb(255, 255, 255);" d="M 265 136 L 267 135 L 268 135 L 273 136 L 275 137 L 273 135 L 267 134 L 265 136 Z"/>
  <rect width="100" height="100" style="fill: rgb(203, 203, 203);" x="330" y="110"/>
  <path style="fill: rgb(52, 52, 52);" d="M 371 138 L 370 130 L 374 116 L 382 113 L 390 115 L 394 130 L 393 139 L 407 151 L 415 172 L 411 193 L 404 197 L 406 192 L 401 192 L 405 188 L 406 177 L 397 169 L 394 180 L 398 192 L 396 203 L 396 208 L 389 209 L 389 206 L 385 206 L 389 201 L 387 194 L 380 187 L 378 192 L 380 199 L 382 204 L 379 204 L 378 207 L 371 206 L 372 201 L 366 192 L 366 180 L 364 167 L 356 174 L 358 189 L 358 195 L 355 192 L 353 197 L 348 194 L 348 188 L 346 169 L 358 150 L 371 138 Z"/>
  <path style="fill: rgb(255, 255, 255);" d="M 376 129 L 375 131 L 380 130 L 376 129 Z"/>
  <path style="fill: rgb(255, 255, 255);" d="M 386 129 L 382 130 L 387 131 L 386 129 Z"/>
  <path style="fill: rgb(255, 255, 255);" d="M 376 136 L 378 135 L 379 135 L 384 136 L 386 137 L 384 135 L 378 134 L 376 136 Z"/>
  <rect width="100" height="100" style="fill: rgb(203, 203, 203);" x="220"/>
  <path style="fill: rgb(52, 52, 52);" d="M 259 28 L 258 20 L 262 6 L 270 3 L 278 5 L 282 20 L 281 29 L 297 41 L 304 67 L 305 97 L 297 97 L 297 93 L 294 93 L 297 89 L 295 72 L 287 59 L 286 69 L 293 79 L 291 87 L 290 92 L 283 93 L 283 90 L 279 90 L 283 85 L 277 80 L 270 79 L 264 82 L 265 90 L 267 95 L 264 95 L 263 98 L 256 97 L 257 92 L 252 82 L 256 70 L 254 57 L 247 68 L 248 84 L 248 90 L 245 87 L 243 92 L 238 89 L 238 83 L 236 62 L 248 40 L 259 28 Z"/>
  <path style="fill: rgb(255, 255, 255);" d="M 265 19 L 264 21 L 269 20 L 265 19 Z"/>
  <path style="fill: rgb(255, 255, 255);" d="M 275 19 L 271 20 L 276 21 L 275 19 Z"/>
  <path style="fill: rgb(255, 255, 255);" d="M 265 26 L 267 25 L 268 25 L 273 26 L 275 27 L 273 25 L 267 24 L 265 26 Z"/>
  <rect width="100" height="100" style="fill: rgb(203, 203, 203);" x="330"/>
  <path style="fill: rgb(52, 52, 52);" d="M 371 28 L 370 20 L 374 6 L 382 3 L 390 5 L 394 20 L 393 29 L 407 41 L 415 62 L 412 87 L 405 91 L 407 86 L 402 86 L 406 82 L 406 67 L 397 59 L 394 70 L 398 82 L 395 93 L 395 98 L 388 99 L 388 96 L 384 96 L 388 91 L 387 84 L 380 77 L 380 82 L 382 89 L 384 94 L 381 94 L 380 97 L 373 96 L 374 91 L 368 82 L 366 70 L 364 57 L 359 61 L 355 76 L 355 82 L 352 79 L 350 84 L 345 81 L 345 75 L 349 56 L 358 38 L 371 28 Z"/>
  <path style="fill: rgb(255, 255, 255);" d="M 376 19 L 375 21 L 380 20 L 376 19 Z"/>
  <path style="fill: rgb(255, 255, 255);" d="M 386 19 L 382 20 L 387 21 L 386 19 Z"/>
  <path style="fill: rgb(255, 255, 255);" d="M 376 26 L 378 25 L 379 25 L 384 26 L 386 27 L 384 25 L 378 24 L 376 26 Z"/>
  <rect width="100" height="100" style="fill: rgb(203, 203, 203);" y="660" x="110"/>
  <path style="fill: rgb(52, 52, 52);" d="M 180 735 L 176 749 L 179 755 L 176 758 L 167 753 L 166 737 L 167 737 L 167 733 L 160 718 L 152 733 L 152 737 L 153 737 L 152 753 L 141 758 L 140 753 L 144 749 L 141 735 L 142 735 L 142 732 L 149 710 L 170 708 L 177 732 L 177 735 L 180 735 Z"/>
  <path style="fill: rgb(255, 255, 255);" d="M 175 685 L 170 708 L 149 710 L 143 686 L 153 681 L 165 681 L 175 685 Z"/>
  <path style="fill: rgb(52, 52, 52); transform-origin: 133.137px 703.549px;" d="M 143 686 L 135 704 L 138 718 L 142 726 L 142 721 L 145 720 L 140 717 L 140 705 L 147 696 L 143 686 Z"/>
  <path style="fill: rgb(52, 52, 52); transform-origin: 184.279px 702.549px;" d="M 175 685 L 183 703 L 180 717 L 176 725 L 176 720 L 173 719 L 178 716 L 178 704 L 171 695 L 175 685 Z"/>
  <path style="fill: rgb(52, 52, 52);" d="M 155 678 L 151 671 L 153 663 L 162 662 L 166 670 L 163 678 L 165 683 L 154 682 L 155 678 Z"/>
  <path style="transform-origin: -267.309px 33.5452px; fill: rgb(76, 189, 113);" d="M -258 21 C -268 22 -277 31 -277 48 C -273 31 -263 31 -258 21 Z"/>
  <path style="fill: rgb(76, 189, 113);" d="M -284 20 C -293 17 -305 22 -311 37 C -298 22 -288 27 -284 20 Z"/>
  <rect width="100" height="100" style="fill: rgb(97, 243, 143);" x="-330" y="-110"/>
  <path style="fill: rgb(76, 189, 113);" d="M -280 -94 C -289 -97 -301 -92 -307 -77 C -291 -85 -282 -82 -280 -94 Z"/>
  <path style="fill: rgb(87, 217, 129);" d="M -280 -94 C -289 -97 -301 -92 -307 -77 C -294 -92 -284 -87 -280 -94 Z"/>
  <path style="fill: rgb(76, 189, 113); transform-origin: -289.227px -81.7953px;" d="M -280 -94 C -290 -93 -299 -84 -299 -67 C -287 -81 -277 -82 -280 -94 Z"/>
  <path style="fill: rgb(87, 217, 129); transform-origin: -289.227px -81.7953px;" d="M -280 -94 C -290 -93 -299 -84 -299 -67 C -295 -84 -285 -84 -280 -94 Z"/>
  <path style="fill: rgb(76, 189, 113); transform-origin: -284.847px -78.6515px;" d="M -280 -94 C -289 -89 -294 -78 -289 -62 C -282 -79 -273 -83 -280 -94 Z"/>
  <path style="fill: rgb(87, 217, 129); transform-origin: -284.847px -78.6515px;" d="M -280 -94 C -289 -89 -294 -78 -289 -62 C -290 -79 -281 -82 -280 -94 Z"/>
  <path style="fill: rgb(76, 189, 113); transform-origin: -266.48px -86.5253px;" d="M -280 -94 C -271 -97 -259 -92 -253 -77 C -269 -85 -278 -82 -280 -94 Z"/>
  <path style="fill: rgb(87, 217, 129); transform-origin: -266.48px -86.5253px;" d="M -280 -94 C -271 -97 -259 -92 -253 -77 C -266 -92 -276 -87 -280 -94 Z"/>
  <path style="fill: rgb(76, 189, 113); transform-origin: -270.473px -81.6912px;" d="M -280 -94 C -270 -93 -261 -84 -261 -67 C -273 -81 -280 -82 -280 -94 Z"/>
  <path style="fill: rgb(87, 217, 129); transform-origin: -270.473px -81.6912px;" d="M -280 -94 C -270 -93 -261 -84 -261 -67 C -265 -84 -275 -84 -280 -94 Z"/>
  <path style="fill: rgb(87, 217, 129); transform-origin: -266.5px -30.9155px;" d="M -280 -23 C -271 -20 -259 -25 -253 -40 C -269 -32 -278 -35 -280 -23 Z"/>
  <path style="fill: rgb(76, 189, 113); transform-origin: -266.5px -30.9155px;" d="M -280 -23 C -271 -20 -259 -25 -253 -40 C -266 -25 -276 -30 -280 -23 Z"/>
  <path style="fill: rgb(87, 217, 129); transform-origin: -270.773px -35.0357px;" d="M -280 -23 C -270 -24 -261 -33 -261 -50 C -273 -36 -283 -35 -280 -23 Z"/>
  <path style="fill: rgb(76, 189, 113); transform-origin: -270.773px -35.0357px;" d="M -280 -23 C -270 -24 -261 -33 -261 -50 C -265 -33 -275 -33 -280 -23 Z"/>
  <path style="fill: rgb(87, 217, 129); transform-origin: -275.153px -39.1795px;" d="M -280 -23 C -271 -28 -266 -39 -271 -55 C -278 -38 -287 -34 -280 -23 Z"/>
  <path style="fill: rgb(76, 189, 113); transform-origin: -275.153px -39.1795px;" d="M -280 -23 C -271 -28 -266 -39 -271 -55 C -270 -38 -279 -35 -280 -23 Z"/>
  <path style="fill: rgb(87, 217, 129); transform-origin: -293.52px -30.3057px;" d="M -280 -23 C -289 -20 -301 -25 -307 -40 C -291 -32 -282 -35 -280 -23 Z"/>
  <path style="fill: rgb(76, 189, 113); transform-origin: -293.52px -30.3057px;" d="M -280 -23 C -289 -20 -301 -25 -307 -40 C -294 -25 -284 -30 -280 -23 Z"/>
  <path style="fill: rgb(87, 217, 129); transform-origin: -289.527px -35.1398px;" d="M -280 -23 C -290 -24 -299 -33 -299 -50 C -287 -36 -281 -37 -280 -23 Z"/>
  <path style="fill: rgb(76, 189, 113); transform-origin: -289.527px -35.1398px;" d="M -280 -23 C -290 -24 -299 -33 -299 -50 C -295 -33 -285 -33 -280 -23 Z"/>
  <path style="fill: rgb(76, 189, 113);" d="M -392 -82 C -390 -78 -388 -73 -388 -67 C -391 -70 -395 -77 -397 -79 C -397 -75 -396 -67 -398 -62 C -400 -66 -400 -74 -403 -79 C -406 -75 -407 -66 -409 -62 C -411 -67 -410 -75 -410 -79 C -412 -77 -416 -70 -419 -67 C -419 -73 -415 -80 -413 -84 C -416 -83 -423 -79 -427 -77 C -422 -90 -412 -96 -403 -95 C -395 -96 -385 -90 -380 -77 C -384 -79 -389 -81 -392 -82 Z"/>
  <path style="fill: rgb(87, 217, 129);" d="M -427 -77 C -422 -90 -412 -96 -403 -95 C -395 -96 -385 -90 -380 -77 C -386 -83 -391 -86 -395 -88 C -391 -83 -388 -76 -388 -67 C -390 -76 -394 -80 -398 -84 C -396 -78 -395 -71 -398 -62 C -397 -73 -401 -77 -403 -82 C -406 -77 -410 -73 -409 -62 C -412 -71 -411 -78 -409 -84 C -413 -80 -417 -76 -419 -67 C -419 -76 -416 -83 -412 -88 C -416 -86 -421 -83 -427 -77 Z"/>
  <path style="fill: rgb(76, 189, 113);" d="M -380 -44 C -389 -47 -401 -42 -407 -27 C -391 -35 -382 -32 -380 -44 Z"/>
  <path style="fill: rgb(76, 189, 113); transform-origin: -389.227px -31.7953px;" d="M -380 -44 C -390 -43 -399 -34 -399 -17 C -387 -31 -377 -32 -380 -44 Z"/>
  <path style="fill: rgb(76, 189, 113); transform-origin: -384.847px -28.6515px;" d="M -380 -44 C -389 -39 -394 -28 -389 -12 C -382 -29 -373 -33 -380 -44 Z"/>
  <path style="fill: rgb(76, 189, 113); transform-origin: -366.48px -36.5253px;" d="M -380 -44 C -371 -47 -359 -42 -353 -27 C -369 -35 -378 -32 -380 -44 Z"/>
  <path style="fill: rgb(76, 189, 113); transform-origin: -370.473px -31.6912px;" d="M -380 -44 C -370 -43 -361 -34 -361 -17 C -373 -31 -380 -32 -380 -44 Z"/>
  <path style="fill: rgb(87, 217, 129);" d="M -367 -17 C -371 -34 -381 -34 -386 -44 C -377 -47 -365 -42 -359 -27 C -365 -33 -370 -36 -374 -38 C -370 -33 -367 -26 -367 -17 Z"/>
  <path style="fill: rgb(87, 217, 129);" d="M -407 -27 C -401 -42 -389 -47 -380 -44 C -381 -32 -390 -29 -389 -12 C -392 -21 -391 -28 -389 -34 C -393 -30 -397 -26 -399 -17 C -399 -26 -396 -33 -392 -38 C -396 -36 -401 -33 -407 -27 Z"/>
  <rect width="100" height="100" style="fill: rgb(97, 243, 143);" x="-440"/>
  <path style="fill: rgb(195, 145, 86);" d="M -389 21 C -389 21 -384 51 -384 51 L -394 71 L -392 83 L -399 87 L -391 85 L -392 88 L -388 84 L -379 87 L -384 84 L -388 73 L -380 50 L -387 20 L -389 21 Z"/>
  <path style="fill: rgb(76, 189, 113);" d="M -413 34 C -408 21 -398 15 -389 16 C -380 15 -370 21 -365 34 C -369 32 -373 31 -376 30 C -374 34 -373 38 -373 44 C -378 38 -382 34 -386 31 C -388 36 -392 41 -395 49 C -397 44 -397 40 -397 36 C -400 38 -402 41 -405 44 C -405 38 -404 34 -402 30 C -405 31 -409 32 -413 34 Z"/>
  <path style="fill: rgb(87, 217, 129);" d="M -373 44 C -376 31 -382 28 -387 23 C -390 31 -396 35 -395 49 C -398 40 -397 33 -395 27 C -399 31 -403 35 -405 44 C -405 35 -402 28 -398 23 C -402 25 -407 28 -413 34 C -408 21 -398 15 -389 16 C -380 15 -370 21 -365 34 C -371 28 -376 25 -380 23 C -376 28 -373 35 -373 44 Z"/>
  <path style="fill: rgb(76, 189, 113); transform-origin: -398.708px 70.4598px;" d="M -393 72 C -395 69 -399 67 -404 69 C -399 72 -398 74 -393 72 Z"/>
  <path style="fill: rgb(76, 189, 113); transform-origin: -374.539px 48.3122px;" d="M -381 50 C -379 47 -375 45 -369 47 C -376 51 -377 53 -381 50 Z"/>
  <path style="fill: rgb(76, 189, 113); transform-origin: -392.348px 57.3608px;" d="M -386 58 C -388 56 -391 54 -397 56 C -392 59 -391 61 -386 58 Z"/>
  <path style="fill: rgb(87, 217, 129); transform-origin: -398.708px 70.4598px;" d="M -393 72 C -395 69 -399 67 -404 69 C -399 69 -398 72 -393 72 Z"/>
  <path style="fill: rgb(87, 217, 129); transform-origin: -392.348px 57.3608px;" d="M -386 58 C -388 56 -391 54 -397 56 C -392 56 -391 58 -386 58 Z"/>
  <path style="fill: rgb(87, 217, 129); transform-origin: -374.539px 48.3122px;" d="M -381 50 C -379 47 -375 45 -369 47 C -375 47 -377 51 -381 50 Z"/>
  <path style="fill: rgb(76, 189, 113); transform-origin: -397.946px 74.8472px;" d="M -393 72 C -396 71 -400 72 -403 77 C -397 76 -395 77 -393 72 Z"/>
  <path style="fill: rgb(87, 217, 129); transform-origin: -397.946px 74.8472px;" d="M -393 72 C -396 71 -400 72 -403 77 C -399 74 -397 75 -393 72 Z"/>
  <rect width="100" height="200" style="fill: rgb(97, 243, 143);" x="-550"/>
  <ellipse style="fill: rgba(0, 0, 0, 0.133);" cy="191" rx="39" ry="6" cx="-500"/>
  <path style="fill: rgb(168, 125, 74);" d="M -500 68 C -500 68 -490 121 -490 121 L -510 161 L -506 188 L -512 192 L -504 190 L -504 194 L -498 190 L -486 193 L -491 188 L -498 166 L -482 119 L -496 65 L -500 68 Z"/>
  <path style="fill: rgb(76, 189, 113);" d="M -549 87 C -538 61 -518 49 -500 50 C -482 49 -462 61 -451 87 C -459 82 -468 81 -474 79 C -470 87 -468 94 -468 107 C -477 94 -486 87 -494 81 C -498 91 -506 100 -512 117 C -515 107 -515 96 -512 89 C -518 92 -526 100 -532 107 C -532 94 -530 87 -526 79 C -532 81 -541 82 -549 87 Z"/>
  <path style="fill: rgb(87, 217, 129);" d="M -468 107 C -474 81 -486 75 -496 64 C -502 81 -514 88 -512 117 C -518 99 -517 85 -512 73 C -520 81 -529 88 -532 107 C -532 88 -526 75 -518 64 C -526 68 -536 75 -549 87 C -538 61 -518 49 -500 50 C -482 49 -462 61 -451 87 C -464 75 -474 68 -482 64 C -474 75 -468 88 -468 107 Z"/>
  <path style="fill: rgb(76, 189, 113); transform-origin: -519.652px 160.419px;" d="M -508 164 C -512 158 -520 153 -530 158 C -520 164 -518 167 -508 164 Z"/>
  <path style="fill: rgb(76, 189, 113); transform-origin: -470.727px 115.586px;" d="M -483 119 C -480 113 -471 109 -459 113 C -474 121 -476 125 -483 119 Z"/>
  <path style="fill: rgb(76, 189, 113); transform-origin: -504.17px 134.733px;" d="M -494 136 C -497 132 -502 129 -512 132 C -504 137 -502 140 -494 136 Z"/>
  <path style="fill: rgb(87, 217, 129); transform-origin: -519.652px 160.419px;" d="M -508 164 C -512 158 -520 153 -530 158 C -520 158 -518 164 -508 164 Z"/>
  <path style="fill: rgb(87, 217, 129); transform-origin: -504.17px 134.733px;" d="M -494 136 C -497 132 -502 129 -512 132 C -504 132 -502 136 -494 136 Z"/>
  <path style="fill: rgb(87, 217, 129); transform-origin: -470.727px 115.586px;" d="M -483 119 C -480 113 -471 109 -459 113 C -471 113 -476 121 -483 119 Z"/>
  <path style="fill: rgb(76, 189, 113); transform-origin: -518.109px 169.299px;" d="M -508 164 C -514 161 -523 164 -529 173 C -517 172 -512 173 -508 164 Z"/>
  <path style="fill: rgb(87, 217, 129); transform-origin: -518.109px 169.299px;" d="M -508 164 C -514 161 -523 164 -529 173 C -520 167 -517 170 -508 164 Z"/>
  <rect width="100" height="100" style="fill: rgb(57, 59, 194);" y="219" x="-330"/>
  <path style="fill: rgb(255, 255, 255);" d="M -304 292 L -300 254 L -289 240 L -270 238 L -258 253 L -254 289 L -304 292 Z"/>
  <path style="fill: rgb(52, 52, 52);" d="M -292 257 L -283 259 L -284 264 L -292 257 Z"/>
  <path style="fill: rgb(52, 52, 52); transform-origin: -269.852px 260.736px;" d="M -274 266 L -264 262 L -266 258 L -274 266 Z" transform="matrix(-1, 0, 0, -1, -0.000032, 0.00002)"/>
  <path style="fill: rgb(52, 52, 52);" d="M -293 267 L -295 276 L -278 278 L -262 274 L -265 266 L -269 274 L -273 268 L -276 275 L -280 268 L -284 275 L -287 268 L -290 273 L -293 267 Z"/>
  <path style="fill: rgb(218, 218, 218);" d="M -304 292 L -300 254 L -289 240 L -295 243 L -304 254 L -308 287 L -304 292 Z"/>
  <path style="fill: rgba(255, 255, 255, 0.133);" d="M -304 292 L -290 297 L -286 304 L -271 306 L -258 296 L -254 289 L -304 292 Z"/>
  <rect width="100" height="100" style="fill: rgb(57, 59, 194);" y="329" x="-330"/>
  <path style="fill: rgb(255, 255, 255);" d="M -262 384 L -295 384 L -287 371 L -270 366 L -262 384 Z"/>
  <path style="fill: rgb(218, 218, 218);" d="M -298 380 L -295 384 L -287 371 L -270 366 L -290 370 L -298 380 Z"/>
  <path style="fill: rgba(255, 255, 255, 0.133);" d="M -262 384 L -295 384 L -289 389 L -270 393 L -262 384 Z"/>
  <rect width="100" height="100" style="fill: rgb(57, 59, 194);" y="439" x="-330"/>
  <path style="fill: rgb(255, 255, 255);" d="M -255 489 L -297 498 L -292 484 L -283 473 L -266 475 L -255 489 Z"/>
  <path style="fill: rgb(218, 218, 218);" d="M -306 492 L -297 498 L -292 484 L -283 473 L -301 483 L -306 492 Z"/>
  <path style="fill: rgba(255, 255, 255, 0.133);" d="M -255 489 L -297 498 L -306 492 L -298 507 L -263 512 L -255 489 Z"/>
  <path d="M -139 40 C -140 48 -192 48 -191 40 C -191 33 -174 26 -161 27 C -148 28 -139 32 -139 40 Z" style="fill: rgb(216, 216, 216); transform-origin: -165px 36.6803px;"/>
  <path d="M -161 74 C -161 78 -165 82 -169 83 C -174 86 -180 87 -186 87 C -192 86 -198 84 -203 80 C -207 78 -208 74 -208 70 C -208 66 -205 62 -201 61 C -196 58 -190 58 -184 58 C -178 59 -172 60 -167 63 C -163 66 -161 70 -161 74 Z M -168 64 C -172 61 -178 60 -184 59 C -190 58 -196 59 -200 62 C -204 63 -207 66 -207 70 C -207 74 -205 77 -202 80 C -198 83 -192 85 -186 86 C -180 86 -174 85 -170 82 C -166 81 -162 78 -162 74 C -162 70 -164 67 -168 64 Z" style="fill: none; transform-origin: -184.5px 72.5px;"/>
  <path d="M -139 40 C -140 48 -192 48 -191 40 C -190 33 -169 41 -156 42 C -143 43 -138 32 -139 40 Z" style="fill: rgb(165, 165, 165); transform-origin: -165px 40.7226px;"/>
  <rect width="100" height="200" style="fill: rgb(97, 243, 143);" x="-660"/>
  <ellipse style="fill: rgba(0, 0, 0, 0.133);" cy="191" rx="39" ry="6" cx="-610"/>
  <path style="fill: rgb(168, 125, 74);" d="M -610 21 C -610 21 -622 85 -622 85 L -614 107 L -626 106 L -611 115 L -609 132 L -619 188 L -626 191 L -615 191 L -609 194 L -605 191 L -594 192 L -604 188 L -602 166 L -590 154 L -601 157 L -599 136 L -614 83 L -606 18 L -610 21 Z"/>
  <path style="fill: rgb(76, 189, 113); transform-origin: -610px 36.5288px;" d="M -561 40 C -572 14 -592 2 -610 3 C -628 2 -648 14 -659 40 C -651 35 -642 34 -636 32 C -640 40 -642 47 -642 60 C -633 47 -624 40 -616 34 C -612 44 -604 53 -598 70 C -595 60 -595 49 -598 42 C -592 45 -584 53 -578 60 C -578 47 -580 40 -584 32 C -578 34 -569 35 -561 40 Z"/>
  <path style="fill: rgb(87, 217, 129); transform-origin: -610px 36.5288px;" d="M -642 60 C -636 34 -624 28 -614 17 C -608 34 -596 41 -598 70 C -592 52 -593 38 -598 26 C -590 34 -581 41 -578 60 C -578 41 -584 28 -592 17 C -584 21 -574 28 -561 40 C -572 14 -592 2 -610 3 C -628 2 -648 14 -659 40 C -646 28 -636 21 -628 17 C -636 28 -642 41 -642 60 Z"/>
  <path style="fill: rgb(76, 189, 113); transform-origin: -631.631px 103.936px;" d="M -620 108 C -624 102 -632 97 -642 102 C -632 108 -630 111 -620 108 Z"/>
  <path style="fill: rgb(87, 217, 129); transform-origin: -631.631px 103.936px;" d="M -620 108 C -624 102 -632 97 -642 102 C -632 102 -630 108 -620 108 Z"/>
  <path style="fill: rgb(76, 189, 113); transform-origin: -582.667px 159.197px;" d="M -593 154 C -587 151 -578 154 -572 163 C -584 162 -589 163 -593 154 Z"/>
  <path style="fill: rgb(87, 217, 129); transform-origin: -582.667px 159.197px;" d="M -593 154 C -587 151 -578 154 -572 163 C -581 157 -584 160 -593 154 Z"/>
  <ellipse style="fill: rgba(0, 0, 0, 0.133);" cy="192" rx="18" ry="3" cx="-390"/>
  <path style="transform-origin: -390.255px 177.168px; fill: rgb(76, 189, 113);" d="M -376 168 C -378 179 -384 181 -388 186 C -391 179 -396 176 -394 162 C -398 171 -398 177 -395 182 C -399 179 -403 175 -404 166 C -404 175 -402 181 -398 186 C -402 184 -406 180 -412 175 C -407 187 -399 193 -391 193 C -383 193 -373 189 -368 177 C -374 182 -378 184 -382 186 C -378 181 -376 177 -376 168 Z"/>
  <ellipse style="fill: rgba(0, 0, 0, 0.133);" cy="94" rx="18" ry="3" cx="-170"/>
  <path d="M -185 89 C -184 97 -154 97 -154 89 C -154 82 -164 75 -172 76 C -180 77 -185 81 -185 89 Z" style="fill: rgb(216, 216, 216); transform-origin: -169.536px 85.6803px;"/>
  <path d="M -185 89 C -184 97 -154 97 -154 89 C -155 82 -167 90 -175 91 C -182 92 -185 81 -185 89 Z" style="fill: rgb(165, 165, 165); transform-origin: -169.536px 89.7226px;"/>
  <rect width="100" height="100" style="fill: rgb(243, 190, 83);" x="-110" y="-110"/>
  <rect width="100" height="100" style="fill: rgb(61, 102, 243);" x="-110" y="-220"/>
  <rect width="100" height="100" style="fill: rgb(97, 243, 143);"/>
  <ellipse style="fill: rgba(0, 0, 0, 0.133);" cy="85" rx="42" ry="7" cx="49"/>
  <path d="M 14 73 C 17 92 86 92 86 73 C 86 57 81 47 63 49 C 55 50 39 36 32 44 C 23 55 14 63 14 73 Z" style="fill: rgb(216, 216, 216); transform-origin: 50.4552px 49.8962px;"/>
  <path d="M 14 74 C 17 93 86 93 86 74 C 84 58 74 76 55 78 C 39 80 14 56 14 74 Z" style="fill: rgb(165, 165, 165); transform-origin: 50.4552px 76.2196px;"/>
  <rect width="100" height="100" style="fill: rgb(97, 243, 143);" x="-220" y="-110"/>
  <ellipse style="fill: rgba(0, 0, 0, 0.133);" cy="-25" rx="42" ry="7" cx="-171"/>
  <path d="M -206 -37 C -203 -18 -134 -18 -134 -37 C -134 -53 -139 -88 -157 -86 C -165 -85 -181 -99 -188 -91 C -197 -80 -206 -47 -206 -37 Z" style="fill: rgb(216, 216, 216); transform-origin: -169.545px -60.104px;"/>
  <path d="M -206 -36 C -203 -17 -134 -17 -134 -36 C -136 -52 -146 -34 -165 -32 C -181 -30 -206 -54 -206 -36 Z" style="fill: rgb(165, 165, 165); transform-origin: -169.545px -33.78px;"/>
</svg>