<?xml version="1.0" encoding="utf-8"?>
<svg viewBox="0 0 100 100" xmlns="http://www.w3.org/2000/svg">
  <defs/>
  <rect width="100" height="100" style="fill: rgb(97, 243, 143);" x="-220"/>
  <path style="fill: rgb(76, 189, 113);" d="M -197 84 L -196 69 L -195 84 L -197 84 Z"/>
  <path style="fill: rgb(76, 189, 113);" d="M -200 85 L -201 67 L -197 84 L -200 85 Z"/>
  <rect width="100" height="100" style="fill: rgb(203, 203, 203);" x="330" y="550"/>
  <path style="fill: rgb(255, 255, 255);" d="M 377 576 L 378 573 L 377 572 L 376 569 L 375 568 L 375 566 L 376 565 L 377 561 L 380 560 L 384 561 L 385 565 L 386 566 L 386 568 L 385 569 L 384 572 L 383 573 L 384 576 L 381 579 L 377 576 Z"/>
  <path style="fill: rgb(255, 255, 255);" d="M 391 580 L 400 591 L 401 606 L 406 611 L 401 609 L 399 612 L 399 606 L 397 593 L 390 587 L 391 580 Z"/>
  <path style="fill: rgb(52, 52, 52);" d="M 389 608 C 389 608 393 624 393 624 L 391 629 L 391 640 L 396 645 L 386 643 L 387 639 L 386 625 L 381 611 L 389 608 Z"/>
  <path style="fill: rgb(52, 52, 52); transform-origin: 373.493px 626.042px;" d="M 374 645 C 374 645 378 628 378 628 L 376 623 L 376 612 L 381 607 L 371 609 L 372 613 L 371 627 L 366 641 L 374 645 Z" transform="matrix(-1, 0, 0, -1, -0.000017, 0.000018)"/>
  <path style="fill: rgb(255, 255, 255); transform-origin: 362.993px 596.042px;" d="M 356 612 L 365 601 L 366 586 L 371 581 L 366 583 L 364 580 L 364 586 L 362 599 L 355 605 L 356 612 Z" transform="matrix(-1, 0, 0, -1, -0.000032, 0.000011)"/>
  <path style="fill: rgb(52, 52, 52);" d="M 377 576 L 381 579 L 384 576 L 391 580 L 388 599 L 389 608 L 381 611 L 373 607 L 374 599 L 370 580 L 377 576 Z"/>
  <path style="fill: rgb(76, 189, 113);" d="M -195 84 L -191 67 L -192 83 L -195 84 Z"/>
  <path style="fill: rgb(76, 189, 113);" d="M -174 20 C -183 17 -195 22 -201 37 C -185 29 -176 32 -174 20 Z"/>
  <path style="transform-origin: -157.309px 33.5452px; fill: rgb(76, 189, 113);" d="M -148 21 C -158 22 -167 31 -167 48 C -155 34 -145 33 -148 21 Z"/>
  <rect width="100" height="100" style="fill: rgb(203, 203, 203);" x="440" y="550"/>
  <path style="fill: rgb(52, 52, 52);" d="M 486 567 L 485 561 L 488 558 L 494 559 L 497 562 C 497 562 495 567 495 567 C 495 567 486 567 486 567 Z"/>
  <path style="fill: rgb(255, 255, 255);" d="M 487 576 L 488 573 L 487 572 L 486 569 L 485 568 L 485 566 L 486 565 L 487 561 L 490 560 L 494 561 L 495 565 L 496 566 L 496 568 L 495 569 L 494 572 L 493 573 L 494 576 L 491 579 L 487 576 Z"/>
  <path style="fill: rgb(52, 52, 52);" d="M 499 608 C 499 608 503 624 503 624 L 501 634 L 501 640 L 506 645 L 496 643 L 497 639 L 496 625 L 491 611 L 499 608 Z"/>
  <path style="fill: rgb(52, 52, 52); transform-origin: 483.493px 626.042px;" d="M 484 645 C 484 645 488 628 488 628 L 486 618 L 486 612 L 491 607 L 481 609 L 482 613 L 481 627 L 476 641 L 484 645 Z" transform="matrix(-1, 0, 0, -1, -0.000033, 0.000018)"/>
  <path style="fill: rgb(255, 255, 255); transform-origin: 472.993px 596.042px;" d="M 466 612 L 472 597 L 471 583 L 469 576 L 469 581 L 466 581 L 469 583 L 469 595 L 464 603 L 466 612 Z" transform="matrix(-1, 0, 0, -1, -0.000008, 0.000011)"/>
  <path style="fill: rgb(52, 52, 52);" d="M 487 576 L 491 579 L 494 576 L 501 580 L 498 599 L 499 608 L 491 611 L 483 607 L 484 599 L 480 580 L 487 576 Z"/>
  <path style="fill: rgb(255, 255, 255); transform-origin: 507.993px 596.042px;" d="M 501 580 L 507 595 L 507 609 L 505 616 L 505 611 L 502 611 L 505 609 L 504 597 L 499 589 L 501 580 Z"/>
  <rect width="100" height="100" style="fill: rgb(203, 203, 203);" x="550" y="550"/>
  <g transform="matrix(1, 0, 0, 1, 219.992874, 550.042175)">
    <path style="fill: rgb(52, 52, 52);" d="M 376 17 L 375 11 L 378 8 L 384 9 L 387 12 C 387 12 385 17 385 17 C 385 17 376 17 376 17 Z"/>
    <path style="fill: rgb(255, 255, 255);" d="M 377 26 L 378 23 L 377 22 L 376 19 L 375 18 L 375 16 L 376 15 L 377 11 L 380 10 L 384 11 L 385 15 L 386 16 L 386 18 L 385 19 L 384 22 L 383 23 L 384 26 L 381 29 L 377 26 Z"/>
    <path style="fill: rgb(52, 52, 52);" d="M 389 58 C 389 58 393 74 393 74 L 391 84 L 391 90 L 396 95 L 386 93 L 387 89 L 386 75 L 381 61 L 389 58 Z"/>
    <path style="fill: rgb(52, 52, 52); transform-origin: 373.5px 76px;" d="M 374 95 C 374 95 378 78 378 78 L 376 68 L 376 62 L 381 57 L 371 59 L 372 63 L 371 77 L 366 91 L 374 95 Z" transform="matrix(-1, 0, 0, -1, -0.000026, 0.000009)"/>
    <path style="fill: rgb(255, 255, 255); transform-origin: 363px 46px;" d="M 356 62 L 362 47 L 361 33 L 359 26 L 359 31 L 356 31 L 359 33 L 359 45 L 354 53 L 356 62 Z" transform="matrix(-1, 0, 0, -1, 0.000022, -0.000007)"/>
    <path style="fill: rgb(52, 52, 52);" d="M 377 26 L 381 29 L 384 26 L 391 30 L 388 49 L 389 58 L 381 61 L 373 57 L 374 49 L 370 30 L 377 26 Z"/>
    <path style="fill: rgb(255, 255, 255); transform-origin: 398px 46px;" d="M 391 30 L 397 45 L 397 59 L 395 66 L 395 61 L 392 61 L 395 59 L 394 47 L 389 39 L 391 30 Z"/>
    <path style="fill: rgb(52, 52, 52);" d="M 381 26 L 377 22 L 376 19 L 378 21 L 379 18 L 382 18 L 383 21 L 385 19 L 384 22 L 381 26 Z"/>
  </g>
  <rect width="100" height="100" style="fill: rgb(203, 203, 203);" x="770" y="550"/>
  <path style="fill: rgb(255, 255, 255);" d="M 855 594 L 856 597 L 869 576 L 865 578 L 855 594 Z"/>
  <path style="fill: rgb(52, 52, 52);" d="M 849 604 L 856 597 L 855 594 L 847 603 L 849 604 Z"/>
  <path style="fill: rgb(255, 255, 255);" d="M 815 574 L 816 570 L 815 569 L 814 566 L 813 565 L 813 563 L 814 561 L 815 557 L 818 556 L 823 557 L 824 561 L 825 563 L 825 565 L 824 566 L 823 569 L 822 570 L 823 574 L 815 574 Z"/>
  <path style="fill: rgb(52, 52, 52);" d="M 815 568 L 813 557 L 816 554 L 823 555 L 826 558 L 823 569 L 818 570 L 815 568 Z"/>
  <path style="fill: rgb(52, 52, 52);" d="M 828 609 L 832 626 L 831 644 L 826 643 L 825 627 L 820 612 L 828 609 Z"/>
  <path style="fill: rgb(52, 52, 52);" d="M 811 608 L 807 626 L 809 644 L 813 643 L 814 627 L 820 612 L 811 608 Z"/>
  <path style="fill: rgb(255, 255, 255); transform-origin: 799.784px 595.591px;" d="M 807 578 L 801 594 L 802 610 L 804 618 L 804 612 L 807 612 L 804 610 L 804 597 L 810 588 L 807 578 Z"/>
  <path style="fill: rgb(52, 52, 52);" d="M 815 574 L 823 574 L 831 578 L 827 599 L 828 609 L 820 612 L 811 608 L 812 599 L 807 578 L 815 574 Z"/>
  <path style="fill: rgb(255, 255, 255); transform-origin: 838.294px 595.591px;" d="M 831 578 L 837 593 L 848 597 L 853 596 L 855 599 L 852 603 L 847 600 L 834 597 L 828 588 L 831 578 Z"/>
  <rect width="100" height="100" style="fill: rgb(203, 203, 203);" y="550" x="220"/>
  <path style="fill: rgb(255, 255, 255);" d="M 267 577 L 264 563 L 271 558 L 277 563 L 274 577 L 281 581 L 278 600 L 279 609 L 271 612 L 263 608 C 263 608 264 600 264 600 L 260 581 L 267 577 Z"/>
  <path style="fill: rgb(255, 255, 255);" d="M 281 581 L 290 592 L 291 607 L 296 612 L 291 610 L 289 613 L 289 607 L 287 594 L 280 588 L 281 581 Z"/>
  <path style="fill: rgb(255, 255, 255);" d="M 279 609 C 279 609 283 625 283 625 L 281 630 L 281 641 L 286 646 L 276 644 L 277 640 L 276 626 L 271 612 L 279 609 Z"/>
  <path style="fill: rgb(255, 255, 255); transform-box: fill-box; transform-origin: 50% 50%;" d="M 264 646 C 264 646 268 629 268 629 L 266 624 L 266 613 L 271 608 L 261 610 L 262 614 L 261 628 L 256 642 L 264 646 Z" transform="matrix(-1, 0, 0, -1, 0.000002, -0.000015)"/>
  <path style="fill: rgb(255, 255, 255); transform-box: fill-box; transform-origin: 50% 50%;" d="M 246 613 L 255 602 L 256 587 L 261 582 L 256 584 L 254 581 L 254 587 L 252 600 L 245 606 L 246 613 Z" transform="matrix(-1, 0, 0, -1, -0.000003, 0.000019)"/>
  <path style="fill: rgb(255, 255, 255); transform-origin: 811.296px 637.331px;" d="M 806 629 L 808 643 L 805 643 L 804 645 L 809 647 L 814 647 L 815 631 L 806 629 Z"/>
  <path style="fill: rgb(255, 255, 255); transform-origin: 827.859px 637.049px;" d="M 834 629 L 831 643 L 834 643 L 835 645 L 830 647 L 825 647 L 824 631 L 834 629 Z"/>
  <rect width="100" height="100" style="fill: rgb(203, 203, 203);" y="660" x="770"/>
  <path style="fill: rgb(255, 255, 255);" d="M 855 704 L 856 707 L 869 686 L 865 688 L 855 704 Z"/>
  <path style="fill: rgb(52, 52, 52);" d="M 849 714 L 856 707 L 855 704 L 847 713 L 849 714 Z"/>
  <path style="fill: rgb(255, 255, 255);" d="M 815 684 L 816 680 L 815 679 L 814 676 L 813 675 L 813 673 L 814 671 L 815 667 L 818 666 L 823 667 L 824 671 L 825 673 L 825 675 L 824 676 L 823 679 L 822 680 L 823 684 L 815 684 Z"/>
  <path style="fill: rgb(52, 52, 52);" d="M 815 678 L 813 667 L 816 664 L 823 665 L 826 668 L 823 679 L 818 680 L 815 678 Z"/>
  <path style="fill: rgb(52, 52, 52);" d="M 828 719 L 832 736 L 831 754 L 836 755 L 825 757 L 826 753 L 825 737 L 820 722 L 828 719 Z"/>
  <path style="fill: rgb(52, 52, 52);" d="M 811 718 L 807 736 L 809 752 L 803 754 L 813 757 L 813 753 L 814 737 L 820 722 L 811 718 Z"/>
  <path style="fill: rgb(255, 255, 255); transform-origin: 799.784px 705.591px;" d="M 807 688 L 801 704 L 802 720 L 804 728 L 804 722 L 807 722 L 804 720 L 804 707 L 810 698 L 807 688 Z"/>
  <path style="fill: rgb(52, 52, 52);" d="M 815 684 L 823 684 L 831 688 L 827 709 L 828 719 L 820 722 L 811 718 L 812 709 L 807 688 L 815 684 Z"/>
  <path style="fill: rgb(255, 255, 255); transform-origin: 838.294px 705.591px;" d="M 831 688 L 837 703 L 848 707 L 853 706 L 855 709 L 852 713 L 847 710 L 834 707 L 828 698 L 831 688 Z"/>
  <rect width="100" height="100" style="fill: rgb(203, 203, 203);" x="880" y="550"/>
  <path style="fill: rgb(255, 255, 255);" d="M 965 594 L 966 597 L 979 576 L 975 578 L 965 594 Z"/>
  <path style="fill: rgb(52, 52, 52);" d="M 959 604 L 966 597 L 965 594 L 957 603 L 959 604 Z"/>
  <path style="fill: rgb(52, 52, 52);" d="M 925 574 L 926 570 L 925 569 L 924 566 L 923 565 L 923 563 L 924 561 L 925 557 L 928 556 L 933 557 L 934 561 L 935 563 L 935 565 L 934 566 L 933 569 L 932 570 L 933 574 L 925 574 Z"/>
  <path style="fill: rgb(52, 52, 52);" d="M 925 568 L 923 557 L 926 554 L 933 555 L 936 558 L 933 569 L 928 570 L 925 568 Z"/>
  <path style="fill: rgb(255, 255, 255);" d="M 938 609 L 942 626 L 941 644 L 936 643 L 935 627 L 930 612 L 938 609 Z"/>
  <path style="fill: rgb(255, 255, 255);" d="M 921 608 L 917 626 L 919 644 L 923 643 L 924 627 L 930 612 L 921 608 Z"/>
  <path style="fill: rgb(52, 52, 52); transform-origin: 909.784px 595.591px;" d="M 917 578 L 911 594 L 912 610 L 914 618 L 914 612 L 917 612 L 914 610 L 914 597 L 920 588 L 917 578 Z"/>
  <path style="fill: rgb(255, 255, 255);" d="M 925 574 L 933 574 L 941 578 L 937 599 L 938 609 L 930 612 L 921 608 L 922 599 L 917 578 L 925 574 Z"/>
  <path style="fill: rgb(52, 52, 52); transform-origin: 948.294px 595.591px;" d="M 941 578 L 947 593 L 958 597 L 963 596 L 965 599 L 962 603 L 957 600 L 944 597 L 938 588 L 941 578 Z"/>
  <path style="fill: rgb(52, 52, 52); transform-origin: 921.296px 637.331px;" d="M 916 629 L 918 643 L 915 643 L 914 645 L 919 647 L 924 647 L 925 631 L 916 629 Z"/>
  <path style="fill: rgb(52, 52, 52); transform-origin: 937.859px 637.049px;" d="M 944 629 L 941 643 L 944 643 L 945 645 L 940 647 L 935 647 L 934 631 L 944 629 Z"/>
  <rect width="100" height="100" style="fill: rgb(203, 203, 203);" x="220" y="-220"/>
  <rect width="100" height="100" style="fill: rgb(203, 203, 203);" x="660" y="550"/>
  <path style="fill: rgb(255, 255, 255);" d="M 738 595 L 739 597 L 751 578 L 747 580 L 738 595 Z"/>
  <path style="fill: rgb(52, 52, 52);" d="M 733 604 L 739 597 L 738 595 L 731 603 L 733 604 Z"/>
  <path style="fill: rgb(255, 255, 255);" d="M 702 576 L 703 573 L 702 572 L 701 569 L 700 568 L 700 566 L 701 565 L 702 561 L 705 560 L 709 561 L 710 565 L 711 566 L 711 568 L 710 569 L 709 572 L 708 573 L 709 576 L 702 576 Z"/>
  <path style="fill: rgb(52, 52, 52);" d="M 702 571 L 700 561 L 703 558 L 709 559 L 712 562 L 709 572 L 705 573 L 702 571 Z"/>
  <path style="fill: rgb(52, 52, 52);" d="M 714 608 L 717 624 L 716 640 L 721 641 L 711 643 L 712 639 L 711 625 L 706 611 L 714 608 Z"/>
  <path style="fill: rgb(52, 52, 52); transform-origin: 698.493px 626.042px;" d="M 698 607 L 695 624 L 696 640 L 691 641 L 700 643 L 700 639 L 701 625 L 706 611 L 698 607 Z"/>
  <path style="fill: rgb(255, 255, 255); transform-origin: 687.993px 596.042px;" d="M 695 580 L 689 595 L 690 609 L 692 616 L 692 611 L 695 611 L 692 609 L 692 597 L 697 589 L 695 580 Z"/>
  <path style="fill: rgb(52, 52, 52);" d="M 702 576 L 709 576 L 716 580 L 713 599 L 714 608 L 706 611 L 698 607 L 699 599 L 695 580 L 702 576 Z"/>
  <path style="fill: rgb(255, 255, 255); transform-origin: 722.993px 596.042px;" d="M 716 580 L 722 594 L 732 597 L 736 596 L 738 599 L 735 603 L 731 600 L 719 597 L 714 589 L 716 580 Z"/>
  <rect width="100" height="100" style="fill: rgb(203, 203, 203);" x="990" y="550"/>
  <path style="fill: rgb(255, 255, 255);" d="M 1075 594 L 1076 597 L 1089 576 L 1085 578 L 1075 594 Z"/>
  <path style="fill: rgb(52, 52, 52);" d="M 1069 604 L 1076 597 L 1075 594 L 1067 603 L 1069 604 Z"/>
  <path style="fill: rgb(255, 255, 255);" d="M 1035 574 L 1036 570 L 1035 569 L 1034 566 L 1033 565 L 1033 563 L 1034 561 L 1035 557 L 1038 556 L 1043 557 L 1044 561 L 1045 563 L 1045 565 L 1044 566 L 1043 569 L 1042 570 L 1043 574 L 1035 574 Z"/>
  <path style="fill: rgb(52, 52, 52);" d="M 1035 568 L 1033 557 L 1036 554 L 1043 555 L 1046 558 L 1043 569 L 1038 570 L 1035 568 Z"/>
  <path style="fill: rgb(52, 52, 52); transform-origin: 1019.78px 595.591px;" d="M 1027 578 L 1021 596 L 1022 610 L 1025 618 L 1025 613 L 1027 612 L 1024 609 L 1025 597 L 1030 588 L 1027 578 Z"/>
  <path style="fill: rgb(52, 52, 52); transform-origin: 1058.29px 595.591px;" d="M 1051 578 L 1057 593 L 1068 597 L 1073 596 L 1075 599 L 1072 603 L 1067 600 L 1054 597 L 1048 588 L 1051 578 Z"/>
  <path style="fill: rgb(52, 52, 52);" d="M 1054 629 L 1051 643 L 1054 643 L 1055 645 L 1050 647 L 1045 647 L 1044 631 L 1045 631 L 1045 627 L 1040 612 L 1034 627 L 1034 631 L 1035 631 L 1034 647 L 1029 647 L 1024 645 L 1025 643 L 1028 643 L 1026 629 L 1027 629 L 1027 626 L 1031 608 L 1032 601 L 1047 601 L 1049 609 L 1052 626 L 1052 629 L 1054 629 Z"/>
  <path style="fill: rgb(255, 255, 255);" d="M 1035 574 L 1043 574 L 1051 578 L 1047 601 L 1032 601 L 1027 578 L 1035 574 Z"/>
  <path style="fill: rgb(52, 52, 52);" d="M 1034 599 L 1031 599 L 1030 596 L 1032 592 L 1028 576 L 1033 573 L 1045 573 L 1050 576 L 1047 592 L 1049 596 L 1048 599 L 1045 598 L 1034 599 Z"/>
  <rect width="100" height="100" style="fill: rgb(203, 203, 203);" y="660" x="220"/>
  <path style="fill: rgb(255, 255, 255);" d="M 305 704 L 306 707 L 319 686 L 315 688 L 305 704 Z"/>
  <path style="fill: rgb(52, 52, 52);" d="M 299 714 L 306 707 L 305 704 L 297 713 L 299 714 Z"/>
  <path style="fill: rgb(52, 52, 52); transform-origin: 249.784px 705.591px;" d="M 257 688 L 251 706 L 252 720 L 255 728 L 255 723 L 257 722 L 254 719 L 255 707 L 260 698 L 257 688 Z"/>
  <path style="fill: rgb(52, 52, 52); transform-origin: 288.294px 705.591px;" d="M 281 688 L 287 703 L 298 707 L 303 706 L 305 709 L 302 713 L 297 710 L 284 707 L 278 698 L 281 688 Z"/>
  <path style="fill: rgb(52, 52, 52);" d="M 284 739 L 281 753 L 284 753 L 285 755 L 280 757 L 275 757 L 274 741 L 275 741 L 275 737 L 270 722 L 264 737 L 264 741 L 265 741 L 264 757 L 259 757 L 254 755 L 255 753 L 258 753 L 256 739 L 257 739 L 257 736 L 261 718 L 262 711 L 277 711 L 279 719 L 282 736 L 282 739 L 284 739 Z"/>
  <path style="fill: rgb(255, 255, 255);" d="M 281 688 L 277 711 L 262 711 L 257 688 L 265 684 L 266 679 L 272 678 L 273 684 L 281 688 Z"/>
  <path style="fill: rgb(52, 52, 52);" d="M 261 680 L 263 667 L 267 664 L 273 665 L 277 679 L 274 681 L 270 680 L 267 681 L 264 680 L 261 680 Z"/>
  <path style="fill: rgb(52, 52, 52);" d="M 264 709 L 260 710 L 259 706 L 262 702 L 258 686 L 261 682 L 277 683 L 280 686 L 277 702 L 280 706 L 279 710 L 275 708 L 264 709 Z"/>
  <path style="fill: rgb(52, 52, 52);" d="M 260 -192 L 259 -200 L 263 -214 L 271 -217 L 279 -215 L 283 -200 L 282 -191 L 297 -179 L 302 -151 L 300 -125 L 293 -121 L 295 -126 L 290 -126 L 294 -130 L 293 -146 L 287 -161 L 284 -150 L 287 -138 L 282 -128 L 282 -123 L 275 -122 L 275 -125 L 271 -125 L 275 -130 L 278 -137 L 270 -143 L 264 -138 L 265 -130 L 267 -124 L 264 -125 L 263 -122 L 255 -124 L 257 -128 L 252 -138 L 256 -150 L 254 -163 L 248 -146 L 253 -129 L 253 -123 L 250 -126 L 248 -121 L 243 -124 L 243 -130 L 237 -152 L 248 -180 L 260 -192 Z"/>
  <path style="fill: rgb(255, 255, 255);" d="M 266 -201 L 265 -199 L 270 -200 L 266 -201 Z"/>
  <path style="fill: rgb(255, 255, 255);" d="M 276 -201 L 272 -200 L 277 -199 L 276 -201 Z"/>
  <path style="fill: rgb(255, 255, 255);" d="M 266 -194 L 268 -195 L 269 -195 L 274 -194 L 276 -193 L 274 -195 L 268 -196 L 266 -194 Z"/>
  <rect width="100" height="100" style="fill: rgb(203, 203, 203);" x="330" y="660"/>
  <path style="fill: rgb(255, 255, 255);" d="M 411 705 L 412 708 L 425 687 L 421 689 L 411 705 Z"/>
  <path style="fill: rgb(52, 52, 52);" d="M 405 715 L 412 708 L 411 705 L 403 714 L 405 715 Z"/>
  <path style="fill: rgb(52, 52, 52); transform-origin: 359.784px 705.591px;" d="M 367 688 L 361 708 L 365 717 L 368 725 L 368 720 L 370 719 L 367 716 L 365 709 L 370 698 L 367 688 Z"/>
  <path style="fill: rgb(52, 52, 52); transform-origin: 398.294px 705.591px;" d="M 391 688 L 397 703 L 404 708 L 408 708 L 410 711 L 407 715 L 403 711 L 394 707 L 388 698 L 391 688 Z"/>
  <path style="fill: rgb(52, 52, 52);" d="M 396 732 L 393 746 L 396 746 L 397 748 L 392 750 L 387 750 L 386 734 L 387 734 L 387 730 L 380 724 L 374 737 L 374 741 L 375 741 L 374 757 L 369 757 L 364 755 L 365 753 L 368 753 L 366 739 L 367 739 L 367 736 L 371 718 L 372 711 L 387 711 L 389 718 L 394 729 L 394 732 L 396 732 Z"/>
  <path style="fill: rgb(255, 255, 255);" d="M 391 688 L 387 711 L 372 711 L 367 688 L 375 684 L 376 679 L 382 678 L 383 684 L 391 688 Z"/>
  <path style="fill: rgb(52, 52, 52);" d="M 372 680 L 374 667 L 378 664 L 384 665 L 388 679 L 385 681 L 381 680 L 378 681 L 375 680 L 372 680 Z"/>
  <path style="fill: rgb(52, 52, 52);" d="M 374 710 L 370 711 L 369 707 L 372 703 L 368 687 L 371 683 L 387 684 L 390 687 L 387 703 L 390 707 L 389 711 L 385 709 L 374 710 Z"/>
  <rect width="100" height="100" style="fill: rgb(203, 203, 203);" x="440" y="660"/>
  <path style="fill: rgb(255, 255, 255); transform-origin: 524.993px 688.542px;" d="M 520 697 L 521 700 L 529 677 L 526 680 L 520 697 Z"/>
  <path style="fill: rgb(52, 52, 52); transform-origin: 517.493px 703.042px;" d="M 517 709 L 521 700 L 520 697 L 515 707 L 517 709 Z"/>
  <path style="fill: rgb(52, 52, 52); transform-origin: 469.784px 705.591px;" d="M 477 688 L 471 707 L 472 721 L 475 729 L 475 724 L 477 723 L 474 720 L 475 708 L 480 698 L 477 688 Z"/>
  <path style="fill: rgb(52, 52, 52); transform-origin: 508.294px 705.591px;" d="M 501 688 L 506 702 L 514 702 L 518 700 L 521 702 L 519 707 L 514 705 L 503 707 L 498 698 L 501 688 Z"/>
  <path style="fill: rgb(52, 52, 52);" d="M 500 739 L 497 753 L 500 753 L 501 755 L 496 757 L 491 757 L 490 741 L 491 741 L 491 737 L 489 723 L 484 733 L 484 737 L 485 737 L 484 753 L 479 753 L 474 751 L 475 749 L 478 749 L 476 735 L 477 735 L 477 732 L 481 718 L 482 711 L 497 711 L 498 720 L 498 736 L 498 739 L 500 739 Z"/>
  <path style="fill: rgb(255, 255, 255);" d="M 501 688 L 497 711 L 482 711 L 477 688 L 485 684 L 486 679 L 492 678 L 493 684 L 501 688 Z"/>
  <path style="fill: rgb(52, 52, 52);" d="M 481 681 L 483 668 L 487 665 L 493 666 L 497 680 L 494 682 L 490 681 L 487 682 L 484 681 L 481 681 Z"/>
  <path style="fill: rgb(52, 52, 52);" d="M 484 709 L 480 710 L 479 706 L 482 702 L 478 686 L 481 682 L 497 683 L 500 686 L 497 702 L 500 706 L 499 710 L 495 708 L 484 709 Z"/>
  <rect width="100" height="100" style="fill: rgb(203, 203, 203);" y="770" x="220"/>
  <path style="fill: rgb(255, 255, 255);" d="M 305 817 L 306 820 L 319 799 L 315 801 L 305 817 Z"/>
  <path style="fill: rgb(52, 52, 52);" d="M 299 827 L 306 820 L 305 817 L 297 826 L 299 827 Z"/>
  <path style="fill: rgb(52, 52, 52); transform-origin: 249.784px 816.592px;" d="M 257 799 L 251 817 L 253 831 L 256 839 L 256 834 L 258 833 L 255 830 L 255 818 L 260 809 L 257 799 Z"/>
  <path style="fill: rgb(52, 52, 52); transform-origin: 288.294px 816.592px;" d="M 281 799 L 287 814 L 298 820 L 303 819 L 305 822 L 302 826 L 297 823 L 284 818 L 278 809 L 281 799 Z"/>
  <path style="fill: rgb(52, 52, 52);" d="M 284 849 L 281 863 L 284 863 L 285 865 L 280 867 L 275 867 L 274 851 L 275 851 L 275 847 L 270 832 L 264 847 L 264 851 L 265 851 L 264 867 L 259 867 L 254 865 L 255 863 L 258 863 L 256 849 L 257 849 L 257 846 L 261 828 L 262 822 L 277 822 L 279 829 L 282 846 L 282 849 L 284 849 Z"/>
  <path style="fill: rgb(255, 255, 255);" d="M 281 799 L 277 822 L 262 822 L 257 799 L 265 795 L 266 790 L 272 789 L 273 795 L 281 799 Z"/>
  <path style="fill: rgb(52, 52, 52);" d="M 261 791 L 263 778 L 267 775 L 273 776 L 277 790 L 274 792 L 270 791 L 267 792 L 264 791 L 261 791 Z"/>
  <path style="fill: rgb(52, 52, 52);" d="M 264 820 L 260 821 L 259 817 L 262 813 L 258 797 L 261 793 L 277 794 L 280 797 L 277 813 L 280 817 L 279 821 L 275 819 L 264 820 Z"/>
  <rect width="100" height="100" style="fill: rgb(203, 203, 203);" x="220" y="-110"/>
  <path style="fill: rgb(52, 52, 52);" d="M 260 -81 L 259 -89 L 263 -103 L 271 -106 L 279 -104 L 283 -89 L 282 -80 L 297 -68 L 303 -41 L 296 -17 L 289 -13 L 291 -18 L 286 -18 L 290 -22 L 294 -36 L 287 -51 L 284 -40 L 287 -28 L 282 -18 L 282 -13 L 275 -12 L 275 -15 L 271 -15 L 275 -20 L 278 -27 L 270 -33 L 264 -28 L 265 -20 L 267 -14 L 264 -15 L 263 -12 L 255 -14 L 257 -18 L 252 -28 L 256 -40 L 254 -53 L 248 -35 L 252 -20 L 252 -14 L 249 -17 L 247 -12 L 242 -15 L 242 -21 L 237 -41 L 248 -69 L 260 -81 Z"/>
  <path style="fill: rgb(255, 255, 255);" d="M 266 -90 L 265 -88 L 270 -89 L 266 -90 Z"/>
  <path style="fill: rgb(255, 255, 255);" d="M 276 -90 L 272 -89 L 277 -88 L 276 -90 Z"/>
  <path style="fill: rgb(255, 255, 255);" d="M 266 -83 L 268 -84 L 269 -84 L 274 -83 L 276 -82 L 274 -84 L 268 -85 L 266 -83 Z"/>
  <rect width="100" height="100" style="fill: rgb(203, 203, 203);" x="330" y="-220"/>
  <path style="fill: rgb(52, 52, 52);" d="M 369 -192 L 368 -200 L 372 -214 L 380 -217 L 388 -215 L 392 -200 L 391 -191 L 407 -179 L 415 -158 L 413 -132 L 406 -128 L 408 -133 L 403 -133 L 407 -137 L 406 -153 L 397 -161 L 394 -150 L 403 -140 L 400 -131 L 400 -126 L 393 -125 L 393 -128 L 389 -128 L 393 -133 L 389 -138 L 380 -143 L 374 -138 L 375 -130 L 377 -125 L 374 -125 L 373 -122 L 366 -123 L 367 -128 L 362 -138 L 366 -150 L 364 -163 L 355 -149 L 354 -128 L 357 -124 L 354 -124 L 354 -122 L 348 -122 L 344 -129 L 344 -155 L 358 -180 L 369 -192 Z"/>
  <path style="fill: rgb(255, 255, 255);" d="M 375 -201 L 374 -199 L 379 -200 L 375 -201 Z"/>
  <path style="fill: rgb(255, 255, 255);" d="M 385 -201 L 381 -200 L 386 -199 L 385 -201 Z"/>
  <path style="fill: rgb(255, 255, 255);" d="M 375 -194 L 377 -195 L 378 -195 L 383 -194 L 385 -193 L 383 -195 L 377 -196 L 375 -194 Z"/>
  <rect width="100" height="100" style="fill: rgb(203, 203, 203);" x="440" y="-220"/>
  <path style="fill: rgb(52, 52, 52);" d="M 481 -192 L 480 -200 L 484 -214 L 492 -217 L 500 -215 L 504 -200 L 503 -191 L 517 -179 L 525 -158 L 521 -137 L 514 -133 L 516 -138 L 511 -138 L 515 -142 L 516 -153 L 507 -161 L 504 -150 L 508 -138 L 506 -127 L 506 -122 L 499 -121 L 499 -124 L 495 -124 L 499 -129 L 497 -136 L 490 -143 L 488 -138 L 490 -131 L 492 -126 L 489 -126 L 488 -123 L 481 -124 L 482 -129 L 476 -138 L 476 -150 L 474 -163 L 466 -156 L 468 -141 L 468 -135 L 465 -138 L 463 -133 L 458 -136 L 458 -142 L 456 -161 L 468 -180 L 481 -192 Z"/>
  <path style="fill: rgb(255, 255, 255);" d="M 486 -201 L 485 -199 L 490 -200 L 486 -201 Z"/>
  <path style="fill: rgb(255, 255, 255);" d="M 496 -201 L 492 -200 L 497 -199 L 496 -201 Z"/>
  <path style="fill: rgb(255, 255, 255);" d="M 486 -194 L 488 -195 L 489 -195 L 494 -194 L 496 -193 L 494 -195 L 488 -196 L 486 -194 Z"/>
  <rect width="100" height="100" style="fill: rgb(203, 203, 203);" x="330" y="-110"/>
  <path style="fill: rgb(52, 52, 52);" d="M 369 -82 L 368 -90 L 372 -104 L 380 -107 L 388 -105 L 392 -90 L 391 -81 L 407 -69 L 415 -48 L 413 -22 L 406 -18 L 408 -23 L 403 -23 L 407 -27 L 406 -43 L 397 -51 L 394 -40 L 403 -30 L 400 -21 L 400 -16 L 393 -15 L 393 -18 L 389 -18 L 393 -23 L 389 -28 L 380 -33 L 374 -28 L 375 -20 L 377 -15 L 374 -15 L 373 -12 L 366 -13 L 367 -18 L 362 -28 L 366 -40 L 364 -53 L 355 -39 L 360 -22 L 360 -16 L 357 -19 L 355 -14 L 350 -17 L 350 -23 L 344 -45 L 358 -70 L 369 -82 Z"/>
  <path style="fill: rgb(255, 255, 255);" d="M 375 -91 L 374 -89 L 379 -90 L 375 -91 Z"/>
  <path style="fill: rgb(255, 255, 255);" d="M 385 -91 L 381 -90 L 386 -89 L 385 -91 Z"/>
  <path style="fill: rgb(255, 255, 255);" d="M 375 -84 L 377 -85 L 378 -85 L 383 -84 L 385 -83 L 383 -85 L 377 -86 L 375 -84 Z"/>
  <rect width="100" height="100" style="fill: rgb(203, 203, 203);" x="440" y="-110"/>
  <path style="fill: rgb(52, 52, 52);" d="M 481 -82 L 480 -90 L 484 -104 L 492 -107 L 500 -105 L 504 -90 L 503 -81 L 517 -69 L 525 -48 L 521 -27 L 514 -23 L 516 -28 L 511 -28 L 515 -32 L 516 -43 L 507 -51 L 504 -40 L 508 -28 L 506 -17 L 506 -12 L 499 -11 L 499 -14 L 495 -14 L 499 -19 L 497 -26 L 490 -33 L 488 -28 L 490 -21 L 492 -16 L 489 -16 L 488 -13 L 481 -14 L 482 -19 L 476 -28 L 476 -40 L 474 -53 L 466 -46 L 468 -31 L 468 -25 L 465 -28 L 463 -23 L 458 -26 L 458 -32 L 456 -51 L 468 -70 L 481 -82 Z"/>
  <path style="fill: rgb(255, 255, 255);" d="M 486 -91 L 485 -89 L 490 -90 L 486 -91 Z"/>
  <path style="fill: rgb(255, 255, 255);" d="M 496 -91 L 492 -90 L 497 -89 L 496 -91 Z"/>
  <path style="fill: rgb(255, 255, 255);" d="M 486 -84 L 488 -85 L 489 -85 L 494 -84 L 496 -83 L 494 -85 L 488 -86 L 486 -84 Z"/>
  <rect width="100" height="100" style="fill: rgb(203, 203, 203);" x="330" y="-330"/>
  <path style="fill: rgb(52, 52, 52);" d="M 369 -302 L 368 -310 L 372 -324 L 380 -327 L 388 -325 L 392 -310 L 391 -301 L 407 -289 L 414 -263 L 415 -233 L 407 -233 L 407 -237 L 404 -237 L 407 -241 L 405 -258 L 397 -271 L 396 -261 L 403 -251 L 401 -243 L 400 -238 L 393 -237 L 393 -240 L 389 -240 L 393 -245 L 387 -250 L 380 -251 L 374 -248 L 375 -240 L 377 -235 L 374 -235 L 373 -232 L 366 -233 L 367 -238 L 362 -248 L 366 -260 L 364 -273 L 357 -262 L 358 -246 L 358 -240 L 355 -243 L 353 -238 L 348 -241 L 348 -247 L 346 -268 L 358 -290 L 369 -302 Z"/>
  <path style="fill: rgb(255, 255, 255);" d="M 375 -311 L 374 -309 L 379 -310 L 375 -311 Z"/>
  <path style="fill: rgb(255, 255, 255);" d="M 385 -311 L 381 -310 L 386 -309 L 385 -311 Z"/>
  <path style="fill: rgb(255, 255, 255);" d="M 375 -304 L 377 -305 L 378 -305 L 383 -304 L 385 -303 L 383 -305 L 377 -306 L 375 -304 Z"/>
  <rect width="100" height="100" style="fill: rgb(203, 203, 203);" x="440" y="-330"/>
  <path style="fill: rgb(52, 52, 52);" d="M 481 -302 L 480 -310 L 484 -324 L 492 -327 L 500 -325 L 504 -310 L 503 -301 L 517 -289 L 525 -268 L 522 -243 L 515 -239 L 517 -244 L 512 -244 L 516 -248 L 516 -263 L 507 -271 L 504 -260 L 508 -248 L 505 -237 L 505 -232 L 498 -231 L 498 -234 L 494 -234 L 498 -239 L 497 -246 L 490 -253 L 490 -248 L 492 -241 L 494 -236 L 491 -236 L 490 -233 L 483 -234 L 484 -239 L 478 -248 L 476 -260 L 474 -273 L 469 -269 L 465 -254 L 465 -248 L 462 -251 L 460 -246 L 455 -249 L 455 -255 L 459 -274 L 468 -292 L 481 -302 Z"/>
  <path style="fill: rgb(255, 255, 255);" d="M 486 -311 L 485 -309 L 490 -310 L 486 -311 Z"/>
  <path style="fill: rgb(255, 255, 255);" d="M 496 -311 L 492 -310 L 497 -309 L 496 -311 Z"/>
  <path style="fill: rgb(255, 255, 255);" d="M 486 -304 L 488 -305 L 489 -305 L 494 -304 L 496 -303 L 494 -305 L 488 -306 L 486 -304 Z"/>
  <rect width="100" height="100" style="fill: rgb(203, 203, 203);" y="440" x="220"/>
  <path style="fill: rgb(52, 52, 52);" d="M 290 515 L 286 529 L 289 535 L 286 538 L 277 533 L 276 517 L 277 517 L 277 513 L 270 498 L 262 513 L 262 517 L 263 517 L 262 533 L 251 538 L 250 533 L 254 529 L 251 515 L 252 515 L 252 512 L 259 490 L 280 488 L 287 512 L 287 515 L 290 515 Z"/>
  <path style="fill: rgb(255, 255, 255);" d="M 285 465 L 280 488 L 259 490 L 253 466 L 263 461 L 275 461 L 285 465 Z"/>
  <path style="fill: rgb(52, 52, 52); transform-origin: 243.13px 483.591px;" d="M 253 466 L 245 484 L 248 498 L 252 506 L 252 501 L 255 500 L 250 497 L 250 485 L 257 476 L 253 466 Z"/>
  <path style="fill: rgb(52, 52, 52); transform-origin: 294.272px 482.591px;" d="M 285 465 L 293 483 L 290 497 L 286 505 L 286 500 L 283 499 L 288 496 L 288 484 L 281 475 L 285 465 Z"/>
  <path style="fill: rgb(52, 52, 52);" d="M 265 458 L 261 451 L 263 443 L 272 442 L 276 450 L 273 458 L 275 463 L 264 462 L 265 458 Z"/>
  <path style="transform-origin: -157.309px 33.5452px; fill: rgb(87, 217, 129);" d="M -148 21 C -158 22 -167 31 -167 48 C -163 31 -153 31 -148 21 Z"/>
  <path style="fill: rgb(87, 217, 129);" d="M -174 20 C -183 17 -195 22 -201 37 C -188 22 -178 27 -174 20 Z"/>
  <rect width="100" height="100" style="fill: rgb(97, 243, 143);" x="-220" y="-110"/>
  <path style="fill: rgb(76, 189, 113);" d="M -170 -94 C -179 -97 -191 -92 -197 -77 C -181 -85 -172 -82 -170 -94 Z"/>
  <path style="fill: rgb(87, 217, 129);" d="M -170 -94 C -179 -97 -191 -92 -197 -77 C -184 -92 -174 -87 -170 -94 Z"/>
  <path style="fill: rgb(76, 189, 113); transform-origin: -179.227px -81.7953px;" d="M -170 -94 C -180 -93 -189 -84 -189 -67 C -177 -81 -167 -82 -170 -94 Z"/>
  <path style="fill: rgb(87, 217, 129); transform-origin: -179.227px -81.7953px;" d="M -170 -94 C -180 -93 -189 -84 -189 -67 C -185 -84 -175 -84 -170 -94 Z"/>
  <path style="fill: rgb(76, 189, 113); transform-origin: -174.847px -78.6515px;" d="M -170 -94 C -179 -89 -184 -78 -179 -62 C -172 -79 -163 -83 -170 -94 Z"/>
  <path style="fill: rgb(87, 217, 129); transform-origin: -174.847px -78.6515px;" d="M -170 -94 C -179 -89 -184 -78 -179 -62 C -180 -79 -171 -82 -170 -94 Z"/>
  <path style="fill: rgb(76, 189, 113); transform-origin: -156.48px -86.5253px;" d="M -170 -94 C -161 -97 -149 -92 -143 -77 C -159 -85 -168 -82 -170 -94 Z"/>
  <path style="fill: rgb(87, 217, 129); transform-origin: -156.48px -86.5253px;" d="M -170 -94 C -161 -97 -149 -92 -143 -77 C -156 -92 -166 -87 -170 -94 Z"/>
  <path style="fill: rgb(76, 189, 113); transform-origin: -160.473px -81.6912px;" d="M -170 -94 C -160 -93 -151 -84 -151 -67 C -163 -81 -170 -82 -170 -94 Z"/>
  <path style="fill: rgb(87, 217, 129); transform-origin: -160.473px -81.6912px;" d="M -170 -94 C -160 -93 -151 -84 -151 -67 C -155 -84 -165 -84 -170 -94 Z"/>
  <path style="fill: rgb(87, 217, 129); transform-origin: -156.5px -30.9155px;" d="M -170 -23 C -161 -20 -149 -25 -143 -40 C -159 -32 -168 -35 -170 -23 Z"/>
  <path style="fill: rgb(76, 189, 113); transform-origin: -156.5px -30.9155px;" d="M -170 -23 C -161 -20 -149 -25 -143 -40 C -156 -25 -166 -30 -170 -23 Z"/>
  <path style="fill: rgb(87, 217, 129); transform-origin: -160.773px -35.0357px;" d="M -170 -23 C -160 -24 -151 -33 -151 -50 C -163 -36 -173 -35 -170 -23 Z"/>
  <path style="fill: rgb(76, 189, 113); transform-origin: -160.773px -35.0357px;" d="M -170 -23 C -160 -24 -151 -33 -151 -50 C -155 -33 -165 -33 -170 -23 Z"/>
  <path style="fill: rgb(87, 217, 129); transform-origin: -165.153px -39.1795px;" d="M -170 -23 C -161 -28 -156 -39 -161 -55 C -168 -38 -177 -34 -170 -23 Z"/>
  <path style="fill: rgb(76, 189, 113); transform-origin: -165.153px -39.1795px;" d="M -170 -23 C -161 -28 -156 -39 -161 -55 C -160 -38 -169 -35 -170 -23 Z"/>
  <path style="fill: rgb(87, 217, 129); transform-origin: -183.52px -30.3057px;" d="M -170 -23 C -179 -20 -191 -25 -197 -40 C -181 -32 -172 -35 -170 -23 Z"/>
  <path style="fill: rgb(76, 189, 113); transform-origin: -183.52px -30.3057px;" d="M -170 -23 C -179 -20 -191 -25 -197 -40 C -184 -25 -174 -30 -170 -23 Z"/>
  <path style="fill: rgb(87, 217, 129); transform-origin: -179.527px -35.1398px;" d="M -170 -23 C -180 -24 -189 -33 -189 -50 C -177 -36 -171 -37 -170 -23 Z"/>
  <path style="fill: rgb(76, 189, 113); transform-origin: -179.527px -35.1398px;" d="M -170 -23 C -180 -24 -189 -33 -189 -50 C -185 -33 -175 -33 -170 -23 Z"/>
  <rect width="100" height="100" style="fill: rgb(97, 243, 143);" x="-330" y="-110"/>
  <path style="fill: rgb(195, 145, 86);" d="M -279 -89 C -279 -89 -274 -59 -274 -59 L -284 -39 L -282 -27 L -289 -23 L -281 -25 L -282 -22 L -278 -26 L -269 -23 L -274 -26 L -278 -37 L -270 -60 L -277 -90 L -279 -89 Z"/>
  <path style="fill: rgb(76, 189, 113);" d="M -303 -76 C -298 -89 -288 -95 -279 -94 C -270 -95 -260 -89 -255 -76 C -259 -78 -263 -79 -266 -80 C -264 -76 -263 -72 -263 -66 C -268 -72 -272 -76 -276 -79 C -278 -74 -282 -69 -285 -61 C -287 -66 -287 -70 -287 -74 C -290 -72 -292 -69 -295 -66 C -295 -72 -294 -76 -292 -80 C -295 -79 -299 -78 -303 -76 Z"/>
  <path style="fill: rgb(87, 217, 129);" d="M -263 -66 C -266 -79 -272 -82 -277 -87 C -280 -79 -286 -75 -285 -61 C -288 -70 -287 -77 -285 -83 C -289 -79 -293 -75 -295 -66 C -295 -75 -292 -82 -288 -87 C -292 -85 -297 -82 -303 -76 C -298 -89 -288 -95 -279 -94 C -270 -95 -260 -89 -255 -76 C -261 -82 -266 -85 -270 -87 C -266 -82 -263 -75 -263 -66 Z"/>
  <path style="fill: rgb(76, 189, 113); transform-origin: -288.708px -39.5402px;" d="M -283 -38 C -285 -41 -289 -43 -294 -41 C -289 -38 -288 -36 -283 -38 Z"/>
  <path style="fill: rgb(76, 189, 113); transform-origin: -264.539px -61.6878px;" d="M -271 -60 C -269 -63 -265 -65 -259 -63 C -266 -59 -267 -57 -271 -60 Z"/>
  <path style="fill: rgb(76, 189, 113); transform-origin: -282.348px -52.6392px;" d="M -276 -52 C -278 -54 -281 -56 -287 -54 C -282 -51 -281 -49 -276 -52 Z"/>
  <path style="fill: rgb(87, 217, 129); transform-origin: -288.708px -39.5402px;" d="M -283 -38 C -285 -41 -289 -43 -294 -41 C -289 -41 -288 -38 -283 -38 Z"/>
  <path style="fill: rgb(87, 217, 129); transform-origin: -282.348px -52.6392px;" d="M -276 -52 C -278 -54 -281 -56 -287 -54 C -282 -54 -281 -52 -276 -52 Z"/>
  <path style="fill: rgb(87, 217, 129); transform-origin: -264.539px -61.6878px;" d="M -271 -60 C -269 -63 -265 -65 -259 -63 C -265 -63 -267 -59 -271 -60 Z"/>
  <path style="fill: rgb(76, 189, 113); transform-origin: -287.946px -35.1528px;" d="M -283 -38 C -286 -39 -290 -38 -293 -33 C -287 -34 -285 -33 -283 -38 Z"/>
  <path style="fill: rgb(87, 217, 129); transform-origin: -287.946px -35.1528px;" d="M -283 -38 C -286 -39 -290 -38 -293 -33 C -289 -36 -287 -35 -283 -38 Z"/>
  <rect width="100" height="200" style="fill: rgb(97, 243, 143);" x="-330"/>
  <ellipse style="fill: rgba(0, 0, 0, 0.133);" cy="191" rx="39" ry="6" cx="-280"/>
  <path style="fill: rgb(168, 125, 74);" d="M -280 68 C -280 68 -270 121 -270 121 L -290 161 L -286 188 L -292 192 L -284 190 L -284 194 L -278 190 L -266 193 L -271 188 L -278 166 L -262 119 L -276 65 L -280 68 Z"/>
  <path style="fill: rgb(76, 189, 113);" d="M -329 87 C -318 61 -298 49 -280 50 C -262 49 -242 61 -231 87 C -239 82 -248 81 -254 79 C -250 87 -248 94 -248 107 C -257 94 -266 87 -274 81 C -278 91 -286 100 -292 117 C -295 107 -295 96 -292 89 C -298 92 -306 100 -312 107 C -312 94 -310 87 -306 79 C -312 81 -321 82 -329 87 Z"/>
  <path style="fill: rgb(87, 217, 129);" d="M -248 107 C -254 81 -266 75 -276 64 C -282 81 -294 88 -292 117 C -298 99 -297 85 -292 73 C -300 81 -309 88 -312 107 C -312 88 -306 75 -298 64 C -306 68 -316 75 -329 87 C -318 61 -298 49 -280 50 C -262 49 -242 61 -231 87 C -244 75 -254 68 -262 64 C -254 75 -248 88 -248 107 Z"/>
  <path style="fill: rgb(76, 189, 113); transform-origin: -299.652px 160.419px;" d="M -288 164 C -292 158 -300 153 -310 158 C -300 164 -298 167 -288 164 Z"/>
  <path style="fill: rgb(76, 189, 113); transform-origin: -250.727px 115.586px;" d="M -263 119 C -260 113 -251 109 -239 113 C -254 121 -256 125 -263 119 Z"/>
  <path style="fill: rgb(76, 189, 113); transform-origin: -284.17px 134.733px;" d="M -274 136 C -277 132 -282 129 -292 132 C -284 137 -282 140 -274 136 Z"/>
  <path style="fill: rgb(87, 217, 129); transform-origin: -299.652px 160.419px;" d="M -288 164 C -292 158 -300 153 -310 158 C -300 158 -298 164 -288 164 Z"/>
  <path style="fill: rgb(87, 217, 129); transform-origin: -284.17px 134.733px;" d="M -274 136 C -277 132 -282 129 -292 132 C -284 132 -282 136 -274 136 Z"/>
  <path style="fill: rgb(87, 217, 129); transform-origin: -250.727px 115.586px;" d="M -263 119 C -260 113 -251 109 -239 113 C -251 113 -256 121 -263 119 Z"/>
  <path style="fill: rgb(76, 189, 113); transform-origin: -298.109px 169.299px;" d="M -288 164 C -294 161 -303 164 -309 173 C -297 172 -292 173 -288 164 Z"/>
  <path style="fill: rgb(87, 217, 129); transform-origin: -298.109px 169.299px;" d="M -288 164 C -294 161 -303 164 -309 173 C -300 167 -297 170 -288 164 Z"/>
  <rect width="100" height="100" style="fill: rgb(57, 59, 194);" y="-1" x="-660"/>
  <path style="fill: rgb(255, 255, 255);" d="M -592 54 L -625 54 L -617 41 L -600 36 L -592 54 Z"/>
  <path style="fill: rgb(218, 218, 218);" d="M -628 50 L -625 54 L -617 41 L -600 36 L -620 40 L -628 50 Z"/>
  <path style="fill: rgba(255, 255, 255, 0.133);" d="M -592 54 L -625 54 L -619 59 L -600 63 L -592 54 Z"/>
  <rect width="100" height="100" style="fill: rgb(57, 59, 194);" y="109" x="-660"/>
  <path style="fill: rgb(255, 255, 255);" d="M -585 159 L -627 168 L -622 154 L -613 143 L -596 145 L -585 159 Z"/>
  <path style="fill: rgb(218, 218, 218);" d="M -636 162 L -627 168 L -622 154 L -613 143 L -631 153 L -636 162 Z"/>
  <path style="fill: rgba(255, 255, 255, 0.133);" d="M -585 159 L -627 168 L -636 162 L -628 177 L -593 182 L -585 159 Z"/>
  <rect width="100" height="100" style="fill: rgb(97, 243, 143);" x="-110" y="-110"/>
  <ellipse style="fill: rgba(0, 0, 0, 0.133);" cy="-59" rx="13" ry="3" cx="-63"/>
  <path d="M -51 -36 C -51 -32 -55 -28 -59 -27 C -64 -24 -70 -23 -76 -23 C -82 -24 -88 -26 -93 -30 C -97 -32 -98 -36 -98 -40 C -98 -44 -95 -48 -91 -49 C -86 -52 -80 -52 -74 -52 C -68 -51 -62 -50 -57 -47 C -53 -44 -51 -40 -51 -36 Z M -58 -46 C -62 -49 -68 -50 -74 -51 C -80 -52 -86 -51 -90 -48 C -94 -47 -97 -44 -97 -40 C -97 -36 -95 -33 -92 -30 C -88 -27 -82 -25 -76 -24 C -70 -24 -64 -25 -60 -28 C -56 -29 -52 -32 -52 -36 C -52 -40 -54 -43 -58 -46 Z" style="fill: none; transform-origin: -74.5px -37.5px;"/>
  <rect width="100" height="200" style="fill: rgb(97, 243, 143);" x="-440"/>
  <ellipse style="fill: rgba(0, 0, 0, 0.133);" cy="191" rx="39" ry="6" cx="-390"/>
  <path style="fill: rgb(168, 125, 74);" d="M -390 21 C -390 21 -402 85 -402 85 L -394 107 L -406 106 L -391 115 L -389 132 L -399 188 L -406 191 L -395 191 L -389 194 L -385 191 L -374 192 L -384 188 L -382 166 L -370 154 L -381 157 L -379 136 L -394 83 L -386 18 L -390 21 Z"/>
  <path style="fill: rgb(76, 189, 113); transform-origin: -390px 36.5288px;" d="M -341 40 C -352 14 -372 2 -390 3 C -408 2 -428 14 -439 40 C -431 35 -422 34 -416 32 C -420 40 -422 47 -422 60 C -413 47 -404 40 -396 34 C -392 44 -384 53 -378 70 C -375 60 -375 49 -378 42 C -372 45 -364 53 -358 60 C -358 47 -360 40 -364 32 C -358 34 -349 35 -341 40 Z"/>
  <path style="fill: rgb(87, 217, 129); transform-origin: -390px 36.5288px;" d="M -422 60 C -416 34 -404 28 -394 17 C -388 34 -376 41 -378 70 C -372 52 -373 38 -378 26 C -370 34 -361 41 -358 60 C -358 41 -364 28 -372 17 C -364 21 -354 28 -341 40 C -352 14 -372 2 -390 3 C -408 2 -428 14 -439 40 C -426 28 -416 21 -408 17 C -416 28 -422 41 -422 60 Z"/>
  <path style="fill: rgb(76, 189, 113); transform-origin: -411.631px 103.936px;" d="M -400 108 C -404 102 -412 97 -422 102 C -412 108 -410 111 -400 108 Z"/>
  <path style="fill: rgb(87, 217, 129); transform-origin: -411.631px 103.936px;" d="M -400 108 C -404 102 -412 97 -422 102 C -412 102 -410 108 -400 108 Z"/>
  <path style="fill: rgb(76, 189, 113); transform-origin: -362.667px 159.197px;" d="M -373 154 C -367 151 -358 154 -352 163 C -364 162 -369 163 -373 154 Z"/>
  <path style="fill: rgb(87, 217, 129); transform-origin: -362.667px 159.197px;" d="M -373 154 C -367 151 -358 154 -352 163 C -361 157 -364 160 -373 154 Z"/>
  <ellipse style="fill: rgba(0, 0, 0, 0.133);" cy="82" rx="18" ry="3" cx="-150"/>
  <path style="fill: rgb(76, 189, 113); transform-origin: -150.255px 67.168px;" d="M -136 58 C -138 69 -144 71 -148 76 C -151 69 -156 66 -154 52 C -158 61 -158 67 -155 72 C -159 69 -163 65 -164 56 C -164 65 -162 71 -158 76 C -162 74 -166 70 -172 65 C -167 77 -159 83 -151 83 C -143 83 -133 79 -128 67 C -134 72 -138 74 -142 76 C -138 71 -136 67 -136 58 Z"/>
  <ellipse style="fill: rgba(0, 0, 0, 0.133);" cy="-17" rx="18" ry="3" cx="-60"/>
  <path d="M -75 -22 C -74 -14 -44 -14 -44 -22 C -44 -29 -54 -36 -62 -35 C -70 -34 -75 -30 -75 -22 Z" style="fill: rgb(204, 204, 204); transform-origin: -59.536px -25.3197px;"/>
  <path d="M -75 -22 C -74 -14 -44 -14 -44 -22 C -45 -29 -57 -21 -65 -20 C -72 -19 -75 -30 -75 -22 Z" style="transform-origin: -59.536px -21.2774px; fill: rgb(174, 174, 174);"/>
  <rect width="100" height="100" style="fill: rgb(97, 243, 143);" x="-110" y="330"/>
  <ellipse style="fill: rgba(0, 0, 0, 0.133);" cy="421" rx="47" ry="7" cx="-60"/>
  <path d="M -107 374 C -105 412 -66 412 -66 374 C -66 343 -76 341 -92 340 C -108 339 -107 353 -107 374 Z" style="fill: rgb(176, 176, 176); transform-origin: -85.2571px 327.256px;"/>
  <path d="M -107 376 C -105 415 -66 415 -66 376 C -77 371 -93 397 -107 376 Z" style="fill: rgb(166, 166, 166); transform-origin: -85.2571px 379.927px;"/>
  <path d="M -77 373 C -74 408 -14 408 -14 373 C -14 345 -21 333 -35 334 C -55 337 -77 355 -77 373 Z" style="fill: rgb(191, 191, 191); transform-origin: -44.8247px 331.948px;"/>
  <path d="M -77 375 C -74 409 -14 409 -14 375 C -31 370 -34 388 -77 375 Z" style="fill: rgb(176, 176, 176); transform-origin: -44.8247px 379.123px;"/>
  <path d="M -108 402 C -106 432 -52 432 -52 402 C -52 378 -79 358 -87 358 C -99 358 -108 387 -108 402 Z" style="fill: rgb(204, 204, 204); transform-origin: -80.1251px 367.067px;"/>
  <path d="M -108 402 C -106 432 -52 432 -52 402 C -95 423 -104 387 -108 402 Z" style="fill: rgb(191, 191, 191); transform-origin: -80.1251px 406.38px;"/>
  <path d="M -73 403 C -71 431 -13 431 -13 403 C -13 382 -16 361 -31 365 C -38 367 -53 346 -59 356 C -67 373 -73 389 -73 403 Z" style="fill: rgb(216, 216, 216); transform-origin: -43.147px 370.483px;"/>
  <path d="M -73 405 C -71 432 -13 432 -13 405 C -47 422 -47 394 -73 405 Z" style="fill: rgb(204, 204, 204); transform-origin: -43.147px 408.105px;"/>
  <rect width="100" height="100" style="fill: rgb(97, 243, 143);" x="-110" y="-220"/>
  <ellipse style="fill: rgba(0, 0, 0, 0.133);" cy="-135" rx="42" ry="7" cx="-61"/>
  <path d="M -96 -147 C -93 -128 -24 -128 -24 -147 C -24 -163 -29 -198 -47 -196 C -55 -195 -71 -209 -78 -201 C -87 -190 -96 -157 -96 -147 Z" style="fill: rgb(216, 216, 216); transform-origin: -59.545px -170.104px;"/>
  <path d="M -96 -146 C -93 -127 -24 -127 -24 -146 C -26 -162 -36 -144 -55 -142 C -71 -140 -96 -164 -96 -146 Z" style="fill: rgb(165, 165, 165); transform-origin: -59.545px -143.78px;"/>
  <rect width="100" height="100" style="fill: rgb(97, 243, 143);" x="-330" y="-220"/>
  <path style="fill: rgb(76, 189, 113);" d="M -270 -159 C -279 -162 -291 -157 -297 -142 C -281 -150 -272 -147 -270 -159 Z"/>
  <path style="fill: rgb(76, 189, 113); transform-origin: -279.227px -146.795px;" d="M -270 -159 C -280 -158 -289 -149 -289 -132 C -277 -146 -267 -147 -270 -159 Z"/>
  <path style="fill: rgb(76, 189, 113); transform-origin: -274.847px -143.651px;" d="M -270 -159 C -279 -154 -284 -143 -279 -127 C -272 -144 -263 -148 -270 -159 Z"/>
  <path style="fill: rgb(76, 189, 113); transform-origin: -256.48px -151.525px;" d="M -270 -159 C -261 -162 -249 -157 -243 -142 C -259 -150 -268 -147 -270 -159 Z"/>
  <path style="fill: rgb(76, 189, 113); transform-origin: -260.473px -146.691px;" d="M -270 -159 C -260 -158 -251 -149 -251 -132 C -263 -146 -270 -147 -270 -159 Z"/>
  <path style="fill: rgb(87, 217, 129);" d="M -257 -132 C -261 -149 -271 -149 -276 -159 C -267 -162 -255 -157 -249 -142 C -255 -148 -260 -151 -264 -153 C -260 -148 -257 -141 -257 -132 Z"/>
  <path style="fill: rgb(87, 217, 129);" d="M -297 -142 C -291 -157 -279 -162 -270 -159 C -271 -147 -280 -144 -279 -127 C -282 -136 -281 -143 -279 -149 C -283 -145 -287 -141 -289 -132 C -289 -141 -286 -148 -282 -153 C -286 -151 -291 -148 -297 -142 Z"/>
  <path style="fill: rgb(76, 189, 113);" d="M -282 -197 C -280 -193 -278 -188 -278 -182 C -281 -185 -285 -192 -287 -194 C -287 -190 -286 -182 -288 -177 C -290 -181 -290 -189 -293 -194 C -296 -190 -297 -181 -299 -177 C -301 -182 -300 -190 -300 -194 C -302 -192 -306 -185 -309 -182 C -309 -188 -305 -195 -303 -199 C -306 -198 -313 -194 -317 -192 C -312 -205 -302 -211 -293 -210 C -285 -211 -275 -205 -270 -192 C -274 -194 -279 -196 -282 -197 Z"/>
  <path style="fill: rgb(87, 217, 129);" d="M -317 -192 C -312 -205 -302 -211 -293 -210 C -285 -211 -275 -205 -270 -192 C -276 -198 -281 -201 -285 -203 C -281 -198 -278 -191 -278 -182 C -280 -191 -284 -195 -288 -199 C -286 -193 -285 -186 -288 -177 C -287 -188 -291 -192 -293 -197 C -296 -192 -300 -188 -299 -177 C -302 -186 -301 -193 -299 -199 C -303 -195 -307 -191 -309 -182 C -309 -191 -306 -198 -302 -203 C -306 -201 -311 -198 -317 -192 Z"/>
  <rect width="100" height="100" style="fill: rgb(203, 203, 203);" x="220"/>
  <ellipse style="fill: rgba(0, 0, 0, 0.133);" cy="94" rx="29" ry="5" cx="270"/>
  <path style="fill: rgb(52, 52, 52);" d="M 260 28 L 259 20 L 263 6 L 271 3 L 279 5 L 283 20 L 282 29 L 297 42 L 303 69 L 296 93 L 289 97 L 291 92 L 286 92 L 290 88 L 292 73 L 287 59 L 284 70 L 287 82 L 282 92 L 282 97 L 275 98 L 275 95 L 271 95 L 275 90 L 278 83 L 270 77 L 264 82 L 265 90 L 267 96 L 264 95 L 263 98 L 255 96 L 257 92 L 252 82 L 256 70 L 254 57 L 248 71 L 251 87 L 251 93 L 248 89 L 246 94 L 241 91 L 241 85 L 237 65 L 248 41 L 260 28 Z"/>
  <rect width="100" height="100" style="fill: rgb(203, 203, 203);" x="330"/>
  <ellipse style="fill: rgba(0, 0, 0, 0.133);" cy="94" rx="33" ry="5" cx="381"/>
  <path style="fill: rgb(52, 52, 52);" d="M 369 29 L 368 21 L 372 7 L 380 4 L 388 6 L 392 21 L 391 30 L 405 41 L 415 62 L 413 88 L 406 92 L 408 87 L 403 87 L 407 83 L 406 67 L 397 57 L 394 70 L 399 79 L 395 90 L 395 95 L 388 96 L 388 93 L 384 93 L 388 86 L 380 77 L 376 90 L 378 95 L 375 95 L 374 98 L 367 97 L 368 92 L 366 82 L 366 70 L 364 57 L 360 71 L 361 89 L 363 94 L 360 93 L 359 96 L 354 96 L 351 88 L 349 65 L 357 41 L 369 29 Z"/>
  <rect width="100" height="100" style="fill: rgb(203, 203, 203);" x="440"/>
  <ellipse style="fill: rgba(0, 0, 0, 0.133);" cy="94" rx="33" ry="5" cx="491"/>
  <path style="fill: rgb(52, 52, 52);" d="M 481 28 L 480 20 L 484 6 L 492 3 L 500 5 L 504 20 L 503 29 L 517 41 L 525 62 L 521 83 L 514 87 L 516 82 L 511 82 L 515 78 L 516 67 L 507 59 L 504 70 L 508 82 L 506 93 L 506 98 L 499 99 L 499 96 L 495 96 L 499 91 L 497 84 L 490 77 L 488 82 L 490 89 L 492 94 L 489 94 L 488 97 L 481 96 L 482 91 L 476 82 L 476 70 L 474 57 L 468 66 L 469 81 L 470 85 L 468 85 L 467 90 L 461 86 L 459 80 L 457 61 L 468 40 L 481 28 Z"/>
  <path style="fill: rgb(255, 255, 255);" d="M 266 20 L 265 23 L 270 21 L 266 20 Z"/>
  <path style="fill: rgb(255, 255, 255);" d="M 276 20 L 272 21 L 277 23 L 276 20 Z"/>
  <path style="fill: rgb(255, 255, 255);" d="M 266 27 L 270 26 L 273 27 L 276 29 L 274 26 L 268 25 L 266 27 Z"/>
  <path style="fill: rgb(255, 255, 255);" d="M 375 21 L 374 24 L 379 22 L 375 21 Z"/>
  <path style="fill: rgb(255, 255, 255);" d="M 385 21 L 381 22 L 386 24 L 385 21 Z"/>
  <path style="fill: rgb(255, 255, 255);" d="M 375 28 L 379 27 L 382 28 L 385 30 L 383 27 L 377 26 L 375 28 Z"/>
  <path style="fill: rgb(255, 255, 255);" d="M 486 20 L 485 23 L 490 21 L 486 20 Z"/>
  <path style="fill: rgb(255, 255, 255);" d="M 496 20 L 492 21 L 497 23 L 496 20 Z"/>
  <path style="fill: rgb(255, 255, 255);" d="M 486 27 L 490 26 L 493 27 L 496 29 L 494 26 L 488 25 L 486 27 Z"/>
  <rect width="100" height="100" style="fill: rgb(97, 243, 143);" y="-440" x="-110"/>
  <rect width="100" height="100" style="fill: rgb(203, 203, 203);" x="550" y="-110"/>
  <path style="fill: rgb(52, 52, 52);" d="M 590 -82 L 589 -90 L 593 -104 L 601 -107 L 609 -105 L 613 -90 L 612 -81 L 625 -76 L 637 -67 L 647 -50 L 644 -43 L 638 -42 L 640 -46 L 637 -47 L 640 -51 L 628 -59 L 617 -60 L 614 -40 L 617 -28 L 620 -18 L 624 -13 L 614 -12 L 614 -15 L 610 -15 L 613 -20 L 600 -33 L 589 -20 L 591 -14 L 588 -15 L 587 -12 L 579 -14 L 581 -18 L 582 -28 L 586 -40 L 583 -60 L 571 -60 L 562 -55 L 565 -50 L 560 -51 L 561 -46 L 557 -48 L 553 -55 L 565 -70 L 577 -77 L 590 -82 Z"/>
  <path style="fill: rgb(255, 255, 255);" d="M 594 -90 L 595 -86 L 600 -88 L 594 -90 Z"/>
  <path style="fill: rgb(255, 255, 255);" d="M 608 -90 L 602 -88 L 607 -86 L 608 -90 Z"/>
  <path style="fill: rgb(255, 255, 255);" d="M 596 -82 L 597 -79 L 598 -81 L 599 -78 L 602 -77 L 604 -80 L 605 -78 L 606 -80 L 604 -83 L 598 -84 L 596 -82 Z"/>
  <rect width="100" height="100" style="fill: rgb(203, 203, 203);" x="550" y="-220"/>
  <path style="fill: rgb(52, 52, 52);" d="M 590 -192 L 589 -200 L 593 -214 L 601 -217 L 609 -215 L 613 -200 L 612 -191 L 625 -185 L 639 -169 L 642 -152 L 639 -145 L 633 -144 L 635 -148 L 632 -149 L 635 -153 L 628 -165 L 617 -167 L 614 -150 L 617 -138 L 620 -128 L 624 -123 L 614 -122 L 614 -125 L 610 -125 L 613 -130 L 600 -143 L 589 -130 L 591 -124 L 588 -125 L 587 -122 L 579 -124 L 581 -128 L 582 -138 L 586 -150 L 584 -169 L 575 -164 L 572 -151 L 575 -146 L 570 -147 L 571 -142 L 567 -144 L 563 -151 L 565 -170 L 578 -185 L 590 -192 Z"/>
  <path style="fill: rgb(255, 255, 255);" d="M 594 -200 L 595 -196 L 600 -198 L 594 -200 Z"/>
  <path style="fill: rgb(255, 255, 255);" d="M 608 -200 L 602 -198 L 607 -196 L 608 -200 Z"/>
  <path style="fill: rgb(255, 255, 255);" d="M 596 -192 L 597 -189 L 598 -191 L 599 -188 L 602 -187 L 604 -190 L 605 -188 L 606 -190 L 604 -193 L 598 -194 L 596 -192 Z"/>
  <rect width="100" height="100" style="fill: rgb(203, 203, 203);" x="660" y="-110"/>
  <path style="fill: rgb(255, 255, 255);" d="M 683 -84 C 694 -82 714 -88 722 -97 C 721 -84 738 -69 749 -64 C 741 -58 730 -43 730 -35 C 722 -42 699 -46 688 -43 C 691 -56 690 -74 683 -84 Z"/>
  <path style="fill: rgb(255, 255, 255);" d="M 695 -28 L 700 -36 L 699 -27 L 707 -23 L 698 -23 L 697 -15 L 695 -23 L 686 -21 L 692 -25 L 687 -31 L 695 -28 Z"/>
  <rect width="100" height="100" style="fill: rgb(203, 203, 203);" x="550"/>
  <ellipse style="fill: rgba(0, 0, 0, 0.133);" cy="94" rx="33" ry="5" cx="591"/>
  <rect width="100" height="100" style="fill: rgb(203, 203, 203);" x="550" y="-330"/>
  <path style="fill: rgb(52, 52, 52);" d="M 590 -302 L 589 -310 L 593 -324 L 601 -327 L 609 -325 L 613 -310 L 612 -301 L 624 -292 L 633 -278 L 633 -255 L 630 -248 L 624 -247 L 626 -251 L 623 -252 L 626 -256 L 624 -270 L 617 -276 L 614 -260 L 617 -248 L 620 -238 L 624 -233 L 614 -232 L 614 -235 L 610 -235 L 613 -240 L 600 -253 L 589 -240 L 591 -234 L 588 -235 L 587 -232 L 579 -234 L 581 -238 L 582 -248 L 586 -260 L 583 -280 L 566 -294 L 558 -296 L 552 -305 L 553 -312 L 562 -307 L 565 -313 L 566 -304 L 580 -299 L 590 -302 Z"/>
  <path style="fill: rgb(255, 255, 255);" d="M 594 -310 L 595 -306 L 600 -308 L 594 -310 Z"/>
  <path style="fill: rgb(255, 255, 255);" d="M 608 -310 L 602 -308 L 607 -306 L 608 -310 Z"/>
  <path style="fill: rgb(255, 255, 255);" d="M 596 -302 L 597 -299 L 598 -301 L 599 -298 L 602 -297 L 604 -300 L 605 -298 L 606 -300 L 604 -303 L 598 -304 L 596 -302 Z"/>
  <path style="fill: rgb(52, 52, 52);" d="M 588 28 L 587 20 L 591 6 L 599 3 L 607 5 L 611 20 L 610 29 L 617 37 L 620 54 L 616 69 L 618 82 L 616 93 L 616 98 L 609 99 L 609 96 L 605 96 L 609 91 L 607 84 L 600 77 L 598 82 L 600 89 L 602 94 L 599 94 L 598 97 L 591 96 L 592 91 L 586 82 L 586 70 L 584 57 L 582 67 L 583 82 L 584 86 L 582 86 L 581 91 L 575 87 L 573 81 L 571 62 L 576 49 L 564 48 L 554 46 L 554 39 L 562 34 L 567 37 L 580 36 L 588 28 Z"/>
  <path style="fill: rgb(255, 255, 255);" d="M 590 19 L 591 23 L 596 21 L 590 19 Z"/>
  <path style="fill: rgb(255, 255, 255);" d="M 604 19 L 598 21 L 603 23 L 604 19 Z"/>
  <path style="fill: rgb(255, 255, 255);" d="M 592 27 L 596 27 L 602 29 L 600 26 L 594 25 L 592 27 Z"/>
  <ellipse style="fill: rgba(0, 0, 0, 0.133);" cy="-349" rx="47" ry="7" cx="-59"/>
  <path d="M -90 -416 C -88 -401 -23 -396 -22 -411 C -22 -418 -67 -421 -90 -416 Z" style="fill: rgb(176, 176, 176); transform-origin: -52.5983px -425.821px;"/>
  <path style="fill: rgb(216, 216, 216);" d="M -100 -350 L -96 -425 L -40 -411 L -16 -424 L -18 -350 C -34 -346 -80 -344 -100 -350 Z"/>
  <path d="M -94 -360 C -93 -352 -71 -349 -70 -357 C -79 -356 -85 -355 -94 -360 Z" style="fill: rgb(204, 204, 204); transform-origin: -83.3063px -367.611px;"/>
  <path d="M -67 -357 C -65 -349 -43 -351 -43 -359 C -51 -356 -59 -353 -67 -357 Z" style="fill: rgb(204, 204, 204); transform-origin: -56.3585px -366.199px;"/>
  <path d="M -22 -361 C -21 -353 -37 -350 -39 -357 C -32 -356 -27 -355 -22 -361 Z" style="fill: rgb(204, 204, 204); transform-origin: -30.3472px -367.588px;"/>
  <path d="M -92 -375 C -91 -367 -73 -364 -72 -372 C -81 -371 -83 -370 -92 -375 Z" style="fill: rgb(204, 204, 204); transform-origin: -85.3063px -382.611px;"/>
  <path d="M -69 -372 C -67 -364 -45 -366 -45 -374 C -53 -371 -61 -368 -69 -372 Z" style="fill: rgb(204, 204, 204); transform-origin: -58.3585px -381.199px;"/>
  <path d="M -21 -376 C -20 -368 -39 -365 -41 -372 C -34 -371 -26 -370 -21 -376 Z" style="fill: rgb(204, 204, 204); transform-origin: -32.3472px -382.588px;"/>
  <path d="M -92 -388 C -91 -380 -70 -379 -69 -387 C -78 -386 -83 -383 -92 -388 Z" style="fill: rgb(204, 204, 204); transform-origin: -82.3063px -397.611px;"/>
  <path d="M -66 -387 C -64 -379 -42 -381 -42 -389 C -50 -386 -58 -383 -66 -387 Z" style="fill: rgb(204, 204, 204); transform-origin: -55.3585px -396.199px;"/>
  <path d="M -22 -391 C -21 -383 -36 -380 -38 -387 C -31 -386 -27 -385 -22 -391 Z" style="fill: rgb(204, 204, 204); transform-origin: -29.3472px -397.588px;"/>
  <path d="M -92 -404 C -91 -396 -71 -394 -70 -402 C -79 -401 -83 -399 -92 -404 Z" style="fill: rgb(204, 204, 204); transform-origin: -83.3063px -412.611px;"/>
  <path d="M -67 -402 C -65 -394 -43 -394 -43 -402 C -51 -399 -59 -398 -67 -402 Z" style="fill: rgb(204, 204, 204); transform-origin: -56.3585px -411.199px;"/>
  <path d="M -19 -406 C -18 -398 -37 -394 -39 -401 C -32 -400 -24 -400 -19 -406 Z" style="fill: rgb(204, 204, 204); transform-origin: -30.3472px -412.588px;"/>
  <path d="M -93 -418 C -92 -410 -69 -404 -68 -412 C -77 -411 -84 -413 -93 -418 Z" style="fill: rgb(204, 204, 204); transform-origin: -81.3063px -425.611px;"/>
  <rect width="100" height="100" style="fill: rgb(97, 243, 143);" x="-110" y="-330"/>
  <ellipse style="fill: rgba(0, 0, 0, 0.133);" cy="-238" rx="37" ry="7" cx="-48"/>
  <ellipse style="fill: rgba(0, 0, 0, 0.133);" cy="-263" rx="37" ry="7" cx="-72"/>
  <ellipse style="fill: rgba(0, 0, 0, 0.133);" cy="-287" rx="32" ry="8" cx="-48"/>
  <ellipse style="fill: rgba(0, 0, 0, 0.133);" rx="21" ry="5" cx="-86" cy="-300"/>
  <path d="M -107 -310 C -105 -295 -66 -295 -66 -310 C -66 -322 -88 -329 -92 -323 C -98 -315 -107 -318 -107 -310 Z" style="fill: rgb(176, 176, 176); transform-origin: -85.2571px -328.141px;"/>
  <path d="M -107 -309 C -105 -294 -66 -294 -66 -309 C -77 -311 -93 -301 -107 -309 Z" style="fill: rgb(166, 166, 166); transform-origin: -85.2571px -307.558px;"/>
  <path d="M -80 -302 C -77 -279 -17 -279 -17 -302 C -17 -321 -24 -329 -38 -328 C -58 -326 -80 -314 -80 -302 Z" style="fill: rgb(191, 191, 191); transform-origin: -47.8247px -329.393px;"/>
  <path d="M -80 -301 C -77 -278 -17 -278 -17 -301 C -34 -304 -37 -292 -80 -301 Z" style="fill: rgb(176, 176, 176); transform-origin: -47.8247px -298.022px;"/>
  <path d="M -108 -275 C -105 -256 -36 -256 -36 -275 C -36 -291 -70 -304 -81 -304 C -96 -304 -108 -285 -108 -275 Z" style="fill: rgb(204, 204, 204); transform-origin: -71.9414px -298.092px;"/>
  <path d="M -108 -274 C -105 -255 -36 -255 -36 -274 C -91 -261 -103 -284 -108 -274 Z" style="fill: rgb(191, 191, 191); transform-origin: -71.9414px -271.769px;"/>
  <path d="M -84 -250 C -81 -231 -12 -231 -12 -250 C -12 -266 -16 -279 -34 -277 C -42 -276 -60 -291 -67 -283 C -76 -272 -84 -260 -84 -250 Z" style="fill: rgb(216, 216, 216); transform-origin: -47.9414px -273.092px;"/>
  <path d="M -84 -249 C -81 -230 -12 -230 -12 -249 C -53 -237 -52 -257 -84 -249 Z" style="fill: rgb(204, 204, 204); transform-origin: -47.9414px -246.769px;"/>
  <rect width="100" height="100" style="fill: rgb(97, 243, 143);" x="-110" y="440"/>
  <ellipse style="fill: rgba(0, 0, 0, 0.133);" cy="531" rx="47" ry="7" cx="-60"/>
  <path d="M -104 484 C -101 522 -52 522 -52 484 C -52 453 -64 451 -85 450 C -106 449 -104 463 -104 484 Z" style="fill: rgb(176, 176, 176); transform-origin: -76.5038px 437.256px;"/>
  <path d="M -77 483 C -74 518 -14 518 -14 483 C -14 455 -21 443 -35 444 C -55 447 -77 465 -77 483 Z" style="fill: rgb(191, 191, 191); transform-origin: -44.8247px 441.948px;"/>
  <path d="M -106 513 C -103 543 -22 543 -22 513 C -22 488 -62 468 -75 468 C -92 468 -106 498 -106 513 Z" style="fill: rgb(204, 204, 204); transform-origin: -63.949px 477.188px;"/>
  <path d="M -106 513 C -103 543 -22 543 -22 513 C -62 541 -76 489 -106 513 Z" style="fill: rgb(191, 191, 191); transform-origin: -64.1075px 517.026px;"/>
  <path d="M -73 513 C -71 541 -13 541 -13 513 C -13 492 -16 471 -31 475 C -38 477 -53 456 -59 466 C -67 483 -73 499 -73 513 Z" style="fill: rgb(216, 216, 216); transform-origin: -43.147px 480.483px;"/>
  <path d="M -73 515 C -71 542 -13 542 -13 515 C -47 532 -47 504 -73 515 Z" style="fill: rgb(204, 204, 204);"/>
  <rect width="100" height="100" style="fill: rgb(97, 243, 143);" y="550" x="-110"/>
  <ellipse style="fill: rgba(0, 0, 0, 0.133);" cy="641" rx="47" ry="7" cx="-60"/>
  <path d="M -94 629 C -90 648 -14 648 -14 629 C -14 613 -18 600 -38 602 C -47 603 -67 588 -75 596 C -85 607 -94 619 -94 629 Z" style="fill: rgb(176, 176, 176); transform-origin: -53.8471px 605.908px;"/>
  <path d="M -107 605 C -104 624 -31 624 -31 605 C -31 589 -67 576 -79 576 C -94 576 -107 595 -107 605 Z" style="fill: rgb(191, 191, 191); transform-origin: -69.1091px 581.908px;"/>
  <path d="M -104 572 C -102 586 -66 586 -66 572 C -66 561 -86 554 -90 560 C -96 567 -104 565 -104 572 Z" style="fill: rgb(216, 216, 216); transform-origin: -83.762px 555.063px;"/>
  <path d="M -104 573 C -102 587 -66 587 -66 573 C -76 571 -91 580 -104 573 Z" style="fill: rgb(204, 204, 204); transform-origin: -83.762px 574.222px;"/>
  <path d="M -78 578 C -75 601 -15 601 -15 578 C -15 559 -22 551 -36 552 C -56 554 -78 566 -78 578 Z" style="fill: rgb(204, 204, 204); transform-origin: -45.8247px 550.607px;"/>
  <path d="M -78 579 C -75 602 -15 602 -15 579 C -32 576 -35 588 -78 579 Z" style="fill: rgb(191, 191, 191); transform-origin: -45.8247px 581.978px;"/>
  <path d="M -107 606 C -104 625 -31 625 -31 606 C -89 619 -102 596 -107 606 Z" style="fill: rgb(176, 176, 176); transform-origin: -69.1091px 608.231px;"/>
  <path d="M -94 630 C -90 649 -14 649 -14 630 C -59 642 -58 622 -94 630 Z" style="fill: rgb(166, 166, 166); transform-origin: -53.8471px 632.231px;"/>
  <rect width="100" height="100" style="fill: rgb(97, 243, 143);" x="-110" y="110"/>
  <ellipse style="fill: rgba(0, 0, 0, 0.133);" cy="200" rx="47" ry="7" cx="-60"/>
  <path d="M -94 188 C -90 207 -19 207 -19 188 C -19 172 -23 159 -41 161 C -50 162 -69 147 -76 155 C -86 166 -94 178 -94 188 Z" style="fill: rgb(204, 204, 204); transform-origin: -56.315px 164.908px;"/>
  <path d="M -105 164 C -103 183 -15 183 -15 164 C -15 148 -58 135 -72 135 C -90 135 -105 154 -105 164 Z" style="fill: rgb(204, 204, 204); transform-origin: -60.3304px 140.908px;"/>
  <path d="M -98 138 C -94 160 -15 160 -15 138 C -15 121 -24 114 -43 115 C -69 116 -98 127 -98 138 Z" style="fill: rgb(204, 204, 204); transform-origin: -55.743px 112.874px;"/>
  <path d="M -98 139 C -94 160 -15 160 -15 139 C -38 136 -41 148 -98 139 Z" style="fill: rgb(191, 191, 191); transform-origin: -55.743px 142.006px;"/>
  <path d="M -105 165 C -103 184 -15 184 -15 165 C -85 178 -100 155 -105 165 Z" style="fill: rgb(191, 191, 191); transform-origin: -60.3304px 167.231px;"/>
  <path d="M -94 189 C -90 208 -19 208 -19 189 C -61 201 -60 181 -94 189 Z" style="fill: rgb(191, 191, 191); transform-origin: -56.315px 191.231px;"/>
  <rect width="100" height="100" style="fill: rgb(97, 243, 143);" x="-110" y="220"/>
  <ellipse style="fill: rgba(0, 0, 0, 0.133);" cy="310" rx="47" ry="7" cx="-60"/>
  <path d="M -94 298 C -90 317 -14 317 -14 298 C -14 282 -18 269 -38 271 C -47 272 -67 257 -75 265 C -85 276 -94 288 -94 298 Z" style="fill: rgb(204, 204, 204); transform-origin: -53.847px 274.908px;"/>
  <path d="M -107 274 C -104 293 -31 293 -31 274 C -31 258 -67 245 -79 245 C -94 245 -107 264 -107 274 Z" style="fill: rgb(204, 204, 204); transform-origin: -69.109px 250.908px;"/>
  <path d="M -98 248 C -94 270 -15 270 -15 248 C -15 231 -24 224 -43 225 C -69 226 -98 237 -98 248 Z" style="fill: rgb(204, 204, 204); transform-origin: -55.743px 222.874px;"/>
  <path d="M -98 249 C -94 270 -15 270 -15 249 C -38 246 -41 258 -98 249 Z" style="fill: rgb(191, 191, 191); transform-origin: -55.743px 252.006px;"/>
  <path d="M -107 275 C -104 294 -31 294 -31 275 C -89 288 -102 265 -107 275 Z" style="fill: rgb(191, 191, 191); transform-origin: -69.109px 277.231px;"/>
  <path d="M -94 299 C -90 318 -14 318 -14 299 C -59 311 -58 291 -94 299 Z" style="fill: rgb(191, 191, 191); transform-origin: -53.847px 301.231px;"/>
  <rect width="100" height="100" style="fill: rgb(97, 243, 143);" x="-110"/>
  <ellipse style="fill: rgba(0, 0, 0, 0.133);" cy="90" rx="47" ry="7" cx="-60"/>
  <path d="M -94 78 C -90 97 -19 97 -19 78 C -19 62 -23 49 -41 51 C -50 52 -69 37 -76 45 C -86 56 -94 68 -94 78 Z" style="fill: rgb(204, 204, 204); transform-origin: -56.315px 54.908px;"/>
  <path d="M -105 54 C -103 73 -15 73 -15 54 C -15 38 -58 25 -72 25 C -90 25 -105 44 -105 54 Z" style="fill: rgb(204, 204, 204); transform-origin: -60.3304px 30.908px;"/>
  <path d="M -98 28 C -94 50 -15 50 -15 28 C -15 11 -24 4 -43 5 C -69 6 -98 17 -98 28 Z" style="fill: rgb(204, 204, 204); transform-origin: -55.743px 2.87441px;"/>
  <path d="M -98 29 C -94 50 -15 50 -15 29 C -38 26 -41 38 -98 29 Z" style="fill: rgb(174, 174, 174); transform-origin: -55.743px 32.0058px;"/>
  <path d="M -105 55 C -103 74 -15 74 -15 55 C -85 68 -100 45 -105 55 Z" style="fill: rgb(174, 174, 174); transform-origin: -60.3304px 57.231px;"/>
  <path d="M -94 79 C -90 98 -19 98 -19 79 C -61 91 -60 71 -94 79 Z" style="fill: rgb(174, 174, 174); transform-origin: -56.315px 81.231px;"/>
  <rect width="100" height="100" style="fill: rgb(97, 243, 143);" x="-220" y="110"/>
  <ellipse style="fill: rgb(87, 217, 129);" cx="-187" cy="143" rx="12" ry="4"/>
  <ellipse style="fill: rgb(87, 217, 129);" cx="-153" cy="156" rx="9" ry="3"/>
  <ellipse style="fill: rgb(87, 217, 129);" cx="-181" cy="170" rx="12" ry="4"/>
  <ellipse style="fill: rgb(87, 217, 129);" cx="-164" cy="186" rx="9" ry="3"/>
  <ellipse style="fill: rgb(87, 217, 129);" cx="-157" cy="130" rx="12" ry="4"/>
  <rect width="100" height="100" style="fill: rgb(97, 243, 143);" x="-220" y="220"/>
  <ellipse style="fill: rgb(87, 217, 129);" cx="-198" cy="262" rx="12" ry="4"/>
  <ellipse style="fill: rgb(87, 217, 129);" cx="-145" cy="256" rx="9" ry="3"/>
  <ellipse style="fill: rgb(87, 217, 129);" cx="-164" cy="279" rx="12" ry="4"/>
  <ellipse style="fill: rgb(87, 217, 129);" cx="-187" cy="301" rx="9" ry="3"/>
  <ellipse style="fill: rgb(87, 217, 129);" cx="-166" cy="240" rx="12" ry="4"/>
  <rect width="100" height="100" style="fill: rgb(143, 107, 63);" y="330" x="-220"/>
  <rect width="100" height="100" style="fill: rgb(203, 203, 203);" x="770" y="-110"/>
  <path style="fill: rgb(255, 255, 255);" d="M 817 -64 L 827 -79 L 825 -63 L 840 -55 L 824 -55 L 821 -40 L 817 -55 L 801 -51 L 812 -59 L 802 -70 L 817 -64 Z"/>
  <rect width="100" height="100" style="fill: rgb(243, 190, 83);" x="-220" y="440"/>
  <path d="M -220 477 C -220 477 -170 495 -120 477 L -120 540 L -220 540 L -220 477 Z" style="fill: rgb(143, 107, 63);"/>
  <ellipse style="fill: rgb(107, 80, 47);" cx="-193" cy="381" rx="8" ry="3"/>
  <ellipse style="fill: rgb(107, 80, 47);" cx="-146" cy="377" rx="6" ry="2"/>
  <ellipse style="fill: rgb(107, 80, 47);" cx="-162" cy="392" rx="8" ry="3"/>
  <ellipse style="fill: rgb(107, 80, 47);" cx="-183" cy="413" rx="6" ry="2"/>
  <ellipse style="fill: rgb(107, 80, 47);" cx="-163" cy="356" rx="8" ry="3"/>
  <ellipse style="fill: rgb(107, 80, 47);" cx="-198" cy="508" rx="8" ry="3"/>
  <ellipse style="fill: rgb(107, 80, 47);" cx="-162" cy="529" rx="6" ry="2"/>
  <rect width="100" height="100" style="fill: rgb(243, 190, 83);" x="-330" y="440"/>
  <path style="fill: rgb(212, 165, 71);" d="M -322 475 C -285 473 -272 454 -245 460 C -268 463 -295 482 -322 475 Z"/>
  <path style="fill: rgb(212, 165, 71);" d="M -307 493 C -277 503 -274 488 -235 492 C -263 495 -279 511 -307 493 Z"/>
  <path style="fill: rgb(212, 165, 71);" d="M -322 519 C -303 526 -279 518 -266 527 C -289 519 -297 537 -322 519 Z"/>
  <path style="fill: rgb(212, 165, 71); transform-origin: -171.766px 451.531px;" d="M -211 453 C -174 457 -158 440 -132 450 C -155 449 -185 464 -211 453 Z"/>
  <path style="fill: rgb(212, 165, 71); transform-origin: -169.475px 467.677px;" d="M -203 463 C -173 472 -152 458 -132 470 C -151 465 -182 475 -203 463 Z"/>
  <rect width="100" height="100" style="fill: rgb(243, 190, 83);" x="-440" y="440"/>
  <path d="M -440 439 L -340 439 L -340 492 C -350 496 -369 500 -389 492 C -408 484 -427 483 -440 492 L -440 439 Z" style="fill: rgb(80, 117, 228);"/>
  <rect width="100" height="100" style="fill: rgb(80, 117, 228);" y="219" x="-550"/>
  <path style="fill: rgba(255, 255, 255, 0.133);" d="M -460 273 L -542 274 L -513 312 L -460 273 Z"/>
  <path style="fill: rgb(255, 255, 255);" d="M -460 273 L -511 295 L -505 240 L -460 273 Z"/>
  <path style="fill: rgb(218, 218, 218);" d="M -542 274 L -511 295 L -505 240 L -542 274 Z"/>
  <rect width="100" height="100" style="fill: rgb(80, 117, 228);" y="109" x="-550"/>
  <path style="fill: rgba(255, 255, 255, 0.133);" d="M -531 174 L -545 148 L -456 142 L -466 171 L -456 172 L -461 200 L -515 204 L -526 182 L -525 175 L -531 174 Z"/>
  <path style="fill: rgb(255, 255, 255);" d="M -456 142 L -529 158 L -520 134 L -505 115 L -475 118 L -456 142 Z"/>
  <path style="fill: rgb(218, 218, 218);" d="M -545 148 L -529 158 L -520 134 L -505 115 L -536 132 L -545 148 Z"/>
  <path style="fill: rgb(255, 255, 255);" d="M -467 192 L -511 187 L -490 141 L -456 172 L -467 192 Z"/>
  <path style="fill: rgb(218, 218, 218);" d="M -523 164 L -511 187 L -490 141 L -523 164 Z"/>
  <rect width="100" height="100" style="fill: rgb(80, 117, 228);" y="-1" x="-550"/>
  <path style="fill: rgb(255, 255, 255);" d="M -530 76 L -525 29 L -511 11 L -487 9 L -472 27 L -467 72 L -530 76 Z"/>
  <path style="fill: rgb(218, 218, 218);" d="M -515 32 L -503 35 L -505 41 L -515 32 Z"/>
  <path style="fill: rgb(218, 218, 218); transform-origin: -487.072px 36.9271px;" d="M -492 44 L -480 39 L -482 34 L -492 44 Z" transform="matrix(-1, 0, 0, -1, -0.000011, 0.000025)"/>
  <path style="fill: rgb(218, 218, 218);" d="M -516 45 L -518 56 L -497 58 L -477 53 L -481 44 L -486 53 L -491 46 L -495 55 L -500 46 L -505 55 L -508 46 L -512 52 L -516 45 Z"/>
  <path style="fill: rgb(218, 218, 218);" d="M -530 76 L -525 29 L -511 11 L -522 16 L -533 29 L -538 66 L -530 76 Z"/>
  <path style="fill: rgba(255, 255, 255, 0.133);" d="M -538 66 L -529 85 L -496 91 L -472 82 L -467 72 L -538 66 Z"/>
  <path style="fill: rgb(212, 165, 71); transform-origin: -390.803px 519.509px;" d="M -356 521 C -389 514 -404 530 -426 518 C -406 520 -378 508 -356 521 Z"/>
  <path style="fill: rgba(255, 255, 255, 0.133);" d="M -428 472 C -398 462 -388 484 -349 480 C -377 477 -400 454 -428 472 Z"/>
  <path style="fill: rgba(255, 255, 255, 0.133);" d="M -407 454 C -385 447 -377 463 -348 460 C -369 458 -386 441 -407 454 Z"/>
  <rect width="100" height="100" style="fill: rgb(80, 117, 228);" y="439" x="-550"/>
  <path style="fill: rgba(255, 255, 255, 0.133); transform-origin: -492.5px 466.779px;" d="M -524 458 C -498 456 -494 476 -463 481 C -484 472 -498 449 -524 458 Z"/>
  <path style="fill: rgba(255, 255, 255, 0.133); transform-origin: -507.479px 501.599px;" d="M -537 485 C -511 483 -512 512 -481 517 C -502 508 -511 476 -537 485 Z"/>
  <rect width="100" height="100" style="fill: rgb(203, 203, 203);" y="440" x="550"/>
  <path style="fill: rgb(52, 52, 52); transform-origin: 573.13px 486.591px;" d="M 585 470 L 575 486 L 576 503 L 580 509 L 580 504 L 583 503 L 579 500 L 582 487 L 588 480 L 585 470 Z"/>
  <path style="fill: rgb(52, 52, 52); transform-origin: 624.272px 485.591px;" d="M 611 469 L 622 483 L 622 502 L 618 509 L 618 504 L 615 502 L 619 499 L 615 486 L 609 478 L 611 469 Z"/>
  <path style="fill: rgb(52, 52, 52);" d="M 616 516 L 613 529 L 617 536 L 614 538 L 606 532 L 604 517 L 605 517 L 605 513 L 600 503 L 595 513 L 595 517 L 596 517 L 595 533 L 586 537 L 583 535 L 589 529 L 585 516 L 587 516 L 586 513 L 589 495 L 610 493 L 615 512 L 614 516 L 616 516 Z"/>
  <path style="fill: rgb(52, 52, 52);" d="M 593 463 L 592 459 C 590 459 585 452 590 452 C 588 441 605 443 604 451 C 609 451 604 459 603 459 L 601 463 L 604 470 L 592 470 L 593 463 Z"/>
  <path style="fill: rgb(255, 255, 255);" d="M 611 467 L 619 478 L 613 484 L 610 481 L 610 493 L 589 495 L 587 482 L 584 486 L 578 479 L 584 469 L 591 465 L 598 468 L 604 464 L 611 467 Z"/>
  <rect width="100" height="100" style="fill: rgb(203, 203, 203);" y="440" x="550"/>
  <path style="fill: rgb(52, 52, 52); transform-origin: 573.13px 486.591px;" d="M 585 470 L 575 486 L 576 503 L 580 509 L 580 504 L 583 503 L 579 500 L 582 487 L 588 480 L 585 470 Z"/>
  <path style="fill: rgb(52, 52, 52); transform-origin: 624.272px 485.591px;" d="M 611 469 L 622 483 L 622 502 L 618 509 L 618 504 L 615 502 L 619 499 L 615 486 L 609 478 L 611 469 Z"/>
  <path style="fill: rgb(52, 52, 52);" d="M 593 462 L 592 458 C 590 458 585 451 590 451 C 588 440 605 442 604 450 C 609 450 604 458 603 458 L 601 462 L 605 466 L 600 488 L 591 467 L 593 462 Z"/>
  <path style="fill: rgb(255, 255, 255);" d="M 611 467 L 619 478 L 614 486 L 610 481 L 612 492 L 610 495 L 589 497 L 587 495 L 587 482 L 584 486 L 578 479 L 584 469 L 591 465 L 599 476 L 604 464 L 611 467 Z"/>
  <path style="fill: rgb(52, 52, 52);" d="M 616 517 L 613 529 L 617 536 L 614 538 L 606 532 L 604 518 L 605 518 L 605 514 L 600 503 L 595 514 L 595 518 L 596 518 L 595 533 L 586 537 L 583 535 L 589 529 L 585 517 L 587 517 L 586 514 L 589 497 L 592 496 L 587 467 L 589 466 L 595 496 L 605 495 L 607 465 L 609 466 L 607 495 L 610 495 L 615 513 L 614 517 L 616 517 Z"/>
  <rect width="100" height="100" style="fill: rgb(203, 203, 203);" y="440" x="330"/>
  <path style="fill: rgb(52, 52, 52); transform-origin: 353.13px 486.591px;" d="M 365 470 L 356 486 L 357 503 L 361 509 L 361 504 L 364 503 L 360 500 L 363 487 L 368 478 L 365 470 Z"/>
  <path style="fill: rgb(52, 52, 52); transform-origin: 404.272px 485.591px;" d="M 391 469 L 402 483 L 402 502 L 398 509 L 398 504 L 395 502 L 399 499 L 395 486 L 389 476 L 391 469 Z"/>
  <path style="fill: rgb(52, 52, 52);" d="M 396 514 L 393 529 L 397 536 L 394 538 L 386 532 L 386 515 L 380 503 L 375 514 L 375 533 L 366 537 L 363 535 L 369 529 L 366 514 L 371 497 L 389 495 L 396 514 Z"/>
  <path style="fill: rgb(52, 52, 52);" d="M 373 463 L 372 459 C 370 459 365 452 370 452 C 368 441 385 443 384 451 C 389 451 384 459 383 459 L 381 463 L 384 470 L 372 470 L 373 463 Z"/>
  <path style="fill: rgb(255, 255, 255);" d="M 391 467 L 402 481 L 394 486 L 389 477 L 390 496 L 370 498 L 368 479 L 364 487 L 356 483 L 364 469 L 372 466 C 374 472 383 468 382 465 L 391 467 Z"/>
  <path style="fill: rgb(255, 255, 255);" d="M 604 446 L 609 449 L 586 452 L 589 448 C 587 440 603 438 604 446 Z"/>
  <rect width="100" height="100" style="fill: rgb(203, 203, 203);" y="110" x="330"/>
  <ellipse style="fill: rgba(0, 0, 0, 0.133);" cy="204" rx="22" ry="4" cx="380"/>
  <path style="fill: rgb(52, 52, 52); transform-origin: 353.137px 156.549px;" d="M 365 140 L 357 157 L 357 171 L 361 177 L 361 172 L 364 171 L 360 168 L 364 158 L 368 150 L 365 140 Z"/>
  <path style="fill: rgb(52, 52, 52); transform-origin: 404.279px 155.549px;" d="M 391 139 L 401 154 L 399 170 L 395 177 L 395 172 L 392 170 L 396 167 L 394 157 L 389 148 L 391 139 Z"/>
  <path style="fill: rgb(52, 52, 52);" d="M 373 134 L 372 130 C 370 130 365 123 370 123 C 368 112 385 114 384 122 C 389 122 384 130 383 130 L 381 134 L 385 136 L 380 158 L 371 137 L 373 134 Z"/>
  <path style="fill: rgb(255, 255, 255);" d="M 391 137 L 400 150 L 393 157 L 390 151 L 392 162 L 390 165 L 369 167 L 367 165 L 367 152 L 365 156 L 359 150 L 364 139 L 371 135 L 379 146 L 384 134 L 391 137 Z"/>
  <path style="fill: rgb(52, 52, 52);" d="M 396 187 L 393 199 L 397 206 L 394 208 L 386 202 L 384 188 L 385 188 L 384 184 L 380 176 L 376 179 L 374 182 L 375 182 L 374 197 L 368 203 L 365 201 L 368 193 L 364 181 L 366 181 L 365 178 L 369 166 L 372 165 L 367 137 L 369 136 L 375 165 L 385 164 L 387 135 L 389 136 L 387 164 L 390 164 L 394 183 L 394 187 L 396 187 Z"/>
  <path style="fill: rgb(255, 255, 255); transform-origin: 377.017px 117.554px;" d="M 384 117 L 388 120 C 389 121 367 124 366 123 L 369 119 C 368 111 382 109 384 117 Z"/>
  <rect width="100" height="100" style="fill: rgb(203, 203, 203);" y="110" x="220"/>
  <ellipse style="fill: rgba(0, 0, 0, 0.133);" cy="204" rx="22" ry="4" cx="270"/>
  <path style="fill: rgb(52, 52, 52); transform-origin: 243.137px 156.549px;" d="M 255 140 L 245 156 L 246 173 L 250 179 L 250 174 L 253 173 L 249 170 L 252 157 L 258 150 L 255 140 Z"/>
  <path style="fill: rgb(52, 52, 52); transform-origin: 294.279px 155.549px;" d="M 281 139 L 292 153 L 292 172 L 288 179 L 288 174 L 285 172 L 289 169 L 285 156 L 279 148 L 281 139 Z"/>
  <path style="fill: rgb(52, 52, 52);" d="M 263 135 L 262 131 C 260 131 255 124 260 124 C 258 113 275 115 274 123 C 279 123 274 131 273 131 L 271 135 L 275 137 L 270 159 L 261 138 L 263 135 Z"/>
  <path style="fill: rgb(255, 255, 255);" d="M 281 138 L 290 149 L 284 157 L 280 152 L 282 163 L 280 166 L 259 168 L 257 166 L 257 153 L 254 157 L 248 150 L 254 140 L 261 136 L 269 147 L 274 135 L 281 138 Z"/>
  <path style="fill: rgb(52, 52, 52);" d="M 286 187 L 283 199 L 287 206 L 284 208 L 276 202 L 274 188 L 275 188 L 275 184 L 270 173 L 265 184 L 265 188 L 266 188 L 265 203 L 256 207 L 253 205 L 259 199 L 255 187 L 257 187 L 256 184 L 259 167 L 262 166 L 257 138 L 259 137 L 265 166 L 275 165 L 277 136 L 279 137 L 277 165 L 280 165 L 285 183 L 284 187 L 286 187 Z"/>
  <path style="fill: rgb(255, 255, 255); transform-origin: 267.017px 118.554px;" d="M 274 118 L 278 121 C 279 122 257 125 256 124 L 259 120 C 258 112 272 110 274 118 Z"/>
  <rect width="100" height="100" style="fill: rgb(203, 203, 203);" y="440" x="440"/>
  <path style="fill: rgb(52, 52, 52); transform-origin: 463.13px 486.591px;" d="M 475 470 L 465 486 L 466 503 L 470 509 L 470 504 L 473 503 L 469 500 L 472 487 L 478 480 L 475 470 Z"/>
  <path style="fill: rgb(52, 52, 52); transform-origin: 514.272px 485.591px;" d="M 501 469 L 512 483 L 512 502 L 508 509 L 508 504 L 505 502 L 509 499 L 505 486 L 499 478 L 501 469 Z"/>
  <path style="fill: rgb(52, 52, 52);" d="M 506 516 L 503 529 L 507 536 L 504 538 L 496 532 L 494 517 L 495 517 L 495 513 L 490 503 L 485 513 L 485 517 L 486 517 L 485 533 L 476 537 L 473 535 L 479 529 L 475 516 L 477 516 L 476 513 L 479 495 L 500 493 L 505 512 L 504 516 L 506 516 Z"/>
  <path style="fill: rgb(52, 52, 52);" d="M 483 463 L 482 459 C 480 459 475 452 480 452 C 478 441 495 443 494 451 C 499 451 494 459 493 459 L 491 463 L 494 470 L 482 470 L 483 463 Z"/>
  <path style="fill: rgb(255, 255, 255);" d="M 501 467 L 509 478 L 503 484 L 500 481 L 500 493 L 479 495 L 477 482 L 474 486 L 468 479 L 474 469 L 481 465 L 488 468 L 494 464 L 501 467 Z"/>
  <rect width="100" height="100" style="fill: rgb(203, 203, 203);" y="110" x="440"/>
  <ellipse style="fill: rgba(0, 0, 0, 0.133);" cy="204" rx="22" ry="4" cx="490"/>
  <path style="fill: rgb(52, 52, 52); transform-origin: 463.137px 156.549px;" d="M 475 142 L 467 159 L 470 176 L 474 182 L 474 177 L 477 176 L 473 173 L 474 160 L 478 150 L 475 142 Z"/>
  <path style="fill: rgb(52, 52, 52); transform-origin: 514.279px 155.549px;" d="M 501 139 L 511 152 L 511 168 L 507 174 L 507 170 L 505 169 L 508 166 L 505 155 L 499 148 L 501 139 Z"/>
  <path style="fill: rgb(52, 52, 52);" d="M 483 135 L 482 131 C 480 131 475 124 480 124 C 478 113 495 115 494 123 C 499 123 494 131 493 131 L 491 135 L 495 137 L 490 159 L 481 138 L 483 135 Z"/>
  <path style="fill: rgb(255, 255, 255);" d="M 501 138 L 508 147 L 504 155 L 500 152 L 502 163 L 500 166 L 479 168 L 477 166 L 477 153 L 475 159 L 469 152 L 474 141 L 481 136 L 489 147 L 494 135 L 501 138 Z"/>
  <path style="fill: rgb(52, 52, 52);" d="M 502 187 L 499 197 L 499 206 L 496 208 L 492 200 L 490 188 L 491 188 L 491 184 L 489 175 L 487 185 L 489 185 L 494 198 L 486 202 L 483 200 L 486 195 L 478 189 L 479 187 L 478 184 L 480 167 L 482 166 L 477 138 L 479 137 L 485 166 L 495 165 L 497 136 L 499 137 L 497 165 L 500 165 L 501 183 L 500 187 L 502 187 Z"/>
  <path style="fill: rgb(255, 255, 255); transform-origin: 487.017px 118.554px;" d="M 494 119 L 498 122 C 499 123 477 125 476 124 L 479 120 C 478 112 492 111 494 119 Z"/>
  <rect width="100" height="100" style="fill: rgb(203, 203, 203);" y="110" x="770"/>
  <ellipse style="fill: rgba(0, 0, 0, 0.133);" cy="188" rx="44" ry="9" cx="820"/>
  <path style="fill: rgb(52, 52, 52); transform-origin: 825.769px 157.366px;" d="M 844 168 L 823 165 L 817 175 L 825 173 L 834 171 L 844 168 Z"/>
  <path style="fill: rgb(52, 52, 52); transform-origin: 835.785px 209.977px;" d="M 842 231 L 839 220 L 820 218 L 813 222 L 818 222 L 819 225 L 823 221 L 833 225 L 828 235 L 842 231 Z" transform="matrix(-0.997863, -0.065343, 0.065343, -0.997863, 0.000089, -0.00001)"/>
  <path style="fill: rgb(52, 52, 52); transform-origin: 845.874px 180.092px;" d="M 848 176 L 851 177 C 853 174 866 176 864 184 C 863 187 862 187 859 188 C 856 189 851 186 851 186 L 849 185 L 844 187 L 826 183 L 846 174 L 848 176 Z"/>
  <path style="fill: rgb(255, 255, 255); transform-origin: 832.588px 182.727px;" d="M 849 189 L 841 194 L 832 192 L 824 197 L 820 195 L 816 174 L 823 173 L 831 171 L 828 164 L 843 167 L 848 173 L 837 182 L 849 185 L 849 189 Z"/>
  <path style="fill: rgb(52, 52, 52);" d="M 798 200 L 787 198 L 779 202 L 777 200 L 782 192 L 796 189 L 796 190 L 800 187 L 811 185 L 798 186 L 794 187 L 794 188 L 779 187 L 774 179 L 776 176 L 783 182 L 794 177 L 794 179 L 797 177 L 812 173 L 818 176 L 845 170 L 847 172 L 818 179 L 820 190 L 849 185 L 849 188 L 820 192 L 816 195 L 802 197 L 799 198 L 798 200 Z"/>
  <path style="fill: rgb(255, 255, 255); transform-origin: 851.963px 158.482px;" d="M 853 167 L 850 172 C 850 173 843 152 844 150 L 848 153 C 856 150 860 164 853 167 Z" transform="matrix(0.392869, -0.919594, 0.919594, 0.392869, -0.000017, -0.00001)"/>
  <path d="M -94 79 C -90 98 -19 98 -19 79 C -61 91 -60 71 -94 79 Z" style="fill: rgb(174, 174, 174); transform-origin: -56.315px 81.231px;"/>
  <rect width="100" height="100" style="fill: rgb(203, 203, 203);" y="110" x="660"/>
  <ellipse style="fill: rgba(0, 0, 0, 0.133);" cy="204" rx="22" ry="4" cx="710"/>
  <path style="fill: rgb(52, 52, 52); transform-origin: 683.137px 186.549px;" d="M 695 173 L 685 186 L 674 199 L 668 203 L 671 205 L 675 203 L 678 205 L 677 201 L 692 187 L 698 180 L 695 173 Z"/>
  <path style="fill: rgb(52, 52, 52); transform-origin: 734.279px 155.549px;" d="M 720 170 L 731 187 L 721 196 L 717 198 L 723 188 L 719 178 L 720 170 Z"/>
  <path style="fill: rgb(52, 52, 52); transform-origin: 706.093px 167.685px;" d="M 702 166 L 701 163 C 699 164 692 158 697 157 C 692 147 709 145 710 153 C 715 151 712 160 711 161 L 710 164 L 715 166 L 715 187 L 696 170 L 702 166 Z"/>
  <path style="fill: rgb(255, 255, 255);" d="M 723 170 L 728 178 L 722 187 L 720 182 L 722 192 L 715 197 L 699 192 L 696 189 L 698 182 L 694 187 L 686 184 L 692 173 L 696 169 L 712 177 L 714 165 L 723 170 Z"/>
  <path style="fill: rgb(52, 52, 52);" d="M 743 197 L 748 192 L 751 194 L 745 206 L 730 202 L 722 204 L 709 206 L 698 203 L 695 202 L 695 211 L 686 215 L 683 213 L 689 207 L 685 195 L 687 195 L 686 192 L 691 188 L 700 192 L 699 168 L 701 167 L 703 192 L 712 195 L 717 166 L 719 167 L 714 195 L 721 192 L 732 195 L 733 193 L 743 197 Z"/>
  <rect width="100" height="100" style="fill: rgb(203, 203, 203);" y="110" x="550"/>
  <ellipse style="fill: rgba(0, 0, 0, 0.133);" cy="204" rx="41" ry="4" cx="600"/>
  <path style="fill: rgb(52, 52, 52); transform-origin: 624.279px 154.549px;" d="M 610 169 L 618 185 L 613 195 L 607 197 L 610 187 L 609 177 L 610 169 Z"/>
  <path style="fill: rgb(52, 52, 52); transform-origin: 596.093px 166.685px;" d="M 591 165 L 591 162 C 589 163 582 157 587 156 C 583 146 600 143 600 152 C 605 150 602 159 601 160 L 601 163 L 605 165 L 601 181 L 586 169 L 591 165 Z"/>
  <path style="fill: rgb(255, 255, 255);" d="M 613 169 L 618 177 L 612 186 L 612 191 L 605 196 L 589 191 L 586 188 L 588 181 L 580 184 L 582 172 L 586 168 L 602 176 L 604 164 L 613 169 Z"/>
  <path style="fill: rgb(52, 52, 52); transform-origin: 581.646px 191.512px;" d="M 588 181 L 582 183 L 589 195 L 596 195 L 588 181 Z"/>
  <path style="fill: rgb(52, 52, 52);" d="M 633 196 L 638 191 L 641 193 L 635 205 L 620 201 L 609 203 L 603 203 L 596 204 L 585 202 L 566 206 L 562 197 L 564 194 L 567 198 L 576 193 L 577 195 L 590 191 L 589 166 L 591 165 L 593 191 L 602 194 L 607 165 L 609 166 L 604 194 L 611 191 L 622 194 L 623 192 L 633 196 Z"/>
  <path style="fill: rgb(255, 255, 255); transform-origin: 593.88px 149.476px;" d="M 601 149 L 605 152 C 607 159 586 164 583 155 L 586 151 C 585 143 599 141 601 149 Z"/>
  <path style="fill: rgb(255, 255, 255); transform-origin: 703.88px 150.476px;" d="M 711 150 L 715 153 C 717 160 696 165 693 156 L 696 152 C 695 144 709 142 711 150 Z"/>
  <rect width="100" height="100" style="fill: rgb(143, 107, 63);" y="-110"/>
  <path d="M 28 -65 C 27 -57 4 -57 4 -65 C 5 -81 28 -79 28 -65 Z" style="fill: rgb(204, 204, 204); transform-origin: 17.4709px -69.0236px;"/>
  <path d="M 28 -65 C 27 -57 4 -57 4 -65 C 15 -69 15 -61 28 -65 Z" style="fill: rgb(174, 174, 174); transform-origin: 17.4709px -64.9813px;"/>
  <path d="M -51 -64 C -52 -56 -75 -56 -75 -64 C -74 -80 -51 -78 -51 -64 Z" style="fill: rgb(204, 204, 204); transform-origin: -62.6468px -67.2389px;"/>
  <path d="M -51 -64 C -52 -56 -75 -56 -75 -64 C -64 -68 -64 -60 -51 -64 Z" style="fill: rgb(174, 174, 174); transform-origin: -62.6468px -63.1966px;"/>
  <path d="M 96 -68 C 95 -60 72 -60 72 -68 C 73 -84 96 -82 96 -68 Z" style="fill: rgb(204, 204, 204); transform-origin: 85.6695px -71.0884px;"/>
  <path d="M 96 -68 C 95 -60 72 -60 72 -68 C 83 -72 83 -64 96 -68 Z" style="fill: rgb(174, 174, 174); transform-origin: 85.6695px -67.0461px;"/>
  <path d="M 95 -93 C 94 -85 71 -85 71 -93 C 72 -109 95 -107 95 -93 Z" style="fill: rgb(204, 204, 204); transform-origin: 84.9025px -95.725px;"/>
  <path d="M 95 -93 C 94 -85 71 -85 71 -93 C 82 -97 82 -89 95 -93 Z" style="fill: rgb(174, 174, 174); transform-origin: 84.9025px -91.683px;"/>
  <path d="M 63 -89 C 62 -81 39 -81 39 -89 C 40 -105 63 -103 63 -89 Z" style="fill: rgb(204, 204, 204); transform-origin: 52.3483px -92.859px;"/>
  <path d="M 63 -89 C 62 -81 39 -81 39 -89 C 50 -93 50 -85 63 -89 Z" style="fill: rgb(174, 174, 174); transform-origin: 52.3483px -88.8171px;"/>
  <path d="M 30 -92 C 29 -84 6 -84 6 -92 C 7 -108 30 -106 30 -92 Z" style="fill: rgb(204, 204, 204); transform-origin: 20.069px -95.775px;"/>
  <path d="M 30 -92 C 29 -84 6 -84 6 -92 C 17 -96 17 -88 30 -92 Z" style="fill: rgb(174, 174, 174); transform-origin: 20.069px -91.733px;"/>
  <path d="M 32 -28 C 31 -20 8 -20 8 -28 C 9 -44 32 -42 32 -28 Z" style="fill: rgb(204, 204, 204); transform-origin: 22.0171px -32.2809px;"/>
  <path d="M 32 -28 C 31 -20 8 -20 8 -28 C 19 -32 19 -24 32 -28 Z" style="fill: rgb(174, 174, 174); transform-origin: 22.0171px -28.2386px;"/>
  <path d="M 61 -22 C 60 -14 37 -14 37 -22 C 38 -38 61 -36 61 -22 Z" style="fill: rgb(204, 204, 204); transform-origin: 51.0743px -26.0163px;"/>
  <path d="M 61 -22 C 60 -14 37 -14 37 -22 C 48 -26 48 -18 61 -22 Z" style="fill: rgb(174, 174, 174); transform-origin: 51.0743px -21.974px;"/>
  <path d="M 92 -25 C 91 -17 68 -17 68 -25 C 69 -41 92 -39 92 -25 Z" style="fill: rgb(204, 204, 204); transform-origin: 82.6269px -28.5505px;"/>
  <path d="M 92 -25 C 91 -17 68 -17 68 -25 C 79 -29 79 -21 92 -25 Z" style="fill: rgb(174, 174, 174); transform-origin: 82.6269px -24.5082px;"/>
  <rect width="100" height="100" style="fill: rgb(143, 107, 63);" y="-220"/>
  <ellipse style="fill: rgba(0, 0, 0, 0.133);" cy="-187" rx="14" ry="2" cx="81"/>
  <ellipse style="fill: rgba(0, 0, 0, 0.133);" cy="-187" rx="14" ry="2" cx="51"/>
  <ellipse style="fill: rgba(0, 0, 0, 0.133);" cy="-183" rx="14" ry="2" cx="22"/>
  <ellipse style="fill: rgba(0, 0, 0, 0.133);" cy="-157" rx="14" ry="2" cx="19"/>
  <ellipse style="fill: rgba(0, 0, 0, 0.133);" cy="-152" rx="14" ry="2" cx="84"/>
  <ellipse style="fill: rgba(0, 0, 0, 0.133);" cy="-129" rx="14" ry="2" cx="80"/>
  <ellipse style="fill: rgba(0, 0, 0, 0.133);" cy="-127" rx="14" ry="2" cx="49"/>
  <ellipse style="fill: rgba(0, 0, 0, 0.133);" cy="-132" rx="14" ry="2" cx="20"/>
  <path d="M 34 -193 C 33 -178 10 -178 10 -193 C 11 -222 34 -218 34 -193 Z" style="fill: rgb(204, 204, 204); transform-origin: 24.069px -200.005px;"/>
  <path d="M 96 -163 C 95 -148 72 -148 72 -163 C 73 -193 96 -189 96 -163 Z" style="fill: rgb(204, 204, 204); transform-origin: 85.6695px -168.779px;"/>
  <path d="M 96 -163 C 95 -148 72 -148 72 -163 C 83 -170 83 -156 96 -163 Z" style="fill: rgb(174, 174, 174); transform-origin: 85.6695px -161.316px;"/>
  <path d="M 92 -196 C 91 -184 68 -184 68 -196 C 69 -221 92 -217 92 -196 Z" style="fill: rgb(204, 204, 204); transform-origin: 82.2629px -200.138px;"/>
  <path d="M 92 -196 C 91 -184 68 -184 68 -196 C 79 -202 79 -190 92 -196 Z" style="fill: rgb(174, 174, 174); transform-origin: 82.2629px -193.959px;"/>
  <path d="M 63 -197 C 62 -183 39 -183 39 -197 C 40 -224 63 -221 63 -197 Z" style="fill: rgb(204, 204, 204); transform-origin: 52.3483px -203.606px;"/>
  <path d="M 63 -197 C 62 -183 39 -183 39 -197 C 50 -204 50 -190 63 -197 Z" style="fill: rgb(174, 174, 174); transform-origin: 52.3483px -196.696px;"/>
  <path d="M 34 -193 C 33 -178 10 -178 10 -193 C 21 -201 21 -186 34 -193 Z" style="fill: rgb(174, 174, 174); transform-origin: 24.069px -192.822px;"/>
  <path d="M 31 -166 C 30 -153 7 -153 7 -166 C 8 -193 31 -189 31 -166 Z" style="fill: rgb(204, 204, 204); transform-origin: 20.0365px -172.922px;"/>
  <path d="M 31 -166 C 30 -153 7 -153 7 -166 C 18 -173 18 -159 31 -166 Z" style="fill: rgb(174, 174, 174); transform-origin: 20.0365px -166.182px;"/>
  <path d="M 32 -142 C 31 -129 8 -129 8 -142 C 9 -168 32 -165 32 -142 Z" style="fill: rgb(204, 204, 204); transform-origin: 22.0171px -149.002px;"/>
  <path d="M 32 -142 C 31 -129 8 -129 8 -142 C 19 -149 19 -135 32 -142 Z" style="fill: rgb(174, 174, 174); transform-origin: 22.0171px -142.318px;"/>
  <path d="M 61 -136 C 60 -124 37 -124 37 -136 C 38 -161 61 -158 61 -136 Z" style="fill: rgb(204, 204, 204); transform-origin: 51.0743px -142.432px;"/>
  <path d="M 61 -136 C 60 -124 37 -124 37 -136 C 48 -142 48 -130 61 -136 Z" style="fill: rgb(174, 174, 174); transform-origin: 51.0743px -136.204px;"/>
  <path d="M 92 -138 C 91 -126 68 -126 68 -138 C 69 -161 92 -158 92 -138 Z" style="fill: rgb(204, 204, 204); transform-origin: 82.6269px -142.99px;"/>
  <path d="M 92 -138 C 91 -126 68 -126 68 -138 C 79 -144 79 -132 92 -138 Z" style="fill: rgb(174, 174, 174); transform-origin: 82.6269px -137.069px;"/>
  <rect width="100" height="100" style="fill: rgb(143, 107, 63);" y="220"/>
  <ellipse style="fill: rgba(0, 0, 0, 0.133);" cy="310" rx="47" ry="7" cx="50"/>
  <path d="M 16 298 C 20 317 91 317 91 298 C 91 282 87 269 69 271 C 60 272 41 257 34 265 C 24 276 16 288 16 298 Z" style="fill: rgb(204, 204, 204); transform-origin: 53.685px 274.908px;"/>
  <path d="M 5 274 C 7 293 95 293 95 274 C 95 258 52 245 38 245 C 20 245 5 264 5 274 Z" style="fill: rgb(204, 204, 204); transform-origin: 49.6696px 250.908px;"/>
  <path d="M 12 248 C 16 270 95 270 95 248 C 95 231 86 224 67 225 C 41 226 12 237 12 248 Z" style="fill: rgb(204, 204, 204); transform-origin: 54.257px 222.874px;"/>
  <path d="M 12 249 C 16 270 95 270 95 249 C 72 246 69 258 12 249 Z" style="fill: rgb(174, 174, 174); transform-origin: 54.257px 252.006px;"/>
  <path d="M 5 275 C 7 294 95 294 95 275 C 25 288 10 265 5 275 Z" style="fill: rgb(174, 174, 174); transform-origin: 49.6696px 277.231px;"/>
  <path d="M 16 299 C 20 318 91 318 91 299 C 49 311 50 291 16 299 Z" style="fill: rgb(174, 174, 174); transform-origin: 53.685px 301.231px;"/>
  <path d="M 16 299 C 20 318 91 318 91 299 C 49 311 50 291 16 299 Z" style="fill: rgb(174, 174, 174); transform-origin: 53.685px 301.231px;"/>
  <rect width="100" height="100" style="fill: rgb(143, 107, 63);" y="330"/>
  <ellipse style="fill: rgba(0, 0, 0, 0.133);" cy="421" rx="47" ry="7" cx="50"/>
  <path d="M 28 346 C 38 342 68 339 76 339 C 90 339 100 361 88 388 C 76 415 13 414 11 382 C 11 361 14 352 28 346 Z" style="fill: rgb(174, 174, 174);"/>
  <path d="M 50 371 C 52 366 55 354 72 351 C 87 348 97 382 97 403 C 97 423 66 429 49 420 C 33 430 3 424 2 402 C 2 387 11 364 23 364 C 27 364 42 362 50 371 Z" style="fill: rgb(204, 204, 204);"/>
  <path d="M 2 402 C 16 400 15 416 39 412 C 38 410 37 408 37 405 C 63 394 63 422 97 405 C 97 425 66 430 49 421 C 36 430 4 426 2 402 Z" style="fill: rgb(174, 174, 174);"/>
  <rect width="100" height="100" style="fill: rgb(143, 107, 63);" y="440"/>
  <path d="M 29 537 L 97 525 L 92 522 L 11 521 L 6 522 L 29 537 Z" style="fill: rgba(0, 0, 0, 0.133);"/>
  <path d="M 45 446 L 51 447 L 56 452 L 87 451 L 77 484 L 87 499 L 92 522 L 62 526 L 51 521 L 43 529 L 29 531 L 45 446 Z" style="fill: rgb(204, 204, 204);"/>
  <path d="M 45 446 L 25 459 L 22 491 L 11 521 L 29 531 L 45 446 Z" style="fill: rgb(174, 174, 174);"/>
  <rect width="100" height="100" style="fill: rgb(143, 107, 63);" y="550"/>
  <path d="M 44 646 L 96 641 L 91 637 L 7 634 L 3 635 L 44 646 Z" style="fill: rgba(0, 0, 0, 0.133);"/>
  <rect width="100" height="100" style="fill: rgb(80, 117, 228);" y="-111" x="-550"/>
  <path style="fill: rgb(255, 255, 255);" d="M -529 -30 L -524 -80 L -509 -99 L -484 -101 L -468 -82 L -462 -35 L -529 -30 Z"/>
  <path style="fill: rgb(218, 218, 218);" d="M -513 -77 L -501 -77 L -503 -67 L -512 -68 L -513 -77 Z"/>
  <path style="fill: rgb(218, 218, 218); transform-origin: -483.738px -71.551px;" d="M -489 -64 L -476 -66 L -478 -75 L -488 -74 L -489 -64 Z" transform="matrix(-1, 0, 0, -1, 0.000016, 0.000004)"/>
  <path style="fill: rgb(218, 218, 218);" d="M -529 -30 L -524 -80 L -509 -99 L -521 -94 L -533 -80 L -538 -41 L -529 -30 Z"/>
  <path style="fill: rgba(255, 255, 255, 0.133);" d="M -538 -41 L -531 -18 L -469 -26 L -462 -35 L -538 -41 Z"/>
  <path style="fill: rgb(218, 218, 218);" d="M -500 -58 L -489 -59 L -486 -46 L -501 -45 L -500 -58 Z"/>
  <rect width="100" height="100" style="fill: rgb(203, 203, 203);" y="220" x="220"/>
  <ellipse style="fill: rgba(0, 0, 0, 0.133);" cy="299" rx="26" ry="8" cx="266"/>
  <path style="fill: rgb(52, 52, 52); transform-origin: 271.5px 289.5px;" d="M 246 292 L 255 291 L 264 286 L 260 290 L 267 289 L 271 283 L 271 288 L 275 288 L 286 283 L 280 288 L 288 290 L 301 282 L 309 297 C 309 297 298 291 298 290 C 298 290 288 294 288 294 L 285 300 L 292 308 L 305 304 L 289 315 L 282 304 L 274 302 L 271 318 L 268 301 L 264 300 L 257 312 L 260 300 L 255 299 L 252 311 L 252 298 L 242 296 L 234 284 L 246 267 L 274 273 L 247 278 L 241 284 L 246 292 Z"/>
  <rect width="100" height="100" style="fill: rgb(203, 203, 203);" y="220" x="330"/>
  <ellipse style="fill: rgba(0, 0, 0, 0.133);" cy="299" rx="26" ry="8" cx="376"/>
  <path style="fill: rgb(52, 52, 52); transform-origin: 381.5px 289.5px;" d="M 356 292 L 365 291 L 367 285 L 370 290 L 377 289 L 382 284 L 381 288 L 385 288 L 390 282 L 390 288 L 398 290 L 414 282 L 422 297 C 422 297 411 291 411 290 C 411 290 398 294 398 294 L 395 300 L 405 307 L 418 303 L 402 314 L 392 304 L 384 302 L 377 313 L 378 301 L 374 300 L 369 312 L 370 300 L 365 299 L 353 309 L 362 298 L 352 296 L 344 284 L 359 266 L 387 272 L 360 277 L 351 284 L 356 292 Z"/>
  <path d="M 52 558 L 33 568 L 15 568 L 19 601 L 13 611 L 7 634 L 44 641 L 47 612 L 52 602 L 52 558 Z" style="fill: rgb(174, 174, 174);"/>
  <path d="M 52 558 L 75 560 L 83 575 L 91 638 L 44 641 L 47 612 L 52 602 L 52 558 Z" style="fill: rgb(204, 204, 204);"/>
  <rect width="100" height="200" style="fill: rgb(143, 107, 64);" x="-330" y="220"/>
  <path d="M -285 416 L -235 400 L -242 398 L -316 401 L -325 403 L -285 416 Z" style="fill: rgba(0, 0, 0, 0.133);"/>
  <path d="M -285 232 L -296 254 L -309 260 L -318 276 L -307 346 L -316 401 L -285 411 L -279 347 L -285 232 Z" style="fill: rgb(174, 174, 174);"/>
  <path d="M -285 232 L -256 233 L -244 251 L -257 368 L -242 398 L -285 411 L -279 347 L -285 232 Z" style="fill: rgb(204, 204, 204);"/>
  <rect width="100" height="100" style="fill: rgb(143, 107, 63);" y="440" x="110"/>
  <path d="M 137 538 L 208 525 L 202 522 L 121 521 L 116 522 L 137 538 Z" style="fill: rgba(0, 0, 0, 0.133);"/>
  <path d="M 155 466 L 161 467 L 166 472 L 180 474 L 178 488 L 197 499 L 202 522 L 138 534 L 155 466 Z" style="fill: rgb(204, 204, 204);"/>
  <path d="M 155 466 L 145 478 L 126 486 L 121 521 L 138 534 L 155 466 Z" style="fill: rgb(174, 174, 174);"/>
  <rect width="100" height="200" style="fill: rgb(143, 107, 64);" x="-440" y="220"/>
  <ellipse style="fill: rgba(0, 0, 0, 0.133);" cy="412" rx="22" ry="4" cx="-390"/>
  <path d="M -390 413 C -398 413 -407 412 -407 411 C -407 411 -407 407 -407 407 C -407 406 -398 405 -390 405 C -382 405 -373 406 -373 407 L -373 411 C -373 412 -382 413 -390 413 Z" style="fill: rgb(174, 174, 174);"/>
  <path d="M -390 409 C -395 409 -400 408 -400 407 C -400 407 -400 287 -400 287 C -400 286 -395 285 -390 285 C -385 285 -380 286 -380 287 L -380 407 C -380 408 -385 409 -390 409 Z" style="fill: rgb(204, 204, 204);"/>
  <rect width="100" height="200" style="fill: rgb(143, 107, 64);" x="-440" y="550"/>
  <ellipse style="fill: rgba(0, 0, 0, 0.133);" cy="742" rx="19" ry="3" cx="-415"/>
  <path d="M -415 743 C -422 743 -430 742 -430 741 C -430 741 -430 737 -430 737 C -430 737 -422 736 -415 736 C -408 736 -400 737 -400 737 L -400 741 C -400 742 -408 743 -415 743 Z" style="fill: rgb(174, 174, 174);"/>
  <ellipse style="fill: rgba(0, 0, 0, 0.133);" cy="739" rx="19" ry="3" cx="-366"/>
  <path d="M -366 740 C -373 740 -381 739 -381 738 C -381 738 -381 734 -381 734 C -381 734 -373 733 -366 733 C -359 733 -351 734 -351 734 L -351 738 C -351 739 -359 740 -366 740 Z" style="fill: rgb(174, 174, 174);"/>
  <path d="M -366 736 C -370 736 -375 735 -375 734 C -375 734 -375 640 -375 640 C -375 640 -373 638 -369 638 C -365 638 -357 644 -357 644 L -357 734 C -357 735 -362 736 -366 736 Z" style="fill: rgb(204, 204, 204);"/>
  <path d="M -415 739 C -419 739 -424 738 -424 737 C -424 737 -424 613 -424 613 C -424 613 -419 605 -415 605 C -411 605 -406 603 -406 603 L -406 737 C -406 738 -411 739 -415 739 Z" style="fill: rgb(204, 204, 204);"/>
  <path d="M -365 669 C -369 669 -375 644 -375 643 C -375 643 -375 640 -375 640 C -375 640 -373 638 -369 638 C -365 638 -357 644 -357 644 C -357 645 -361 669 -365 669 Z" style="fill: rgb(174, 174, 174);"/>
  <path d="M -387 297 C -392 297 -400 287 -400 287 C -400 286 -395 285 -390 285 C -385 285 -380 286 -380 287 C -380 287 -382 297 -387 297 Z" style="fill: rgb(174, 174, 174);"/>
  <rect width="100" height="100" style="fill: rgb(143, 107, 63);" y="-330"/>
  <ellipse style="fill: rgba(0, 0, 0, 0.133);" cy="-239" rx="14" ry="2" cx="82"/>
  <ellipse style="fill: rgba(0, 0, 0, 0.133);" cy="-235" rx="14" ry="2" cx="49"/>
  <ellipse style="fill: rgba(0, 0, 0, 0.133);" cy="-241" rx="14" ry="2" cx="18"/>
  <path d="M 30 -251 C 29 -238 6 -238 6 -251 C 7 -277 30 -274 30 -251 Z" style="fill: rgb(204, 204, 204); transform-origin: 19.9573px -258.049px;"/>
  <path d="M 30 -251 C 29 -238 6 -238 6 -251 C 17 -258 17 -244 30 -251 Z" style="fill: rgb(174, 174, 174); transform-origin: 19.9573px -251.365px;"/>
  <path d="M 61 -244 C 60 -232 37 -232 37 -244 C 38 -269 61 -266 61 -244 Z" style="fill: rgb(204, 204, 204); transform-origin: 51.0743px -250.432px;"/>
  <path d="M 61 -244 C 60 -232 37 -232 37 -244 C 48 -250 48 -238 61 -244 Z" style="fill: rgb(174, 174, 174); transform-origin: 51.0743px -244.204px;"/>
  <path d="M 94 -248 C 93 -236 70 -236 70 -248 C 71 -271 94 -268 94 -248 Z" style="fill: rgb(204, 204, 204); transform-origin: 84.5959px -252.924px;"/>
  <path d="M 94 -248 C 93 -236 70 -236 70 -248 C 81 -254 81 -242 94 -248 Z" style="fill: rgb(174, 174, 174); transform-origin: 84.5959px -247.003px;"/>
  <rect width="100" height="100" style="fill: rgb(243, 190, 83);"/>
  <path d="M 0 37 C 0 37 50 55 100 37 L 100 100 L 0 100 L 0 37 Z" style="fill: rgb(143, 107, 63);"/>
  <ellipse style="fill: rgb(107, 80, 47);" cx="22" cy="68" rx="8" ry="3"/>
  <ellipse style="fill: rgb(107, 80, 47);" cx="58" cy="89" rx="6" ry="2"/>
  <path style="fill: rgb(212, 165, 71); transform-origin: 48.234px 11.531px;" d="M 9 13 C 46 17 62 0 88 10 C 65 9 35 24 9 13 Z"/>
  <path style="fill: rgb(212, 165, 71); transform-origin: 50.525px 27.677px;" d="M 17 23 C 47 32 68 18 88 30 C 69 25 38 35 17 23 Z"/>
</svg>